{
.appVersion = "1145";
DisplayStrings = (
"El veloz murcielago hindu come kiwi y bebe limonada junto una higuera mientras oye feliz el sonido de un erque y un xilofon.\012Ahora quiere comer: 1 tomate, 5 manzanas y 87 uvas; esperará hasta las 23:49 (hora en que nació un 6 de noviembre de 2018) para hacerlo. EL VELOZ MURCIELAGO HINDU COME KIWI Y BEBE LIMONADA JUNTO UNA HIGUERA MIENTRAS OYE FELIZ EL SONIDO DE UN ERQUE Y UN XILOFON.\012AHORA QUIERE COMER: 1 TOMATE, 5 MANZANAS Y 87 UVAS; ESPERARÁ HASTA LAS 23:49 (HORA EN QUE NACIÓ UN 6 DE NOVIEMBRE DE 2018) PARA HACERLO.\012\012",
"l/periodcentered.loclCAT/ldot l",
"'"
);
classes = (
{
automatic = 1;

glyphs = (
{
color = 0;
glyphname = A;
lastChange = "2018-05-29 07:25:28 +0000";
layers = (
{
anchors = (
{
name = bottom;
position = "{329, 0}";
},
{
name = ogonek;
position = "{661, 0}";
},
{
name = top;
position = "{333, 720}";
}
);
background = {
paths = (
{
closed = 0;
nodes = (
"438 232 LINE",
"459 172 LINE",
"486 64 LINE",
"413 44 LINE",
"417 -5 LINE",
"417 -5 OFFCURVE",
"529 0 OFFCURVE",
"560 0 CURVE",
"661 0 LINE",
"666 54 LINE",
"604 64 LINE",
"565 149 LINE",
"359 715 LINE",
"301 705 LINE",
"122 160 LINE",
"79 61 LINE",
"16 44 LINE",
"20 -5 LINE",
"20 -5 OFFCURVE",
"130 0 OFFCURVE",
"155 0 CURVE",
"241 0 LINE",
"246 54 LINE",
"176 64 LINE",
"186 127 LINE",
"218 232 LINE"
);
},
{
closed = 0;
nodes = (
"418 286 LINE",
"236 282 LINE"
);
},
{
closed = 0;
nodes = (
"218 232 LINE",
"438 232 LINE"
);
},
{
closed = 0;
nodes = (
"236 282 LINE",
"324 557 LINE",
"418 286 LINE"
);
}
);
};
layerId = UUID0;
paths = (
{
closed = 1;
nodes = (
"459 172 LINE SMOOTH",
"471 137 OFFCURVE",
"478 100 OFFCURVE",
"486 64 CURVE",
"413 44 LINE",
"417 -5 LINE",
"417 -5 OFFCURVE",
"529 0 OFFCURVE",
"560 0 CURVE",
"661 0 LINE",
"666 54 LINE",
"604 64 LINE",
"591 91 OFFCURVE",
"575 120 OFFCURVE",
"565 149 CURVE SMOOTH",
"359 715 LINE",
"301 705 LINE",
"122 160 LINE SMOOTH",
"111 126 OFFCURVE",
"93 89 OFFCURVE",
"79 61 CURVE",
"16 44 LINE",
"20 -5 LINE",
"20 -5 OFFCURVE",
"130 0 OFFCURVE",
"155 0 CURVE",
"241 0 LINE",
"246 54 LINE",
"176 64 LINE",
"178 85 OFFCURVE",
"180 107 OFFCURVE",
"186 127 CURVE SMOOTH",
"324 557 LINE"
);
},
{
closed = 1;
nodes = (
"423 285 LINE",
"231 285 LINE",
"213 232 LINE",
"443 232 LINE"
);
}
);
width = 683;
},
{
anchors = (
{
name = bottom;
position = "{335, 0}";
},
{
name = ogonek;
position = "{678, 0}";
},
{
name = top;
position = "{355, 720}";
}
);
background = {
paths = (
{
closed = 1;
nodes = (
"624 80 LINE",
"616 96 OFFCURVE",
"610 111 OFFCURVE",
"604 128 CURVE SMOOTH",
"404 716 LINE",
"292 705 LINE",
"103 161 LINE SMOOTH",
"93 131 OFFCURVE",
"76 102 OFFCURVE",
"60 73 CURVE",
"16 65 LINE",
"21 -5 LINE",
"21 -5 OFFCURVE",
"131 0 OFFCURVE",
"161 0 CURVE SMOOTH",
"266 0 LINE",
"271 71 LINE",
"213 77 LINE",
"214 90 OFFCURVE",
"215 102 OFFCURVE",
"219 115 CURVE SMOOTH",
"239 179 LINE",
"425 179 LINE",
"439 129 LINE SMOOTH",
"444 112 OFFCURVE",
"443 94 OFFCURVE",
"444 76 CURVE",
"385 65 LINE",
"390 -5 LINE",
"390 -5 OFFCURVE",
"544 0 OFFCURVE",
"594 0 CURVE SMOOTH",
"678 0 LINE",
"683 71 LINE"
);
},
{
closed = 1;
nodes = (
"264 263 LINE",
"335 498 LINE",
"402 263 LINE"
);
}
);
};
guideLines = (
{
position = "{317, 65}";
}
);
layerId = "16643525-C5DD-48EC-8E99-463BF28F5E85";
paths = (
{
closed = 1;
nodes = (
"292 705 LINE",
"103 161 LINE SMOOTH",
"93 131 OFFCURVE",
"76 102 OFFCURVE",
"60 73 CURVE",
"16 65 LINE",
"21 -5 LINE",
"21 -5 OFFCURVE",
"131 0 OFFCURVE",
"161 0 CURVE",
"266 0 LINE",
"271 71 LINE",
"213 77 LINE",
"214 90 OFFCURVE",
"215 102 OFFCURVE",
"219 115 CURVE SMOOTH",
"361 584 LINE"
);
},
{
closed = 1;
nodes = (
"403 263 LINE",
"262 263 LINE",
"236 179 LINE",
"427 179 LINE"
);
},
{
closed = 1;
nodes = (
"439 129 LINE SMOOTH",
"444 112 OFFCURVE",
"443 94 OFFCURVE",
"444 76 CURVE",
"385 65 LINE",
"390 -5 LINE",
"390 -5 OFFCURVE",
"544 0 OFFCURVE",
"594 0 CURVE",
"678 0 LINE",
"683 71 LINE",
"624 80 LINE",
"616 96 OFFCURVE",
"610 111 OFFCURVE",
"604 128 CURVE SMOOTH",
"404 716 LINE",
"292 705 LINE",
"311 582 LINE"
);
}
);
width = 699;
},
{
anchors = (
{
name = bottom;
position = "{294, 0}";
},
{
name = ogonek;
position = "{607, 0}";
},
{
name = top;
position = "{386, 720}";
}
);
background = {
paths = (
{
closed = 1;
nodes = (
"619 54 LINE",
"561 64 LINE",
"556 78 OFFCURVE",
"542 122 OFFCURVE",
"539 137 CURVE SMOOTH",
"416 715 LINE",
"356 705 LINE",
"109 167 LINE SMOOTH",
"95 137 OFFCURVE",
"59 75 OFFCURVE",
"50 61 CURVE",
"-13 44 LINE",
"-16 -5 LINE",
"-16 -5 OFFCURVE",
"90 0 OFFCURVE",
"115 0 CURVE SMOOTH",
"145 0 OFFCURVE",
"200 0 OFFCURVE",
"200 0 CURVE",
"212 54 LINE",
"146 64 LINE",
"149 78 OFFCURVE",
"162 122 OFFCURVE",
"169 137 CURVE SMOOTH",
"211 232 LINE",
"423 232 LINE",
"435 167 LINE SMOOTH",
"441 137 OFFCURVE",
"443 79 OFFCURVE",
"444 64 CURVE",
"371 44 LINE",
"367 -5 LINE",
"367 -5 OFFCURVE",
"484 0 OFFCURVE",
"509 0 CURVE SMOOTH",
"541 0 OFFCURVE",
"607 0 OFFCURVE",
"607 0 CURVE"
);
},
{
closed = 1;
nodes = (
"361 557 LINE",
"411 286 LINE",
"236 282 LINE"
);
}
);
};
layerId = "08C09966-8326-41C9-AE3D-74AAC6FC1D13";
paths = (
{
closed = 1;
nodes = (
"356 705 LINE",
"109 167 LINE SMOOTH",
"95 137 OFFCURVE",
"59 75 OFFCURVE",
"50 61 CURVE",
"-13 44 LINE",
"-16 -5 LINE",
"-16 -5 OFFCURVE",
"90 0 OFFCURVE",
"115 0 CURVE SMOOTH",
"145 0 OFFCURVE",
"200 0 OFFCURVE",
"200 0 CURVE",
"212 54 LINE",
"146 64 LINE",
"149 78 OFFCURVE",
"162 122 OFFCURVE",
"169 137 CURVE SMOOTH",
"371 578 LINE"
);
},
{
closed = 1;
nodes = (
"420 286 LINE",
"233 282 LINE SMOOTH",
"233 282 OFFCURVE",
"211 232 OFFCURVE",
"211 232 CURVE",
"424 232 LINE"
);
},
{
closed = 1;
nodes = (
"435 167 LINE SMOOTH",
"441 137 OFFCURVE",
"443 79 OFFCURVE",
"444 64 CURVE",
"371 44 LINE",
"367 -5 LINE",
"367 -5 OFFCURVE",
"484 0 OFFCURVE",
"509 0 CURVE SMOOTH",
"541 0 OFFCURVE",
"607 0 OFFCURVE",
"607 0 CURVE",
"619 54 LINE",
"561 64 LINE",
"556 78 OFFCURVE",
"542 122 OFFCURVE",
"539 137 CURVE SMOOTH",
"416 715 LINE",
"356 705 LINE",
"357 577 LINE"
);
}
);
width = 663;
},
{
anchors = (
{
name = bottom;
position = "{289, 0}";
},
{
name = ogonek;
position = "{622, 0}";
},
{
name = top;
position = "{406, 720}";
}
);
annotations = (
{
position = "{385.994, 179.577}";
type = Text;
}
);
background = {
paths = (
{
closed = 1;
nodes = (
"406 129 LINE SMOOTH",
"408 112 OFFCURVE",
"405 93 OFFCURVE",
"402 77 CURVE",
"344 66 LINE",
"338 -5 LINE",
"338 -5 OFFCURVE",
"456 0 OFFCURVE",
"486 0 CURVE SMOOTH",
"521 0 OFFCURVE",
"622 0 OFFCURVE",
"622 0 CURVE",
"636 71 LINE",
"583 76 LINE",
"578 92 OFFCURVE",
"573 111 OFFCURVE",
"570 128 CURVE SMOOTH",
"460 716 LINE",
"346 705 LINE",
"85 161 LINE SMOOTH",
"74 138 OFFCURVE",
"44 92 OFFCURVE",
"31 73 CURVE",
"-12 65 LINE",
"-17 -5 LINE",
"-17 -5 OFFCURVE",
"77 0 OFFCURVE",
"107 0 CURVE SMOOTH",
"154 0 OFFCURVE",
"223 0 OFFCURVE",
"223 0 CURVE",
"238 71 LINE",
"183 77 LINE",
"185 90 OFFCURVE",
"187 103 OFFCURVE",
"192 115 CURVE SMOOTH",
"361 498 LINE"
);
},
{
closed = 1;
nodes = (
"395 263 LINE",
"252 261 LINE",
"217 179 LINE",
"408 179 LINE"
);
}
);
};
layerId = "B953D09C-6DD0-450A-A78C-8C2188DD4016";
paths = (
{
closed = 1;
nodes = (
"346 705 LINE",
"85 161 LINE SMOOTH",
"74 138 OFFCURVE",
"44 92 OFFCURVE",
"31 73 CURVE",
"-12 65 LINE",
"-17 -5 LINE",
"-17 -5 OFFCURVE",
"77 0 OFFCURVE",
"107 0 CURVE SMOOTH",
"154 0 OFFCURVE",
"223 0 OFFCURVE",
"223 0 CURVE",
"238 71 LINE",
"183 77 LINE",
"185 90 OFFCURVE",
"187 103 OFFCURVE",
"192 115 CURVE SMOOTH",
"410 608 LINE"
);
},
{
closed = 1;
nodes = (
"395 263 LINE",
"252 261 LINE",
"217 179 LINE",
"408 179 LINE"
);
},
{
closed = 1;
nodes = (
"406 129 LINE SMOOTH",
"408 112 OFFCURVE",
"405 93 OFFCURVE",
"402 77 CURVE",
"344 66 LINE",
"338 -5 LINE",
"338 -5 OFFCURVE",
"456 0 OFFCURVE",
"486 0 CURVE SMOOTH",
"521 0 OFFCURVE",
"622 0 OFFCURVE",
"622 0 CURVE",
"636 71 LINE",
"583 76 LINE",
"578 92 OFFCURVE",
"573 111 OFFCURVE",
"570 128 CURVE SMOOTH",
"460 716 LINE",
"346 705 LINE",
"349 590 LINE"
);
}
);
width = 676;
}
);
leftKerningGroup = A;
rightKerningGroup = A;
unicode = 0041;
},
{
color = 1;
glyphname = AE;
lastChange = "2018-05-29 07:35:33 +0000";
layers = (
{
anchors = (
{
name = top;
position = "{618, 720}";
}
);
background = {
paths = (
{
closed = 1;
nodes = (
"481 130 LINE SMOOTH",
"484 110 OFFCURVE",
"486 90 OFFCURVE",
"486 64 CURVE",
"413 44 LINE",
"417 -5 LINE",
"417 -5 OFFCURVE",
"529 0 OFFCURVE",
"560 0 CURVE",
"745 0 LINE SMOOTH",
"765 0 OFFCURVE",
"859 -4 OFFCURVE",
"859 -4 CURVE",
"878 14 LINE",
"893 165 LINE",
"838 170 LINE",
"836 154 OFFCURVE",
"827 118 OFFCURVE",
"823 103 CURVE SMOOTH",
"821 96 OFFCURVE",
"812 80 OFFCURVE",
"802 66 CURVE",
"780 62 OFFCURVE",
"745 57 OFFCURVE",
"715 57 CURVE SMOOTH",
"593 57 LINE",
"568 167 LINE SMOOTH",
"511 541 LINE SMOOTH",
"505 578 OFFCURVE",
"502 627 OFFCURVE",
"500 649 CURVE",
"681 649 LINE SMOOTH",
"709 649 OFFCURVE",
"740 646 OFFCURVE",
"762 644 CURVE",
"772 631 OFFCURVE",
"781 617 OFFCURVE",
"782 610 CURVE",
"786 595 OFFCURVE",
"791 572 OFFCURVE",
"793 556 CURVE",
"851 561 LINE",
"844 697 LINE",
"825 715 LINE",
"825 715 OFFCURVE",
"731 705 OFFCURVE",
"711 705 CURVE SMOOTH",
"400 705 LINE",
"140 160 LINE SMOOTH",
"133 145 OFFCURVE",
"102 93 OFFCURVE",
"79 61 CURVE",
"16 44 LINE",
"20 -5 LINE",
"20 -5 OFFCURVE",
"130 0 OFFCURVE",
"155 0 CURVE",
"241 0 LINE",
"246 54 LINE",
"176 64 LINE",
"180 80 OFFCURVE",
"190 119 OFFCURVE",
"194 127 CURVE SMOOTH",
"411 584 LINE"
);
},
{
closed = 1;
nodes = (
"639 326 LINE",
"659 326 OFFCURVE",
"719 320 OFFCURVE",
"719 320 CURVE",
"728 257 LINE",
"776 263 LINE",
"776 263 OFFCURVE",
"773 322 OFFCURVE",
"773 372 CURVE SMOOTH",
"773 392 OFFCURVE",
"774 452 OFFCURVE",
"774 452 CURVE",
"728 457 LINE",
"719 391 LINE",
"719 391 OFFCURVE",
"679 382 OFFCURVE",
"659 382 CURVE",
"526 382 LINE",
"533 326 LINE"
);
},
{
closed = 1;
nodes = (
"464 285 LINE",
"259 285 LINE",
"241 232 LINE",
"471 232 LINE"
);
}
);
};
layerId = UUID0;
paths = (
{
closed = 1;
nodes = (
"481 130 LINE SMOOTH",
"484 110 OFFCURVE",
"486 90 OFFCURVE",
"486 64 CURVE",
"413 44 LINE",
"417 -5 LINE",
"417 -5 OFFCURVE",
"529 0 OFFCURVE",
"560 0 CURVE",
"745 0 LINE SMOOTH",
"765 0 OFFCURVE",
"859 -4 OFFCURVE",
"859 -4 CURVE",
"878 14 LINE",
"893 165 LINE",
"838 170 LINE",
"836 154 OFFCURVE",
"827 118 OFFCURVE",
"823 103 CURVE SMOOTH",
"821 96 OFFCURVE",
"812 80 OFFCURVE",
"802 66 CURVE",
"780 62 OFFCURVE",
"745 57 OFFCURVE",
"715 57 CURVE SMOOTH",
"593 57 LINE",
"568 167 LINE SMOOTH",
"511 541 LINE SMOOTH",
"505 578 OFFCURVE",
"502 627 OFFCURVE",
"500 649 CURVE",
"681 649 LINE SMOOTH",
"709 649 OFFCURVE",
"740 646 OFFCURVE",
"762 644 CURVE",
"772 631 OFFCURVE",
"781 617 OFFCURVE",
"782 610 CURVE",
"786 595 OFFCURVE",
"791 572 OFFCURVE",
"793 556 CURVE",
"851 561 LINE",
"844 697 LINE",
"825 715 LINE",
"825 715 OFFCURVE",
"731 705 OFFCURVE",
"711 705 CURVE SMOOTH",
"400 705 LINE",
"140 160 LINE SMOOTH",
"133 145 OFFCURVE",
"102 93 OFFCURVE",
"79 61 CURVE",
"16 44 LINE",
"20 -5 LINE",
"20 -5 OFFCURVE",
"130 0 OFFCURVE",
"155 0 CURVE",
"241 0 LINE",
"246 54 LINE",
"176 64 LINE",
"180 80 OFFCURVE",
"190 119 OFFCURVE",
"194 127 CURVE SMOOTH",
"411 584 LINE"
);
},
{
closed = 1;
nodes = (
"464 285 LINE",
"259 285 LINE",
"241 232 LINE",
"471 232 LINE"
);
},
{
closed = 1;
nodes = (
"533 326 LINE",
"639 326 LINE SMOOTH",
"659 326 OFFCURVE",
"710 321 OFFCURVE",
"719 320 CURVE",
"728 253 LINE",
"776 259 LINE",
"776 259 OFFCURVE",
"773 318 OFFCURVE",
"773 368 CURVE SMOOTH",
"773 388 OFFCURVE",
"774 452 OFFCURVE",
"774 452 CURVE",
"728 457 LINE",
"719 388 LINE",
"714 387 OFFCURVE",
"679 382 OFFCURVE",
"659 382 CURVE SMOOTH",
"533 382 LINE"
);
}
);
width = 937;
},
{
anchors = (
{
name = top;
position = "{634, 720}";
}
);
background = {
paths = (
{
closed = 1;
nodes = (
"229 179 LINE",
"255 263 LINE",
"456 263 LINE",
"480 179 LINE"
);
},
{
closed = 1;
nodes = (
"425 705 LINE",
"745 705 LINE SMOOTH",
"765 705 OFFCURVE",
"859 715 OFFCURVE",
"859 715 CURVE",
"878 697 LINE",
"885 542 LINE",
"813 537 LINE",
"811 553 OFFCURVE",
"808 575 OFFCURVE",
"804 590 CURVE",
"803 594 OFFCURVE",
"799 608 OFFCURVE",
"795 618 CURVE",
"775 620 OFFCURVE",
"745 623 OFFCURVE",
"715 623 CURVE SMOOTH",
"548 623 LINE",
"549 605 OFFCURVE",
"552 558 OFFCURVE",
"554 542 CURVE",
"608 193 LINE",
"628 87 LINE",
"729 87 LINE SMOOTH",
"758 87 OFFCURVE",
"786 91 OFFCURVE",
"806 95 CURVE",
"815 114 OFFCURVE",
"824 132 OFFCURVE",
"825 138 CURVE SMOOTH",
"829 153 OFFCURVE",
"835 179 OFFCURVE",
"837 195 CURVE",
"907 190 LINE",
"892 14 LINE",
"873 -4 LINE",
"873 -4 OFFCURVE",
"779 0 OFFCURVE",
"759 0 CURVE",
"622 0 LINE",
"572 0 OFFCURVE",
"418 -5 OFFCURVE",
"418 -5 CURVE",
"413 65 LINE",
"472 76 LINE",
"471 93 OFFCURVE",
"470 111 OFFCURVE",
"467 129 CURVE SMOOTH",
"412 487 LINE"
);
},
{
closed = 1;
nodes = (
"422 487 LINE",
"214 115 LINE SMOOTH",
"208 105 OFFCURVE",
"202 85 OFFCURVE",
"199 77 CURVE",
"265 71 LINE",
"260 0 LINE",
"156 0 LINE",
"126 0 OFFCURVE",
"21 -5 OFFCURVE",
"21 -5 CURVE",
"16 65 LINE",
"55 73 LINE",
"65 86 OFFCURVE",
"104 141 OFFCURVE",
"116 161 CURVE SMOOTH",
"425 705 LINE"
);
},
{
closed = 1;
nodes = (
"490 398 LINE",
"682 398 LINE SMOOTH",
"692 398 OFFCURVE",
"718 402 OFFCURVE",
"726 404 CURVE",
"735 471 LINE",
"797 466 LINE",
"797 466 OFFCURVE",
"796 403 OFFCURVE",
"796 383 CURVE SMOOTH",
"796 333 OFFCURVE",
"799 256 OFFCURVE",
"799 256 CURVE",
"735 250 LINE",
"726 312 LINE",
"716 313 OFFCURVE",
"682 316 OFFCURVE",
"662 316 CURVE SMOOTH",
"490 316 LINE"
);
}
);
};
layerId = "16643525-C5DD-48EC-8E99-463BF28F5E85";
paths = (
{
closed = 1;
nodes = (
"229 179 LINE",
"255 263 LINE",
"456 263 LINE",
"480 179 LINE"
);
},
{
closed = 1;
nodes = (
"425 705 LINE",
"745 705 LINE SMOOTH",
"765 705 OFFCURVE",
"859 715 OFFCURVE",
"859 715 CURVE",
"878 697 LINE",
"885 542 LINE",
"813 537 LINE",
"811 553 OFFCURVE",
"808 575 OFFCURVE",
"804 590 CURVE",
"803 594 OFFCURVE",
"799 608 OFFCURVE",
"795 618 CURVE",
"775 620 OFFCURVE",
"745 623 OFFCURVE",
"715 623 CURVE SMOOTH",
"548 623 LINE",
"549 605 OFFCURVE",
"552 558 OFFCURVE",
"554 542 CURVE",
"608 193 LINE",
"628 87 LINE",
"729 87 LINE SMOOTH",
"758 87 OFFCURVE",
"786 91 OFFCURVE",
"806 95 CURVE",
"815 114 OFFCURVE",
"824 132 OFFCURVE",
"825 138 CURVE SMOOTH",
"829 153 OFFCURVE",
"835 179 OFFCURVE",
"837 195 CURVE",
"907 190 LINE",
"892 14 LINE",
"873 -4 LINE",
"873 -4 OFFCURVE",
"779 0 OFFCURVE",
"759 0 CURVE",
"622 0 LINE",
"572 0 OFFCURVE",
"418 -5 OFFCURVE",
"418 -5 CURVE",
"413 65 LINE",
"472 76 LINE",
"471 93 OFFCURVE",
"470 111 OFFCURVE",
"467 129 CURVE SMOOTH",
"412 487 LINE"
);
},
{
closed = 1;
nodes = (
"422 487 LINE",
"214 115 LINE SMOOTH",
"208 105 OFFCURVE",
"202 85 OFFCURVE",
"199 77 CURVE",
"265 71 LINE",
"260 0 LINE",
"156 0 LINE",
"126 0 OFFCURVE",
"21 -5 OFFCURVE",
"21 -5 CURVE",
"16 65 LINE",
"55 73 LINE",
"65 86 OFFCURVE",
"104 141 OFFCURVE",
"116 161 CURVE SMOOTH",
"425 705 LINE"
);
},
{
closed = 1;
nodes = (
"490 398 LINE",
"682 398 LINE SMOOTH",
"692 398 OFFCURVE",
"713 400 OFFCURVE",
"726 402 CURVE",
"735 471 LINE",
"797 466 LINE",
"797 466 OFFCURVE",
"796 403 OFFCURVE",
"796 383 CURVE SMOOTH",
"796 333 OFFCURVE",
"799 256 OFFCURVE",
"799 256 CURVE",
"735 250 LINE",
"726 312 LINE",
"716 313 OFFCURVE",
"682 316 OFFCURVE",
"662 316 CURVE SMOOTH",
"490 316 LINE"
);
}
);
width = 951;
},
{
anchors = (
{
name = top;
position = "{581, 720}";
}
);
background = {
paths = (
{
closed = 1;
nodes = (
"442 678 LINE",
"124 167 LINE SMOOTH",
"106 139 OFFCURVE",
"63 75 OFFCURVE",
"50 61 CURVE",
"-13 44 LINE",
"-16 -5 LINE",
"-16 -5 OFFCURVE",
"90 0 OFFCURVE",
"115 0 CURVE SMOOTH",
"145 0 OFFCURVE",
"200 0 OFFCURVE",
"200 0 CURVE",
"212 54 LINE",
"146 64 LINE",
"149 78 OFFCURVE",
"170 122 OFFCURVE",
"179 137 CURVE SMOOTH",
"495 646 LINE"
);
},
{
closed = 1;
nodes = (
"470 286 LINE",
"253 282 LINE SMOOTH",
"253 282 OFFCURVE",
"231 232 OFFCURVE",
"231 232 CURVE",
"474 232 LINE"
);
},
{
closed = 1;
nodes = (
"722 649 LINE SMOOTH",
"749 649 OFFCURVE",
"779 646 OFFCURVE",
"800 644 CURVE",
"808 631 OFFCURVE",
"813 617 OFFCURVE",
"814 610 CURVE SMOOTH",
"816 595 OFFCURVE",
"817 572 OFFCURVE",
"817 556 CURVE",
"874 561 LINE",
"887 692 LINE",
"871 710 LINE",
"871 710 OFFCURVE",
"779 705 OFFCURVE",
"759 705 CURVE SMOOTH",
"444 705 LINE",
"439 649 LINE"
);
},
{
closed = 1;
nodes = (
"526 338 LINE",
"637 338 LINE SMOOTH",
"656 338 OFFCURVE",
"713 332 OFFCURVE",
"713 332 CURVE",
"710 265 LINE",
"758 271 LINE",
"758 271 OFFCURVE",
"765 330 OFFCURVE",
"773 380 CURVE SMOOTH",
"776 400 OFFCURVE",
"788 464 OFFCURVE",
"788 464 CURVE",
"743 469 LINE",
"723 403 LINE",
"723 403 OFFCURVE",
"684 394 OFFCURVE",
"664 394 CURVE SMOOTH",
"536 394 LINE"
);
},
{
closed = 1;
nodes = (
"478 0 LINE",
"689 0 LINE SMOOTH",
"709 0 OFFCURVE",
"799 -4 OFFCURVE",
"799 -4 CURVE",
"820 14 LINE",
"857 165 LINE",
"804 170 LINE",
"799 154 OFFCURVE",
"786 118 OFFCURVE",
"779 103 CURVE SMOOTH",
"775 94 OFFCURVE",
"765 80 OFFCURVE",
"754 66 CURVE",
"732 62 OFFCURVE",
"698 57 OFFCURVE",
"668 57 CURVE SMOOTH",
"530 57 LINE"
);
},
{
closed = 1;
nodes = (
"473 705 LINE",
"453 705 OFFCURVE",
"358 710 OFFCURVE",
"358 710 CURVE",
"345 656 LINE",
"425 643 LINE"
);
},
{
closed = 1;
nodes = (
"550 57 LINE",
"548 72 OFFCURVE",
"543 147 OFFCURVE",
"543 167 CURVE SMOOTH",
"541 538 LINE SMOOTH",
"541 567 OFFCURVE",
"546 631 OFFCURVE",
"547 650 CURVE",
"451 650 LINE",
"452 137 LINE SMOOTH",
"452 122 OFFCURVE",
"451 85 OFFCURVE",
"447 61 CURVE",
"368 45 LINE",
"366 -5 LINE",
"366 -5 OFFCURVE",
"482 0 OFFCURVE",
"501 0 CURVE"
);
}
);
};
layerId = "08C09966-8326-41C9-AE3D-74AAC6FC1D13";
paths = (
{
closed = 1;
nodes = (
"442 678 LINE",
"124 167 LINE SMOOTH",
"106 139 OFFCURVE",
"63 75 OFFCURVE",
"50 61 CURVE",
"-13 44 LINE",
"-16 -5 LINE",
"-16 -5 OFFCURVE",
"90 0 OFFCURVE",
"115 0 CURVE SMOOTH",
"145 0 OFFCURVE",
"200 0 OFFCURVE",
"200 0 CURVE",
"212 54 LINE",
"146 64 LINE",
"149 78 OFFCURVE",
"170 122 OFFCURVE",
"179 137 CURVE SMOOTH",
"495 646 LINE"
);
},
{
closed = 1;
nodes = (
"470 286 LINE",
"253 282 LINE SMOOTH",
"253 282 OFFCURVE",
"231 232 OFFCURVE",
"231 232 CURVE",
"474 232 LINE"
);
},
{
closed = 1;
nodes = (
"722 649 LINE SMOOTH",
"749 649 OFFCURVE",
"779 646 OFFCURVE",
"800 644 CURVE",
"808 631 OFFCURVE",
"813 617 OFFCURVE",
"814 610 CURVE SMOOTH",
"816 595 OFFCURVE",
"817 572 OFFCURVE",
"817 556 CURVE",
"874 561 LINE",
"887 692 LINE",
"871 710 LINE",
"871 710 OFFCURVE",
"779 705 OFFCURVE",
"759 705 CURVE SMOOTH",
"444 705 LINE",
"439 649 LINE"
);
},
{
closed = 1;
nodes = (
"478 0 LINE",
"689 0 LINE SMOOTH",
"709 0 OFFCURVE",
"799 -4 OFFCURVE",
"799 -4 CURVE",
"820 14 LINE",
"857 165 LINE",
"804 170 LINE",
"799 154 OFFCURVE",
"786 118 OFFCURVE",
"779 103 CURVE SMOOTH",
"775 94 OFFCURVE",
"765 80 OFFCURVE",
"754 66 CURVE",
"732 62 OFFCURVE",
"698 57 OFFCURVE",
"668 57 CURVE SMOOTH",
"530 57 LINE"
);
},
{
closed = 1;
nodes = (
"473 705 LINE",
"453 705 OFFCURVE",
"358 710 OFFCURVE",
"358 710 CURVE",
"345 656 LINE",
"425 643 LINE"
);
},
{
closed = 1;
nodes = (
"550 57 LINE",
"548 72 OFFCURVE",
"543 147 OFFCURVE",
"543 167 CURVE SMOOTH",
"541 538 LINE SMOOTH",
"541 567 OFFCURVE",
"546 631 OFFCURVE",
"547 650 CURVE",
"451 650 LINE",
"452 137 LINE SMOOTH",
"452 122 OFFCURVE",
"451 85 OFFCURVE",
"447 61 CURVE",
"368 45 LINE",
"366 -5 LINE",
"366 -5 OFFCURVE",
"482 0 OFFCURVE",
"501 0 CURVE"
);
},
{
closed = 1;
nodes = (
"506 338 LINE",
"637 338 LINE SMOOTH",
"657 338 OFFCURVE",
"702 333 OFFCURVE",
"713 332 CURVE",
"710 265 LINE",
"758 271 LINE",
"758 271 OFFCURVE",
"765 330 OFFCURVE",
"773 380 CURVE SMOOTH",
"776 400 OFFCURVE",
"788 464 OFFCURVE",
"788 464 CURVE",
"743 469 LINE",
"722 400 LINE",
"708 398 OFFCURVE",
"674 394 OFFCURVE",
"664 394 CURVE SMOOTH",
"516 394 LINE"
);
}
);
width = 914;
},
{
anchors = (
{
name = top;
position = "{642, 720}";
}
);
background = {
paths = (
{
closed = 1;
nodes = (
"454 263 LINE",
"293 263 LINE",
"237 179 LINE",
"448 179 LINE"
);
},
{
closed = 1;
nodes = (
"752 623 LINE SMOOTH",
"782 623 OFFCURVE",
"809 621 OFFCURVE",
"828 619 CURVE",
"832 611 OFFCURVE",
"833 599 OFFCURVE",
"834 595 CURVE",
"835 580 OFFCURVE",
"834 552 OFFCURVE",
"834 536 CURVE",
"905 541 LINE",
"921 692 LINE",
"905 710 LINE",
"905 710 OFFCURVE",
"813 705 OFFCURVE",
"793 705 CURVE SMOOTH",
"477 705 LINE",
"471 623 LINE"
);
},
{
closed = 1;
nodes = (
"568 0 LINE",
"708 0 LINE SMOOTH",
"728 0 OFFCURVE",
"818 -4 OFFCURVE",
"818 -4 CURVE",
"839 14 LINE",
"879 190 LINE",
"811 195 LINE",
"807 179 OFFCURVE",
"798 153 OFFCURVE",
"792 138 CURVE SMOOTH",
"787 128 OFFCURVE",
"779 113 OFFCURVE",
"767 95 CURVE",
"747 91 OFFCURVE",
"720 87 OFFCURVE",
"692 87 CURVE SMOOTH",
"554 87 LINE"
);
},
{
closed = 1;
nodes = (
"477 626 LINE",
"522 76 LINE",
"606 77 LINE",
"604 91 OFFCURVE",
"596 143 OFFCURVE",
"594 193 CURVE SMOOTH",
"584 542 LINE SMOOTH",
"583 562 OFFCURVE",
"588 611 OFFCURVE",
"589 626 CURVE"
);
},
{
closed = 1;
nodes = (
"503 705 LINE",
"473 705 OFFCURVE",
"383 710 OFFCURVE",
"383 710 CURVE",
"367 635 LINE",
"428 623 LINE"
);
},
{
closed = 1;
nodes = (
"192 90 OFFCURVE",
"197 102 OFFCURVE",
"206 115 CURVE SMOOTH",
"512 584 LINE",
"474 705 LINE",
"106 161 LINE SMOOTH",
"85 131 OFFCURVE",
"58 102 OFFCURVE",
"32 73 CURVE",
"-12 65 LINE",
"-7 -5 LINE",
"-7 -5 OFFCURVE",
"103 0 OFFCURVE",
"133 0 CURVE",
"238 0 LINE",
"243 71 LINE",
"187 77 LINE"
);
},
{
closed = 1;
nodes = (
"369 65 LINE",
"374 -5 LINE",
"374 -5 OFFCURVE",
"528 0 OFFCURVE",
"578 0 CURVE",
"548 586 LINE",
"440 582 LINE",
"440 129 LINE SMOOTH",
"440 112 OFFCURVE",
"433 94 OFFCURVE",
"428 76 CURVE"
);
},
{
closed = 1;
nodes = (
"658 316 LINE SMOOTH",
"678 316 OFFCURVE",
"703 314 OFFCURVE",
"718 312 CURVE",
"718 250 LINE",
"782 256 LINE",
"782 256 OFFCURVE",
"790 333 OFFCURVE",
"798 383 CURVE SMOOTH",
"800 403 OFFCURVE",
"811 466 OFFCURVE",
"811 466 CURVE",
"750 471 LINE",
"731 404 LINE",
"721 402 OFFCURVE",
"699 398 OFFCURVE",
"689 398 CURVE SMOOTH",
"574 398 LINE",
"563 316 LINE"
);
}
);
};
layerId = "B953D09C-6DD0-450A-A78C-8C2188DD4016";
paths = (
{
closed = 1;
nodes = (
"454 263 LINE",
"293 263 LINE",
"237 179 LINE",
"448 179 LINE"
);
},
{
closed = 1;
nodes = (
"752 623 LINE SMOOTH",
"782 623 OFFCURVE",
"809 621 OFFCURVE",
"828 619 CURVE",
"832 611 OFFCURVE",
"833 599 OFFCURVE",
"834 595 CURVE",
"835 580 OFFCURVE",
"834 552 OFFCURVE",
"834 536 CURVE",
"905 541 LINE",
"921 692 LINE",
"905 710 LINE",
"905 710 OFFCURVE",
"813 705 OFFCURVE",
"793 705 CURVE SMOOTH",
"477 705 LINE",
"471 623 LINE"
);
},
{
closed = 1;
nodes = (
"568 0 LINE",
"708 0 LINE SMOOTH",
"728 0 OFFCURVE",
"818 -4 OFFCURVE",
"818 -4 CURVE",
"839 14 LINE",
"879 190 LINE",
"811 195 LINE",
"807 179 OFFCURVE",
"798 153 OFFCURVE",
"792 138 CURVE SMOOTH",
"787 128 OFFCURVE",
"779 113 OFFCURVE",
"767 95 CURVE",
"747 91 OFFCURVE",
"720 87 OFFCURVE",
"692 87 CURVE SMOOTH",
"554 87 LINE"
);
},
{
closed = 1;
nodes = (
"477 626 LINE",
"522 76 LINE",
"606 77 LINE",
"604 91 OFFCURVE",
"596 143 OFFCURVE",
"594 193 CURVE SMOOTH",
"584 542 LINE SMOOTH",
"583 562 OFFCURVE",
"588 611 OFFCURVE",
"589 626 CURVE"
);
},
{
closed = 1;
nodes = (
"503 705 LINE",
"473 705 OFFCURVE",
"383 710 OFFCURVE",
"383 710 CURVE",
"367 635 LINE",
"428 623 LINE"
);
},
{
closed = 1;
nodes = (
"192 90 OFFCURVE",
"197 102 OFFCURVE",
"206 115 CURVE SMOOTH",
"512 584 LINE",
"474 705 LINE",
"106 161 LINE SMOOTH",
"85 131 OFFCURVE",
"58 102 OFFCURVE",
"32 73 CURVE",
"-12 65 LINE",
"-7 -5 LINE",
"-7 -5 OFFCURVE",
"103 0 OFFCURVE",
"133 0 CURVE",
"238 0 LINE",
"243 71 LINE",
"187 77 LINE"
);
},
{
closed = 1;
nodes = (
"369 65 LINE",
"374 -5 LINE",
"374 -5 OFFCURVE",
"528 0 OFFCURVE",
"578 0 CURVE",
"548 586 LINE",
"440 582 LINE",
"440 129 LINE SMOOTH",
"440 112 OFFCURVE",
"433 94 OFFCURVE",
"428 76 CURVE"
);
},
{
closed = 1;
nodes = (
"658 316 LINE SMOOTH",
"678 316 OFFCURVE",
"703 312 OFFCURVE",
"718 310 CURVE",
"718 250 LINE",
"782 256 LINE",
"782 256 OFFCURVE",
"790 333 OFFCURVE",
"798 383 CURVE SMOOTH",
"801 403 OFFCURVE",
"811 466 OFFCURVE",
"811 466 CURVE",
"750 471 LINE",
"731 404 LINE",
"721 402 OFFCURVE",
"699 398 OFFCURVE",
"689 398 CURVE SMOOTH",
"574 398 LINE",
"563 316 LINE"
);
}
);
width = 929;
}
);
leftKerningGroup = AE;
rightKerningGroup = E;
unicode = 00C6;
},
{
color = 1;
glyphname = Aogonek;
lastChange = "2018-05-29 09:19:37 +0000";
layers = (
{
components = (
{
name = A;
},
{
name = ogonekcomb;
transform = "{1, 0, 0, 1, 434, 0}";
}
);
layerId = UUID0;
width = 683;
},
{
components = (
{
name = A;
},
{
name = ogonekcomb;
transform = "{1, 0, 0, 1, 420, 0}";
}
);
layerId = "16643525-C5DD-48EC-8E99-463BF28F5E85";
width = 699;
},
{
background = {
paths = (
{
closed = 1;
nodes = (
"609 54 LINE",
"550 64 LINE",
"525 149 LINE",
"407 715 LINE",
"350 705 LINE",
"97 160 LINE",
"41 61 LINE",
"-23 44 LINE",
"-26 -5 LINE",
"-26 -5 OFFCURVE",
"70 0 OFFCURVE",
"106 0 CURVE SMOOTH",
"189 0 LINE",
"202 54 LINE",
"135 64 LINE",
"155 127 LINE",
"201 232 LINE",
"414 232 LINE",
"425 172 LINE",
"427 153 OFFCURVE",
"429 132 OFFCURVE",
"429 117 CURVE SMOOTH",
"429 71 OFFCURVE",
"413 40 OFFCURVE",
"379 13 CURVE SMOOTH",
"304 -47 OFFCURVE",
"280 -70 OFFCURVE",
"280 -122 CURVE SMOOTH",
"280 -172 OFFCURVE",
"315 -197 OFFCURVE",
"368 -197 CURVE SMOOTH",
"403 -197 OFFCURVE",
"436 -183 OFFCURVE",
"454 -175 CURVE",
"445 -142 LINE",
"423 -151 OFFCURVE",
"405 -155 OFFCURVE",
"390 -155 CURVE SMOOTH",
"358 -155 OFFCURVE",
"343 -135 OFFCURVE",
"343 -110 CURVE SMOOTH",
"343 -67 OFFCURVE",
"388 -9 OFFCURVE",
"456 0 CURVE",
"596 0 LINE"
);
},
{
closed = 1;
nodes = (
"350 557 LINE",
"403 286 LINE",
"225 282 LINE"
);
}
);
};
components = (
{
name = A;
},
{
name = ogonekcomb;
transform = "{1, 0, 0, 1, 415, 1}";
}
);
layerId = "08C09966-8326-41C9-AE3D-74AAC6FC1D13";
width = 663;
},
{
background = {
paths = (
{
closed = 1;
nodes = (
"619 65 LINE",
"567 74 LINE",
"552 128 LINE",
"443 716 LINE",
"334 705 LINE",
"70 161 LINE",
"18 75 LINE",
"-27 68 LINE",
"-33 -5 LINE",
"-33 -5 OFFCURVE",
"20 0 OFFCURVE",
"103 0 CURVE SMOOTH",
"148 0 OFFCURVE",
"204 -5 OFFCURVE",
"204 -5 CURVE",
"219 65 LINE",
"165 77 LINE",
"177 115 LINE",
"202 179 LINE",
"386 179 LINE",
"392 129 LINE",
"392 128 OFFCURVE",
"392 121 OFFCURVE",
"392 120 CURVE SMOOTH",
"392 -1 OFFCURVE",
"247 -23 OFFCURVE",
"247 -121 CURVE SMOOTH",
"247 -172 OFFCURVE",
"284 -197 OFFCURVE",
"340 -197 CURVE SMOOTH",
"380 -197 OFFCURVE",
"417 -183 OFFCURVE",
"437 -174 CURVE",
"426 -126 LINE",
"412 -131 OFFCURVE",
"402 -133 OFFCURVE",
"392 -133 CURVE SMOOTH",
"366 -133 OFFCURVE",
"354 -115 OFFCURVE",
"354 -93 CURVE SMOOTH",
"354 -56 OFFCURVE",
"387 -9 OFFCURVE",
"440 0 CURVE",
"524 0 LINE SMOOTH",
"558 0 OFFCURVE",
"604 -5 OFFCURVE",
"604 -5 CURVE"
);
},
{
closed = 1;
nodes = (
"345 498 LINE",
"372 263 LINE",
"241 261 LINE"
);
}
);
};
components = (
{
name = A;
},
{
name = ogonekcomb;
transform = "{1, 0, 0, 1, 401, 0}";
}
);
layerId = "B953D09C-6DD0-450A-A78C-8C2188DD4016";
width = 676;
}
);
unicode = 0104;
},
{
color = 0;
glyphname = B;
lastChange = "2018-05-29 07:25:28 +0000";
layers = (
{
background = {
paths = (
{
closed = 1;
nodes = (
"296 710 LINE",
"296 710 OFFCURVE",
"218 705 OFFCURVE",
"158 705 CURVE SMOOTH",
"138 705 OFFCURVE",
"43 710 OFFCURVE",
"43 710 CURVE",
"38 656 LINE",
"115 644 LINE",
"117 631 OFFCURVE",
"124 585 OFFCURVE",
"124 568 CURVE SMOOTH",
"124 137 LINE SMOOTH",
"124 120 OFFCURVE",
"117 74 OFFCURVE",
"115 61 CURVE",
"36 45 LINE",
"41 -5 LINE",
"41 -5 OFFCURVE",
"151 0 OFFCURVE",
"176 0 CURVE",
"305 0 LINE",
"312 54 LINE",
"222 61 LINE",
"220 75 OFFCURVE",
"215 125 OFFCURVE",
"215 167 CURVE SMOOTH",
"215 538 LINE SMOOTH",
"215 580 OFFCURVE",
"220 630 OFFCURVE",
"222 644 CURVE",
"300 651 LINE"
);
}
);
};
layerId = UUID0;
paths = (
{
closed = 1;
nodes = (
"43 710 CURVE",
"38 656 LINE",
"115 644 LINE",
"117 631 OFFCURVE",
"124 585 OFFCURVE",
"124 568 CURVE SMOOTH",
"124 137 LINE SMOOTH",
"124 120 OFFCURVE",
"117 74 OFFCURVE",
"115 61 CURVE",
"36 45 LINE",
"41 -5 LINE",
"41 -5 OFFCURVE",
"151 0 OFFCURVE",
"176 0 CURVE",
"226 0 OFFCURVE",
"293 -4 OFFCURVE",
"343 -4 CURVE SMOOTH",
"457 -4 OFFCURVE",
"547 69 OFFCURVE",
"547 183 CURVE SMOOTH",
"547 287 OFFCURVE",
"476 348 OFFCURVE",
"377 363 CURVE",
"377 370 LINE",
"458 390 OFFCURVE",
"516 455 OFFCURVE",
"516 543 CURVE SMOOTH",
"516 648 OFFCURVE",
"429 710 OFFCURVE",
"326 710 CURVE SMOOTH",
"276 710 OFFCURVE",
"208 705 OFFCURVE",
"158 705 CURVE SMOOTH",
"138 705 OFFCURVE",
"63 709 OFFCURVE"
);
},
{
closed = 1;
nodes = (
"247 656 OFFCURVE",
"276 656 OFFCURVE",
"305 656 CURVE SMOOTH",
"375 656 OFFCURVE",
"423 606 OFFCURVE",
"423 531 CURVE SMOOTH",
"423 442 OFFCURVE",
"361 394 OFFCURVE",
"281 394 CURVE SMOOTH",
"274 394 LINE",
"267 337 LINE",
"278 337 LINE SMOOTH",
"367 337 OFFCURVE",
"446 292 OFFCURVE",
"446 191 CURVE SMOOTH",
"446 102 OFFCURVE",
"391 54 OFFCURVE",
"312 54 CURVE SMOOTH",
"279 54 OFFCURVE",
"246 57 OFFCURVE",
"221 59 CURVE",
"219 71 OFFCURVE",
"215 123 OFFCURVE",
"215 167 CURVE SMOOTH",
"215 538 LINE SMOOTH",
"215 582 OFFCURVE",
"220 642 OFFCURVE",
"222 655 CURVE"
);
}
);
width = 601;
},
{
background = {
paths = (
{
closed = 1;
nodes = (
"258 628 OFFCURVE",
"316 628 CURVE SMOOTH",
"386 628 OFFCURVE",
"421 586 OFFCURVE",
"421 521 CURVE SMOOTH",
"421 451 OFFCURVE",
"385 407 OFFCURVE",
"315 407 CURVE SMOOTH",
"309 407 LINE",
"302 320 LINE",
"312 320 LINE SMOOTH",
"387 320 OFFCURVE",
"444 292 OFFCURVE",
"444 203 CURVE SMOOTH",
"444 124 OFFCURVE",
"395 77 OFFCURVE",
"323 77 CURVE SMOOTH",
"304 77 OFFCURVE",
"285 78 OFFCURVE",
"267 80 CURVE",
"189 0 LINE",
"239 0 OFFCURVE",
"308 -5 OFFCURVE",
"358 -5 CURVE SMOOTH",
"487 -5 OFFCURVE",
"597 56 OFFCURVE",
"597 189 CURVE SMOOTH",
"597 293 OFFCURVE",
"525 349 OFFCURVE",
"427 364 CURVE",
"427 371 LINE",
"508 391 OFFCURVE",
"566 455 OFFCURVE",
"566 543 CURVE SMOOTH",
"566 648 OFFCURVE",
"461 710 OFFCURVE",
"341 710 CURVE SMOOTH",
"291 710 OFFCURVE",
"210 705 OFFCURVE",
"160 705 CURVE",
"114 614 LINE",
"192 620 OFFCURVE"
);
},
{
closed = 1;
nodes = (
"160 705 LINE",
"130 705 OFFCURVE",
"40 710 OFFCURVE",
"40 710 CURVE",
"35 635 LINE",
"100 623 LINE",
"102 607 OFFCURVE",
"109 562 OFFCURVE",
"109 512 CURVE SMOOTH",
"109 163 LINE SMOOTH",
"109 143 OFFCURVE",
"101 87 OFFCURVE",
"100 77 CURVE",
"34 65 LINE",
"39 -5 LINE",
"39 -5 OFFCURVE",
"159 0 OFFCURVE",
"189 0 CURVE",
"273 77 LINE",
"271 91 OFFCURVE",
"264 143 OFFCURVE",
"264 193 CURVE SMOOTH",
"264 542 LINE SMOOTH",
"264 562 OFFCURVE",
"268 621 OFFCURVE",
"270 646 CURVE"
);
}
);
};
layerId = "16643525-C5DD-48EC-8E99-463BF28F5E85";
paths = (
{
closed = 1;
nodes = (
"192 620 OFFCURVE",
"258 628 OFFCURVE",
"316 628 CURVE SMOOTH",
"386 628 OFFCURVE",
"421 586 OFFCURVE",
"421 521 CURVE SMOOTH",
"421 451 OFFCURVE",
"385 407 OFFCURVE",
"315 407 CURVE SMOOTH",
"309 407 LINE",
"302 320 LINE",
"312 320 LINE SMOOTH",
"387 320 OFFCURVE",
"444 292 OFFCURVE",
"444 203 CURVE SMOOTH",
"444 124 OFFCURVE",
"395 77 OFFCURVE",
"323 77 CURVE SMOOTH",
"304 77 OFFCURVE",
"285 78 OFFCURVE",
"267 80 CURVE",
"189 0 LINE",
"239 0 OFFCURVE",
"308 -5 OFFCURVE",
"358 -5 CURVE SMOOTH",
"487 -5 OFFCURVE",
"597 56 OFFCURVE",
"597 189 CURVE SMOOTH",
"597 293 OFFCURVE",
"525 349 OFFCURVE",
"427 364 CURVE",
"427 371 LINE",
"508 391 OFFCURVE",
"566 455 OFFCURVE",
"566 543 CURVE SMOOTH",
"566 648 OFFCURVE",
"461 710 OFFCURVE",
"341 710 CURVE SMOOTH",
"291 710 OFFCURVE",
"210 705 OFFCURVE",
"160 705 CURVE",
"114 614 LINE"
);
},
{
closed = 1;
nodes = (
"160 705 LINE",
"130 705 OFFCURVE",
"40 710 OFFCURVE",
"40 710 CURVE",
"35 635 LINE",
"100 623 LINE",
"102 607 OFFCURVE",
"109 562 OFFCURVE",
"109 542 CURVE SMOOTH",
"109 163 LINE SMOOTH",
"109 143 OFFCURVE",
"101 87 OFFCURVE",
"100 77 CURVE",
"34 65 LINE",
"39 -5 LINE",
"39 -5 OFFCURVE",
"159 0 OFFCURVE",
"189 0 CURVE",
"273 57 LINE",
"271 81 OFFCURVE",
"264 153 OFFCURVE",
"264 193 CURVE SMOOTH",
"264 512 LINE SMOOTH",
"264 552 OFFCURVE",
"268 618 OFFCURVE",
"271 643 CURVE"
);
}
);
width = 638;
},
{
background = {
paths = (
{
closed = 1;
nodes = (
"141 0 LINE",
"191 0 OFFCURVE",
"261 -5 OFFCURVE",
"311 -5 CURVE SMOOTH",
"436 -5 OFFCURVE",
"538 79 OFFCURVE",
"538 208 CURVE SMOOTH",
"538 296 OFFCURVE",
"479 350 OFFCURVE",
"393 363 CURVE",
"394 370 LINE",
"487 392 OFFCURVE",
"560 467 OFFCURVE",
"560 566 CURVE SMOOTH",
"560 656 OFFCURVE",
"477 710 OFFCURVE",
"383 710 CURVE SMOOTH",
"343 710 OFFCURVE",
"267 705 OFFCURVE",
"227 705 CURVE",
"193 644 LINE",
"248 649 OFFCURVE",
"316 656 OFFCURVE",
"366 656 CURVE SMOOTH",
"427 656 OFFCURVE",
"466 614 OFFCURVE",
"466 553 CURVE SMOOTH",
"466 451 OFFCURVE",
"390 394 OFFCURVE",
"301 394 CURVE SMOOTH",
"294 394 LINE",
"279 337 LINE",
"290 337 LINE SMOOTH",
"371 337 OFFCURVE",
"437 298 OFFCURVE",
"437 212 CURVE SMOOTH",
"437 111 OFFCURVE",
"370 53 OFFCURVE",
"281 53 CURVE SMOOTH",
"247 53 OFFCURVE",
"215 56 OFFCURVE",
"191 59 CURVE"
);
},
{
closed = 1;
nodes = (
"227 705 LINE",
"207 705 OFFCURVE",
"112 710 OFFCURVE",
"112 710 CURVE",
"99 656 LINE",
"172 644 LINE",
"172 631 OFFCURVE",
"172 585 OFFCURVE",
"169 568 CURVE SMOOTH",
"106 137 LINE SMOOTH",
"104 120 OFFCURVE",
"90 74 OFFCURVE",
"87 61 CURVE",
"8 45 LINE",
"6 -5 LINE",
"6 -5 OFFCURVE",
"116 0 OFFCURVE",
"141 0 CURVE",
"192 57 LINE",
"192 71 OFFCURVE",
"196 125 OFFCURVE",
"202 167 CURVE SMOOTH",
"256 538 LINE SMOOTH",
"262 580 OFFCURVE",
"280 654 OFFCURVE",
"284 668 CURVE"
);
}
);
};
layerId = "08C09966-8326-41C9-AE3D-74AAC6FC1D13";
paths = (
{
closed = 1;
nodes = (
"141 0 LINE",
"191 0 OFFCURVE",
"261 -5 OFFCURVE",
"311 -5 CURVE SMOOTH",
"436 -5 OFFCURVE",
"538 79 OFFCURVE",
"538 208 CURVE SMOOTH",
"538 296 OFFCURVE",
"479 350 OFFCURVE",
"393 363 CURVE",
"394 370 LINE",
"487 392 OFFCURVE",
"560 467 OFFCURVE",
"560 566 CURVE SMOOTH",
"560 656 OFFCURVE",
"477 710 OFFCURVE",
"383 710 CURVE SMOOTH",
"343 710 OFFCURVE",
"267 705 OFFCURVE",
"227 705 CURVE",
"193 644 LINE",
"248 649 OFFCURVE",
"316 656 OFFCURVE",
"366 656 CURVE SMOOTH",
"427 656 OFFCURVE",
"466 614 OFFCURVE",
"466 553 CURVE SMOOTH",
"466 451 OFFCURVE",
"390 394 OFFCURVE",
"301 394 CURVE SMOOTH",
"294 394 LINE",
"279 337 LINE",
"290 337 LINE SMOOTH",
"371 337 OFFCURVE",
"437 298 OFFCURVE",
"437 212 CURVE SMOOTH",
"437 111 OFFCURVE",
"370 53 OFFCURVE",
"281 53 CURVE SMOOTH",
"247 53 OFFCURVE",
"215 56 OFFCURVE",
"191 59 CURVE"
);
},
{
closed = 1;
nodes = (
"227 705 LINE",
"207 705 OFFCURVE",
"112 710 OFFCURVE",
"112 710 CURVE",
"99 656 LINE",
"172 644 LINE",
"172 631 OFFCURVE",
"171 583 OFFCURVE",
"169 568 CURVE SMOOTH",
"106 137 LINE SMOOTH",
"104 122 OFFCURVE",
"90 74 OFFCURVE",
"87 61 CURVE",
"8 45 LINE",
"6 -5 LINE",
"6 -5 OFFCURVE",
"116 0 OFFCURVE",
"141 0 CURVE",
"192 57 LINE",
"192 71 OFFCURVE",
"198 137 OFFCURVE",
"202 167 CURVE SMOOTH",
"256 538 LINE SMOOTH",
"260 568 OFFCURVE",
"280 654 OFFCURVE",
"284 668 CURVE"
);
}
);
width = 601;
},
{
background = {
paths = (
{
closed = 1;
nodes = (
"364 715 OFFCURVE",
"247 705 OFFCURVE",
"205 705 CURVE",
"158 705 OFFCURVE",
"113 710 OFFCURVE",
"113 710 CURVE",
"97 635 LINE",
"154 623 LINE",
"156 600 OFFCURVE",
"153 552 OFFCURVE",
"147 512 CURVE SMOOTH",
"93 163 LINE SMOOTH",
"91 143 OFFCURVE",
"77 91 OFFCURVE",
"72 77 CURVE",
"10 65 LINE",
"5 -5 LINE",
"5 -5 OFFCURVE",
"50 0 OFFCURVE",
"98 0 CURVE",
"156 0 OFFCURVE",
"258 -5 OFFCURVE",
"318 -5 CURVE SMOOTH",
"459 -5 OFFCURVE",
"588 65 OFFCURVE",
"588 214 CURVE SMOOTH",
"588 301 OFFCURVE",
"528 351 OFFCURVE",
"442 364 CURVE",
"443 371 LINE",
"537 393 OFFCURVE",
"610 467 OFFCURVE",
"610 563 CURVE SMOOTH",
"610 660 OFFCURVE",
"519 715 OFFCURVE",
"408 715 CURVE SMOOTH"
);
},
{
closed = 1;
nodes = (
"338 631 OFFCURVE",
"355 633 OFFCURVE",
"372 633 CURVE SMOOTH",
"427 633 OFFCURVE",
"462 594 OFFCURVE",
"462 545 CURVE SMOOTH",
"462 457 OFFCURVE",
"409 407 OFFCURVE",
"340 407 CURVE SMOOTH",
"334 407 LINE",
"315 320 LINE",
"324 320 LINE SMOOTH",
"383 320 OFFCURVE",
"436 296 OFFCURVE",
"436 222 CURVE SMOOTH",
"436 134 OFFCURVE",
"376 77 OFFCURVE",
"294 77 CURVE SMOOTH",
"276 77 OFFCURVE",
"257 78 OFFCURVE",
"239 80 CURVE",
"240 94 OFFCURVE",
"246 149 OFFCURVE",
"253 193 CURVE SMOOTH",
"306 542 LINE SMOOTH",
"309 561 OFFCURVE",
"320 621 OFFCURVE",
"322 629 CURVE"
);
}
);
};
layerId = "B953D09C-6DD0-450A-A78C-8C2188DD4016";
paths = (
{
closed = 1;
nodes = (
"192 0 OFFCURVE",
"278 -5 OFFCURVE",
"318 -5 CURVE SMOOTH",
"459 -5 OFFCURVE",
"588 65 OFFCURVE",
"588 214 CURVE SMOOTH",
"588 301 OFFCURVE",
"528 351 OFFCURVE",
"442 364 CURVE",
"443 371 LINE",
"537 393 OFFCURVE",
"610 467 OFFCURVE",
"610 561 CURVE SMOOTH",
"610 657 OFFCURVE",
"519 710 OFFCURVE",
"408 710 CURVE SMOOTH",
"364 710 OFFCURVE",
"269 705 OFFCURVE",
"227 705 CURVE",
"312 625 LINE",
"328 626 OFFCURVE",
"355 628 OFFCURVE",
"372 628 CURVE SMOOTH",
"427 628 OFFCURVE",
"462 591 OFFCURVE",
"462 543 CURVE SMOOTH",
"462 457 OFFCURVE",
"409 407 OFFCURVE",
"340 407 CURVE SMOOTH",
"334 407 LINE",
"315 320 LINE",
"324 320 LINE SMOOTH",
"383 320 OFFCURVE",
"436 296 OFFCURVE",
"436 222 CURVE SMOOTH",
"436 134 OFFCURVE",
"376 77 OFFCURVE",
"294 77 CURVE SMOOTH",
"276 77 OFFCURVE",
"247 79 OFFCURVE",
"229 80 CURVE",
"152 0 LINE"
);
},
{
closed = 1;
nodes = (
"227 705 LINE",
"197 705 OFFCURVE",
"107 710 OFFCURVE",
"107 710 CURVE",
"91 635 LINE",
"152 623 LINE",
"152 608 OFFCURVE",
"151 562 OFFCURVE",
"144 512 CURVE SMOOTH",
"93 163 LINE SMOOTH",
"90 143 OFFCURVE",
"77 92 OFFCURVE",
"72 77 CURVE",
"7 65 LINE",
"2 -5 LINE",
"2 -5 OFFCURVE",
"122 0 OFFCURVE",
"152 0 CURVE",
"239 67 LINE",
"240 82 OFFCURVE",
"245 143 OFFCURVE",
"253 193 CURVE SMOOTH",
"303 542 LINE SMOOTH",
"306 562 OFFCURVE",
"320 618 OFFCURVE",
"324 633 CURVE"
);
}
);
width = 636;
}
);
leftKerningGroup = H;
rightKerningGroup = B;
unicode = 0042;
},
{
color = 0;
glyphname = C;
lastChange = "2018-05-29 07:25:28 +0000";
layers = (
{
anchors = (
{
name = bottom;
position = "{370, 0}";
},
{
name = top;
position = "{382, 720}";
}
);
layerId = UUID0;
paths = (
{
closed = 1;
nodes = (
"586 170 LINE",
"527 168 LINE",
"527 168 OFFCURVE",
"527 131 OFFCURVE",
"525 121 CURVE",
"525 111 OFFCURVE",
"518 88 OFFCURVE",
"511 65 CURVE",
"469 52 OFFCURVE",
"416 43 OFFCURVE",
"375 43 CURVE SMOOTH",
"232 43 OFFCURVE",
"162 180 OFFCURVE",
"162 353 CURVE SMOOTH",
"162 526 OFFCURVE",
"232 662 OFFCURVE",
"376 662 CURVE SMOOTH",
"414 662 OFFCURVE",
"463 652 OFFCURVE",
"502 639 CURVE",
"508 619 OFFCURVE",
"514 598 OFFCURVE",
"514 589 CURVE SMOOTH",
"514 542 LINE",
"573 538 LINE",
"583 686 LINE",
"520 702 OFFCURVE",
"458 720 OFFCURVE",
"376 720 CURVE SMOOTH",
"166 720 OFFCURVE",
"59 570 OFFCURVE",
"59 352 CURVE SMOOTH",
"59 134 OFFCURVE",
"166 -15 OFFCURVE",
"376 -15 CURVE SMOOTH",
"457 -15 OFFCURVE",
"529 3 OFFCURVE",
"592 19 CURVE"
);
}
);
width = 648;
},
{
anchors = (
{
name = bottom;
position = "{373, 0}";
},
{
name = top;
position = "{397, 720}";
}
);
layerId = "16643525-C5DD-48EC-8E99-463BF28F5E85";
paths = (
{
closed = 1;
nodes = (
"613 191 LINE",
"538 189 LINE",
"538 189 OFFCURVE",
"536 153 OFFCURVE",
"535 142 CURVE",
"535 134 OFFCURVE",
"521 100 OFFCURVE",
"519 93 CURVE",
"474 83 OFFCURVE",
"438 78 OFFCURVE",
"395 78 CURVE SMOOTH",
"272 78 OFFCURVE",
"226 200 OFFCURVE",
"226 353 CURVE SMOOTH",
"226 506 OFFCURVE",
"273 627 OFFCURVE",
"396 627 CURVE SMOOTH",
"435 627 OFFCURVE",
"467 622 OFFCURVE",
"508 613 CURVE",
"513 600 OFFCURVE",
"520 578 OFFCURVE",
"520 572 CURVE SMOOTH",
"523 511 LINE",
"600 507 LINE",
"612 686 LINE",
"547 704 OFFCURVE",
"482 720 OFFCURVE",
"396 720 CURVE SMOOTH",
"164 720 OFFCURVE",
"46 570 OFFCURVE",
"46 352 CURVE SMOOTH",
"46 134 OFFCURVE",
"164 -15 OFFCURVE",
"396 -15 CURVE SMOOTH",
"481 -15 OFFCURVE",
"556 3 OFFCURVE",
"621 19 CURVE"
);
}
);
width = 671;
},
{
anchors = (
{
name = bottom;
position = "{342, 0}";
},
{
name = top;
position = "{458, 720}";
}
);
layerId = "08C09966-8326-41C9-AE3D-74AAC6FC1D13";
paths = (
{
closed = 1;
nodes = (
"563 170 LINE",
"505 168 LINE",
"505 168 OFFCURVE",
"499 131 OFFCURVE",
"496 121 CURVE",
"494 111 OFFCURVE",
"484 88 OFFCURVE",
"474 65 CURVE",
"431 52 OFFCURVE",
"389 43 OFFCURVE",
"349 43 CURVE SMOOTH",
"235 43 OFFCURVE",
"173 147 OFFCURVE",
"173 283 CURVE SMOOTH",
"173 480 OFFCURVE",
"264 662 OFFCURVE",
"431 662 CURVE SMOOTH",
"467 662 OFFCURVE",
"513 652 OFFCURVE",
"549 639 CURVE",
"552 619 OFFCURVE",
"554 598 OFFCURVE",
"553 589 CURVE SMOOTH",
"546 542 LINE",
"604 538 LINE",
"635 686 LINE",
"576 702 OFFCURVE",
"519 720 OFFCURVE",
"439 720 CURVE SMOOTH",
"200 720 OFFCURVE",
"70 529 OFFCURVE",
"70 281 CURVE SMOOTH",
"70 105 OFFCURVE",
"166 -15 OFFCURVE",
"342 -15 CURVE SMOOTH",
"421 -15 OFFCURVE",
"483 3 OFFCURVE",
"547 19 CURVE"
);
}
);
width = 637;
},
{
anchors = (
{
name = bottom;
position = "{352, 0}";
},
{
name = top;
position = "{466, 720}";
}
);
layerId = "B953D09C-6DD0-450A-A78C-8C2188DD4016";
paths = (
{
closed = 1;
nodes = (
"592 191 LINE",
"518 189 LINE",
"518 189 OFFCURVE",
"510 153 OFFCURVE",
"508 142 CURVE",
"507 134 OFFCURVE",
"488 100 OFFCURVE",
"485 93 CURVE",
"440 83 OFFCURVE",
"405 78 OFFCURVE",
"363 78 CURVE SMOOTH",
"271 78 OFFCURVE",
"235 165 OFFCURVE",
"235 277 CURVE SMOOTH",
"235 442 OFFCURVE",
"291 627 OFFCURVE",
"444 627 CURVE SMOOTH",
"482 627 OFFCURVE",
"511 622 OFFCURVE",
"550 613 CURVE",
"553 600 OFFCURVE",
"557 578 OFFCURVE",
"556 572 CURVE SMOOTH",
"550 511 LINE",
"625 507 LINE",
"663 686 LINE",
"602 702 OFFCURVE",
"539 720 OFFCURVE",
"455 720 CURVE SMOOTH",
"195 720 OFFCURVE",
"56 533 OFFCURVE",
"56 287 CURVE SMOOTH",
"56 107 OFFCURVE",
"156 -15 OFFCURVE",
"354 -15 CURVE SMOOTH",
"437 -15 OFFCURVE",
"509 3 OFFCURVE",
"575 19 CURVE"
);
}
);
width = 657;
}
);
leftKerningGroup = O;
rightKerningGroup = C;
unicode = 0043;
},
{
color = 0;
glyphname = D;
lastChange = "2018-05-29 07:25:27 +0000";
layers = (
{
anchors = (
{
name = bottom;
position = "{324, 0}";
},
{
name = center;
position = "{179, 353}";
},
{
name = top;
position = "{325, 720}";
}
);
background = {
paths = (
{
closed = 1;
nodes = (
"296 710 LINE",
"296 710 OFFCURVE",
"218 705 OFFCURVE",
"158 705 CURVE SMOOTH",
"138 705 OFFCURVE",
"43 710 OFFCURVE",
"43 710 CURVE",
"38 656 LINE",
"115 644 LINE",
"117 631 OFFCURVE",
"124 585 OFFCURVE",
"124 568 CURVE SMOOTH",
"124 137 LINE SMOOTH",
"124 120 OFFCURVE",
"117 74 OFFCURVE",
"115 61 CURVE",
"36 45 LINE",
"41 -5 LINE",
"41 -5 OFFCURVE",
"151 0 OFFCURVE",
"176 0 CURVE",
"305 0 LINE",
"312 54 LINE",
"222 61 LINE",
"220 75 OFFCURVE",
"215 125 OFFCURVE",
"215 167 CURVE SMOOTH",
"215 538 LINE SMOOTH",
"215 580 OFFCURVE",
"220 630 OFFCURVE",
"222 644 CURVE",
"300 651 LINE"
);
}
);
};
guideLines = (
{
position = "{268, 55}";
}
);
layerId = UUID0;
paths = (
{
closed = 1;
nodes = (
"43 710 CURVE",
"38 656 LINE",
"115 644 LINE",
"117 631 OFFCURVE",
"124 585 OFFCURVE",
"124 568 CURVE SMOOTH",
"124 137 LINE SMOOTH",
"124 120 OFFCURVE",
"117 74 OFFCURVE",
"115 61 CURVE",
"36 45 LINE",
"41 -5 LINE",
"41 -5 OFFCURVE",
"151 0 OFFCURVE",
"176 0 CURVE SMOOTH",
"226 0 OFFCURVE",
"278 -4 OFFCURVE",
"328 -4 CURVE SMOOTH",
"544 -4 OFFCURVE",
"673 141 OFFCURVE",
"673 352 CURVE SMOOTH",
"673 570 OFFCURVE",
"551 710 OFFCURVE",
"328 710 CURVE SMOOTH",
"262 710 OFFCURVE",
"222 705 OFFCURVE",
"158 705 CURVE SMOOTH",
"138 705 OFFCURVE",
"76 708 OFFCURVE"
);
},
{
closed = 1;
nodes = (
"496 650 OFFCURVE",
"574 514 OFFCURVE",
"574 352 CURVE SMOOTH",
"574 189 OFFCURVE",
"496 55 OFFCURVE",
"329 55 CURVE SMOOTH",
"285 55 OFFCURVE",
"248 57 OFFCURVE",
"222 58 CURVE",
"221 62 OFFCURVE",
"215 119 OFFCURVE",
"215 167 CURVE SMOOTH",
"215 538 LINE SMOOTH",
"215 578 OFFCURVE",
"220 631 OFFCURVE",
"222 650 CURVE",
"247 650 OFFCURVE",
"283 650 OFFCURVE",
"329 650 CURVE SMOOTH"
);
}
);
width = 728;
},
{
anchors = (
{
name = bottom;
position = "{336, 0}";
},
{
name = center;
position = "{193, 353}";
},
{
name = top;
position = "{339, 720}";
}
);
background = {
paths = (
{
closed = 1;
nodes = (
"40 710 CURVE",
"35 635 LINE",
"100 623 LINE",
"102 607 OFFCURVE",
"109 562 OFFCURVE",
"109 512 CURVE SMOOTH",
"109 163 LINE SMOOTH",
"109 143 OFFCURVE",
"101 87 OFFCURVE",
"100 77 CURVE",
"34 65 LINE",
"39 -5 LINE",
"39 -5 OFFCURVE",
"159 0 OFFCURVE",
"189 0 CURVE SMOOTH",
"239 0 OFFCURVE",
"299 -5 OFFCURVE",
"349 -5 CURVE SMOOTH",
"581 -5 OFFCURVE",
"701 142 OFFCURVE",
"701 352 CURVE SMOOTH",
"701 562 OFFCURVE",
"581 710 OFFCURVE",
"349 710 CURVE SMOOTH",
"299 710 OFFCURVE",
"210 705 OFFCURVE",
"160 705 CURVE SMOOTH",
"130 705 OFFCURVE",
"40 710 OFFCURVE"
);
},
{
closed = 1;
nodes = (
"482 627 OFFCURVE",
"534 501 OFFCURVE",
"534 354 CURVE SMOOTH",
"534 200 OFFCURVE",
"483 78 OFFCURVE",
"333 78 CURVE SMOOTH",
"306 78 OFFCURVE",
"279 79 OFFCURVE",
"268 80 CURVE",
"267 92 OFFCURVE",
"264 149 OFFCURVE",
"264 193 CURVE SMOOTH",
"264 542 LINE SMOOTH",
"264 558 OFFCURVE",
"267 607 OFFCURVE",
"268 624 CURVE",
"291 626 OFFCURVE",
"315 627 OFFCURVE",
"335 627 CURVE SMOOTH"
);
}
);
};
layerId = "16643525-C5DD-48EC-8E99-463BF28F5E85";
paths = (
{
closed = 1;
nodes = (
"258 624 LINE",
"281 626 OFFCURVE",
"315 627 OFFCURVE",
"335 627 CURVE SMOOTH",
"482 627 OFFCURVE",
"534 501 OFFCURVE",
"534 354 CURVE SMOOTH",
"534 200 OFFCURVE",
"483 78 OFFCURVE",
"333 78 CURVE SMOOTH",
"306 78 OFFCURVE",
"269 79 OFFCURVE",
"258 80 CURVE",
"189 0 LINE",
"239 0 OFFCURVE",
"299 -5 OFFCURVE",
"349 -5 CURVE SMOOTH",
"581 -5 OFFCURVE",
"701 142 OFFCURVE",
"701 352 CURVE SMOOTH",
"701 562 OFFCURVE",
"581 710 OFFCURVE",
"349 710 CURVE SMOOTH",
"299 710 OFFCURVE",
"210 705 OFFCURVE",
"160 705 CURVE"
);
},
{
closed = 1;
nodes = (
"160 705 LINE",
"130 705 OFFCURVE",
"40 710 OFFCURVE",
"40 710 CURVE",
"35 635 LINE",
"100 623 LINE",
"102 607 OFFCURVE",
"109 562 OFFCURVE",
"109 542 CURVE SMOOTH",
"109 163 LINE SMOOTH",
"109 143 OFFCURVE",
"101 87 OFFCURVE",
"100 77 CURVE",
"34 65 LINE",
"39 -5 LINE",
"39 -5 OFFCURVE",
"159 0 OFFCURVE",
"189 0 CURVE",
"273 57 LINE",
"271 81 OFFCURVE",
"264 153 OFFCURVE",
"264 193 CURVE SMOOTH",
"264 512 LINE SMOOTH",
"264 552 OFFCURVE",
"268 618 OFFCURVE",
"271 643 CURVE"
);
}
);
width = 745;
},
{
anchors = (
{
name = bottom;
position = "{291, 0}";
},
{
name = center;
position = "{196, 353}";
},
{
name = top;
position = "{393, 720}";
}
);
background = {
paths = (
{
closed = 1;
nodes = (
"141 0 LINE",
"191 0 OFFCURVE",
"244 -6 OFFCURVE",
"294 -6 CURVE SMOOTH",
"532 -6 OFFCURVE",
"677 170 OFFCURVE",
"677 418 CURVE SMOOTH",
"677 595 OFFCURVE",
"569 710 OFFCURVE",
"379 710 CURVE SMOOTH",
"339 710 OFFCURVE",
"267 705 OFFCURVE",
"227 705 CURVE",
"176 645 LINE",
"201 646 OFFCURVE",
"337 651 OFFCURVE",
"381 650 CURVE SMOOTH",
"518 650 OFFCURVE",
"578 543 OFFCURVE",
"578 412 CURVE SMOOTH",
"578 225 OFFCURVE",
"492 53 OFFCURVE",
"303 53 CURVE SMOOTH",
"273 53 OFFCURVE",
"216 55 OFFCURVE",
"192 57 CURVE"
);
},
{
closed = 1;
nodes = (
"227 705 LINE",
"207 705 OFFCURVE",
"112 710 OFFCURVE",
"112 710 CURVE",
"99 656 LINE",
"172 644 LINE",
"172 631 OFFCURVE",
"171 583 OFFCURVE",
"169 568 CURVE SMOOTH",
"106 137 LINE SMOOTH",
"104 122 OFFCURVE",
"90 74 OFFCURVE",
"87 61 CURVE",
"8 45 LINE",
"6 -5 LINE",
"6 -5 OFFCURVE",
"116 0 OFFCURVE",
"141 0 CURVE",
"192 57 LINE",
"192 71 OFFCURVE",
"198 137 OFFCURVE",
"202 167 CURVE SMOOTH",
"256 538 LINE SMOOTH",
"260 568 OFFCURVE",
"280 654 OFFCURVE",
"284 668 CURVE"
);
}
);
};
layerId = "08C09966-8326-41C9-AE3D-74AAC6FC1D13";
paths = (
{
closed = 1;
nodes = (
"141 0 LINE",
"191 0 OFFCURVE",
"244 -5 OFFCURVE",
"294 -5 CURVE SMOOTH",
"532 -5 OFFCURVE",
"677 171 OFFCURVE",
"677 418 CURVE SMOOTH",
"677 595 OFFCURVE",
"569 710 OFFCURVE",
"379 710 CURVE SMOOTH",
"339 710 OFFCURVE",
"267 705 OFFCURVE",
"227 705 CURVE",
"176 645 LINE",
"201 646 OFFCURVE",
"337 651 OFFCURVE",
"381 650 CURVE SMOOTH",
"518 650 OFFCURVE",
"578 543 OFFCURVE",
"578 412 CURVE SMOOTH",
"578 226 OFFCURVE",
"492 54 OFFCURVE",
"303 54 CURVE SMOOTH",
"273 54 OFFCURVE",
"216 56 OFFCURVE",
"192 57 CURVE"
);
},
{
closed = 1;
nodes = (
"227 705 LINE",
"207 705 OFFCURVE",
"112 710 OFFCURVE",
"112 710 CURVE",
"99 656 LINE",
"172 644 LINE",
"172 631 OFFCURVE",
"171 583 OFFCURVE",
"169 568 CURVE SMOOTH",
"106 137 LINE SMOOTH",
"104 122 OFFCURVE",
"90 74 OFFCURVE",
"87 61 CURVE",
"8 45 LINE",
"6 -5 LINE",
"6 -5 OFFCURVE",
"116 0 OFFCURVE",
"141 0 CURVE",
"192 57 LINE",
"192 71 OFFCURVE",
"198 137 OFFCURVE",
"202 167 CURVE SMOOTH",
"256 538 LINE SMOOTH",
"260 568 OFFCURVE",
"280 654 OFFCURVE",
"284 668 CURVE"
);
}
);
width = 715;
},
{
anchors = (
{
name = bottom;
position = "{275, 0}";
},
{
name = center;
position = "{210, 353}";
},
{
name = top;
position = "{404, 720}";
}
);
background = {
paths = (
{
closed = 1;
nodes = (
"189 621 OFFCURVE",
"365 626 OFFCURVE",
"383 627 CURVE SMOOTH",
"497 627 OFFCURVE",
"538 534 OFFCURVE",
"538 423 CURVE SMOOTH",
"538 264 OFFCURVE",
"488 78 OFFCURVE",
"300 78 CURVE SMOOTH",
"275 77 OFFCURVE",
"205 83 OFFCURVE",
"185 85 CURVE",
"153 0 LINE",
"213 0 OFFCURVE",
"247 -5 OFFCURVE",
"307 -5 CURVE SMOOTH",
"566 -5 OFFCURVE",
"704 176 OFFCURVE",
"704 415 CURVE SMOOTH",
"704 588 OFFCURVE",
"603 710 OFFCURVE",
"406 710 CURVE SMOOTH",
"361 710 OFFCURVE",
"273 705 OFFCURVE",
"228 705 CURVE",
"166 621 LINE"
);
},
{
closed = 1;
nodes = (
"227 705 LINE",
"197 705 OFFCURVE",
"107 710 OFFCURVE",
"107 710 CURVE",
"91 635 LINE",
"152 623 LINE",
"151 607 OFFCURVE",
"151 562 OFFCURVE",
"144 512 CURVE SMOOTH",
"93 163 LINE SMOOTH",
"90 143 OFFCURVE",
"75 87 OFFCURVE",
"72 77 CURVE",
"7 65 LINE",
"2 -5 LINE",
"2 -5 OFFCURVE",
"122 0 OFFCURVE",
"152 0 CURVE",
"239 67 LINE",
"240 81 OFFCURVE",
"245 143 OFFCURVE",
"253 193 CURVE SMOOTH",
"303 542 LINE SMOOTH",
"306 562 OFFCURVE",
"317 614 OFFCURVE",
"322 633 CURVE"
);
}
);
};
layerId = "B953D09C-6DD0-450A-A78C-8C2188DD4016";
paths = (
{
closed = 1;
nodes = (
"189 621 OFFCURVE",
"365 626 OFFCURVE",
"383 627 CURVE SMOOTH",
"497 627 OFFCURVE",
"538 534 OFFCURVE",
"538 423 CURVE SMOOTH",
"538 264 OFFCURVE",
"488 78 OFFCURVE",
"300 78 CURVE SMOOTH",
"275 77 OFFCURVE",
"205 83 OFFCURVE",
"185 85 CURVE",
"153 0 LINE",
"213 0 OFFCURVE",
"247 -5 OFFCURVE",
"307 -5 CURVE SMOOTH",
"566 -5 OFFCURVE",
"704 176 OFFCURVE",
"704 415 CURVE SMOOTH",
"704 588 OFFCURVE",
"603 710 OFFCURVE",
"406 710 CURVE SMOOTH",
"361 710 OFFCURVE",
"272 705 OFFCURVE",
"227 705 CURVE",
"166 621 LINE"
);
},
{
closed = 1;
nodes = (
"227 705 LINE",
"197 705 OFFCURVE",
"107 710 OFFCURVE",
"107 710 CURVE",
"91 635 LINE",
"152 623 LINE",
"152 608 OFFCURVE",
"151 562 OFFCURVE",
"144 512 CURVE SMOOTH",
"93 163 LINE SMOOTH",
"90 143 OFFCURVE",
"77 92 OFFCURVE",
"72 77 CURVE",
"7 65 LINE",
"2 -5 LINE",
"2 -5 OFFCURVE",
"122 0 OFFCURVE",
"152 0 CURVE",
"239 67 LINE",
"240 82 OFFCURVE",
"245 143 OFFCURVE",
"253 193 CURVE SMOOTH",
"303 542 LINE SMOOTH",
"306 562 OFFCURVE",
"320 618 OFFCURVE",
"324 633 CURVE"
);
}
);
width = 729;
}
);
leftKerningGroup = H;
rightKerningGroup = O;
unicode = 0044;
},
{
glyphname = Dcroat;
lastChange = "2018-05-29 07:43:40 +0000";
layers = (
{
background = {
paths = (
{
closed = 1;
nodes = (
"41 656 LINE",
"118 644 LINE",
"120 631 OFFCURVE",
"127 585 OFFCURVE",
"127 568 CURVE SMOOTH",
"127 380 LINE",
"39 380 LINE",
"39 337 LINE",
"127 337 LINE",
"127 137 LINE SMOOTH",
"127 120 OFFCURVE",
"120 74 OFFCURVE",
"118 61 CURVE",
"39 45 LINE",
"44 -5 LINE",
"44 -5 OFFCURVE",
"141 0 OFFCURVE",
"162 0 CURVE SMOOTH",
"222 0 OFFCURVE",
"291 -6 OFFCURVE",
"331 -6 CURVE SMOOTH",
"547 -6 OFFCURVE",
"676 139 OFFCURVE",
"676 352 CURVE SMOOTH",
"676 575 OFFCURVE",
"554 715 OFFCURVE",
"331 715 CURVE SMOOTH",
"265 715 OFFCURVE",
"208 707 OFFCURVE",
"144 705 CURVE",
"110 707 OFFCURVE",
"46 710 OFFCURVE",
"46 710 CURVE"
);
},
{
closed = 1;
nodes = (
"218 337 LINE",
"356 337 LINE",
"361 380 LINE",
"218 380 LINE",
"218 538 LINE SMOOTH",
"218 578 OFFCURVE",
"223 631 OFFCURVE",
"225 650 CURVE",
"250 653 OFFCURVE",
"286 655 OFFCURVE",
"332 655 CURVE SMOOTH",
"499 655 OFFCURVE",
"577 519 OFFCURVE",
"577 352 CURVE SMOOTH",
"577 187 OFFCURVE",
"499 53 OFFCURVE",
"332 53 CURVE SMOOTH",
"288 53 OFFCURVE",
"251 55 OFFCURVE",
"225 57 CURVE",
"224 61 OFFCURVE",
"218 119 OFFCURVE",
"218 167 CURVE SMOOTH"
);
}
);
};
components = (
{
name = D;
},
{
name = barcomp;
transform = "{1, 0, 0, 1, -53, -252}";
}
);
layerId = UUID0;
width = 728;
},
{
components = (
{
name = D;
},
{
name = barcomp;
transform = "{1, 0, 0, 1, -19, -239}";
}
);
layerId = "16643525-C5DD-48EC-8E99-463BF28F5E85";
width = 745;
},
{
background = {
paths = (
{
closed = 1;
nodes = (
"61 380 LINE",
"55 337 LINE",
"362 337 LINE",
"373 380 LINE"
);
}
);
};
components = (
{
name = D;
},
{
name = barcomp;
transform = "{1, 0, 0, 1, -11, -252}";
}
);
layerId = "08C09966-8326-41C9-AE3D-74AAC6FC1D13";
width = 715;
},
{
background = {
paths = (
{
closed = 1;
nodes = (
"53 322 LINE",
"359 322 LINE",
"375 395 LINE",
"63 395 LINE"
);
}
);
};
components = (
{
name = D;
},
{
name = barcomp;
transform = "{1, 0, 0, 1, -107, -239}";
}
);
layerId = "B953D09C-6DD0-450A-A78C-8C2188DD4016";
width = 729;
}
);
rightKerningGroup = O;
unicode = 0110;
},
{
color = 0;
glyphname = E;
lastChange = "2018-05-29 07:25:27 +0000";
layers = (
{
anchors = (
{
name = bottom;
position = "{302, 0}";
},
{
name = ogonek;
position = "{510, -4}";
},
{
name = top;
position = "{288, 720}";
}
);
background = {
paths = (
{
closed = 1;
nodes = (
"138 705 OFFCURVE",
"43 710 OFFCURVE",
"43 710 CURVE",
"38 656 LINE",
"115 644 LINE",
"117 631 OFFCURVE",
"124 585 OFFCURVE",
"124 568 CURVE SMOOTH",
"124 137 LINE SMOOTH",
"124 120 OFFCURVE",
"117 74 OFFCURVE",
"115 61 CURVE",
"36 45 LINE",
"41 -5 LINE",
"41 -5 OFFCURVE",
"151 0 OFFCURVE",
"176 0 CURVE SMOOTH",
"396 0 LINE SMOOTH",
"416 0 OFFCURVE",
"510 -4 OFFCURVE",
"510 -4 CURVE",
"529 14 LINE",
"544 165 LINE",
"489 170 LINE",
"487 154 OFFCURVE",
"477 118 OFFCURVE",
"474 103 CURVE SMOOTH",
"472 94 OFFCURVE",
"463 80 OFFCURVE",
"453 66 CURVE",
"431 62 OFFCURVE",
"397 57 OFFCURVE",
"366 57 CURVE SMOOTH",
"222 57 LINE",
"220 76 OFFCURVE",
"215 127 OFFCURVE",
"215 167 CURVE SMOOTH",
"215 338 LINE",
"311 338 LINE",
"331 338 OFFCURVE",
"391 332 OFFCURVE",
"391 332 CURVE",
"400 265 LINE",
"448 271 LINE",
"448 271 OFFCURVE",
"445 330 OFFCURVE",
"445 380 CURVE SMOOTH",
"445 400 OFFCURVE",
"446 464 OFFCURVE",
"446 464 CURVE",
"400 469 LINE",
"391 403 LINE",
"391 403 OFFCURVE",
"351 394 OFFCURVE",
"331 394 CURVE",
"215 394 LINE",
"215 538 LINE SMOOTH",
"215 577 OFFCURVE",
"220 628 OFFCURVE",
"222 649 CURVE",
"353 649 LINE SMOOTH",
"381 649 OFFCURVE",
"412 646 OFFCURVE",
"434 644 CURVE",
"444 631 OFFCURVE",
"453 617 OFFCURVE",
"454 610 CURVE",
"458 595 OFFCURVE",
"463 572 OFFCURVE",
"465 556 CURVE",
"523 561 LINE",
"516 692 LINE",
"497 710 LINE",
"497 710 OFFCURVE",
"403 705 OFFCURVE",
"383 705 CURVE SMOOTH",
"158 705 LINE SMOOTH"
);
}
);
};
guideLines = (
{
position = "{201, 338}";
}
);
layerId = UUID0;
paths = (
{
closed = 1;
nodes = (
"138 705 OFFCURVE",
"43 710 OFFCURVE",
"43 710 CURVE",
"38 656 LINE",
"115 644 LINE",
"117 631 OFFCURVE",
"124 585 OFFCURVE",
"124 568 CURVE SMOOTH",
"124 137 LINE SMOOTH",
"124 120 OFFCURVE",
"117 74 OFFCURVE",
"115 61 CURVE",
"36 45 LINE",
"41 -5 LINE",
"41 -5 OFFCURVE",
"151 0 OFFCURVE",
"176 0 CURVE SMOOTH",
"396 0 LINE SMOOTH",
"416 0 OFFCURVE",
"510 -4 OFFCURVE",
"510 -4 CURVE",
"529 14 LINE",
"544 165 LINE",
"489 170 LINE",
"487 154 OFFCURVE",
"477 118 OFFCURVE",
"474 103 CURVE SMOOTH",
"472 94 OFFCURVE",
"463 80 OFFCURVE",
"453 66 CURVE",
"431 62 OFFCURVE",
"397 57 OFFCURVE",
"366 57 CURVE SMOOTH",
"222 57 LINE",
"220 76 OFFCURVE",
"215 127 OFFCURVE",
"215 167 CURVE",
"215 538 LINE",
"215 577 OFFCURVE",
"220 628 OFFCURVE",
"222 649 CURVE",
"353 649 LINE SMOOTH",
"381 649 OFFCURVE",
"412 646 OFFCURVE",
"434 644 CURVE",
"444 631 OFFCURVE",
"453 617 OFFCURVE",
"454 610 CURVE",
"458 595 OFFCURVE",
"463 572 OFFCURVE",
"465 556 CURVE",
"523 561 LINE",
"516 692 LINE",
"497 710 LINE",
"497 710 OFFCURVE",
"403 705 OFFCURVE",
"383 705 CURVE SMOOTH",
"158 705 LINE SMOOTH"
);
},
{
closed = 1;
nodes = (
"205 338 LINE",
"311 338 LINE SMOOTH",
"331 338 OFFCURVE",
"382 333 OFFCURVE",
"391 332 CURVE",
"400 265 LINE",
"448 271 LINE",
"448 271 OFFCURVE",
"445 330 OFFCURVE",
"445 380 CURVE SMOOTH",
"445 400 OFFCURVE",
"446 464 OFFCURVE",
"446 464 CURVE",
"400 469 LINE",
"391 400 LINE",
"386 399 OFFCURVE",
"351 394 OFFCURVE",
"331 394 CURVE SMOOTH",
"205 394 LINE"
);
}
);
width = 594;
},
{
anchors = (
{
name = bottom;
position = "{324, 0}";
},
{
name = ogonek;
position = "{536, -4}";
},
{
name = top;
position = "{294, 720}";
}
);
background = {
paths = (
{
closed = 1;
nodes = (
"382 623 LINE",
"412 623 OFFCURVE",
"437 621 OFFCURVE",
"457 619 CURVE",
"470 583 LINE",
"472 568 OFFCURVE",
"474 554 OFFCURVE",
"476 537 CURVE",
"548 542 LINE",
"541 692 LINE",
"522 710 LINE",
"492 708 OFFCURVE",
"427 705 OFFCURVE",
"407 705 CURVE",
"160 705 LINE",
"268 623 LINE"
);
},
{
closed = 1;
nodes = (
"422 0 LINE SMOOTH",
"442 0 OFFCURVE",
"536 -4 OFFCURVE",
"536 -4 CURVE",
"555 14 LINE",
"570 190 LINE",
"500 195 LINE",
"498 179 OFFCURVE",
"492 153 OFFCURVE",
"488 138 CURVE SMOOTH",
"485 128 OFFCURVE",
"479 113 OFFCURVE",
"469 95 CURVE",
"449 91 OFFCURVE",
"421 87 OFFCURVE",
"392 87 CURVE SMOOTH",
"267 87 LINE",
"189 0 LINE"
);
},
{
closed = 1;
nodes = (
"160 705 LINE",
"130 705 OFFCURVE",
"40 710 OFFCURVE",
"40 710 CURVE",
"35 635 LINE",
"100 623 LINE",
"102 607 OFFCURVE",
"109 562 OFFCURVE",
"109 542 CURVE SMOOTH",
"109 163 LINE SMOOTH",
"109 143 OFFCURVE",
"101 87 OFFCURVE",
"100 77 CURVE",
"34 65 LINE",
"39 -5 LINE",
"39 -5 OFFCURVE",
"159 0 OFFCURVE",
"189 0 CURVE",
"273 57 LINE",
"271 81 OFFCURVE",
"264 153 OFFCURVE",
"264 193 CURVE SMOOTH",
"264 512 LINE SMOOTH",
"264 552 OFFCURVE",
"268 618 OFFCURVE",
"271 643 CURVE"
);
},
{
closed = 1;
nodes = (
"326 316 LINE SMOOTH",
"346 316 OFFCURVE",
"380 313 OFFCURVE",
"390 312 CURVE",
"399 250 LINE",
"463 256 LINE",
"463 256 OFFCURVE",
"460 333 OFFCURVE",
"460 383 CURVE SMOOTH",
"460 403 OFFCURVE",
"461 466 OFFCURVE",
"461 466 CURVE",
"399 471 LINE",
"390 404 LINE",
"382 402 OFFCURVE",
"356 398 OFFCURVE",
"346 398 CURVE SMOOTH",
"254 398 LINE",
"254 316 LINE"
);
}
);
};
layerId = "16643525-C5DD-48EC-8E99-463BF28F5E85";
paths = (
{
closed = 1;
nodes = (
"382 623 LINE",
"412 623 OFFCURVE",
"437 621 OFFCURVE",
"457 619 CURVE",
"470 583 LINE",
"472 568 OFFCURVE",
"474 554 OFFCURVE",
"476 537 CURVE",
"548 542 LINE",
"541 692 LINE",
"522 710 LINE",
"492 708 OFFCURVE",
"427 705 OFFCURVE",
"407 705 CURVE",
"160 705 LINE",
"268 623 LINE"
);
},
{
closed = 1;
nodes = (
"422 0 LINE SMOOTH",
"442 0 OFFCURVE",
"536 -4 OFFCURVE",
"536 -4 CURVE",
"555 14 LINE",
"570 190 LINE",
"500 195 LINE",
"498 179 OFFCURVE",
"492 153 OFFCURVE",
"488 138 CURVE SMOOTH",
"485 128 OFFCURVE",
"479 113 OFFCURVE",
"469 95 CURVE",
"449 91 OFFCURVE",
"421 87 OFFCURVE",
"392 87 CURVE SMOOTH",
"267 87 LINE",
"189 0 LINE"
);
},
{
closed = 1;
nodes = (
"160 705 LINE",
"130 705 OFFCURVE",
"40 710 OFFCURVE",
"40 710 CURVE",
"35 635 LINE",
"100 623 LINE",
"102 607 OFFCURVE",
"109 562 OFFCURVE",
"109 542 CURVE SMOOTH",
"109 163 LINE SMOOTH",
"109 143 OFFCURVE",
"101 87 OFFCURVE",
"100 77 CURVE",
"34 65 LINE",
"39 -5 LINE",
"39 -5 OFFCURVE",
"159 0 OFFCURVE",
"189 0 CURVE",
"273 57 LINE",
"271 81 OFFCURVE",
"264 153 OFFCURVE",
"264 193 CURVE SMOOTH",
"264 512 LINE SMOOTH",
"264 552 OFFCURVE",
"268 618 OFFCURVE",
"271 643 CURVE"
);
},
{
closed = 1;
nodes = (
"326 316 LINE SMOOTH",
"346 316 OFFCURVE",
"380 313 OFFCURVE",
"390 312 CURVE",
"399 250 LINE",
"463 256 LINE",
"463 256 OFFCURVE",
"460 333 OFFCURVE",
"460 383 CURVE SMOOTH",
"460 403 OFFCURVE",
"461 466 OFFCURVE",
"461 466 CURVE",
"399 471 LINE",
"390 402 LINE",
"377 400 OFFCURVE",
"356 398 OFFCURVE",
"346 398 CURVE SMOOTH",
"254 398 LINE",
"254 316 LINE"
);
}
);
width = 614;
},
{
anchors = (
{
name = bottom;
position = "{251, 0}";
},
{
name = ogonek;
position = "{462, -4}";
},
{
name = top;
position = "{357, 720}";
}
);
background = {
paths = (
{
closed = 1;
nodes = (
"405 649 LINE SMOOTH",
"432 649 OFFCURVE",
"462 646 OFFCURVE",
"483 644 CURVE",
"491 631 OFFCURVE",
"496 617 OFFCURVE",
"497 610 CURVE SMOOTH",
"499 595 OFFCURVE",
"500 572 OFFCURVE",
"500 556 CURVE",
"557 561 LINE",
"570 692 LINE",
"554 710 LINE",
"554 710 OFFCURVE",
"462 705 OFFCURVE",
"442 705 CURVE SMOOTH",
"227 705 LINE",
"279 649 LINE"
);
},
{
closed = 1;
nodes = (
"217 338 LINE",
"318 338 LINE SMOOTH",
"337 338 OFFCURVE",
"394 332 OFFCURVE",
"394 332 CURVE",
"391 265 LINE",
"439 271 LINE",
"439 271 OFFCURVE",
"446 330 OFFCURVE",
"454 380 CURVE SMOOTH",
"457 400 OFFCURVE",
"469 464 OFFCURVE",
"469 464 CURVE",
"424 469 LINE",
"404 403 LINE",
"404 403 OFFCURVE",
"365 394 OFFCURVE",
"345 394 CURVE SMOOTH",
"227 394 LINE"
);
},
{
closed = 1;
nodes = (
"331 57 LINE SMOOTH",
"361 57 OFFCURVE",
"395 62 OFFCURVE",
"417 66 CURVE",
"428 80 OFFCURVE",
"438 94 OFFCURVE",
"442 103 CURVE SMOOTH",
"449 118 OFFCURVE",
"462 154 OFFCURVE",
"467 170 CURVE",
"520 165 LINE",
"483 14 LINE",
"462 -4 LINE",
"462 -4 OFFCURVE",
"372 0 OFFCURVE",
"352 0 CURVE SMOOTH",
"141 0 LINE",
"193 57 LINE"
);
},
{
closed = 1;
nodes = (
"227 705 LINE",
"207 705 OFFCURVE",
"112 710 OFFCURVE",
"112 710 CURVE",
"99 656 LINE",
"172 644 LINE",
"172 631 OFFCURVE",
"171 583 OFFCURVE",
"169 568 CURVE SMOOTH",
"106 137 LINE SMOOTH",
"104 122 OFFCURVE",
"90 74 OFFCURVE",
"87 61 CURVE",
"8 45 LINE",
"6 -5 LINE",
"6 -5 OFFCURVE",
"116 0 OFFCURVE",
"141 0 CURVE",
"193 57 LINE",
"193 71 OFFCURVE",
"198 137 OFFCURVE",
"202 167 CURVE SMOOTH",
"256 538 LINE SMOOTH",
"260 568 OFFCURVE",
"275 632 OFFCURVE",
"279 649 CURVE"
);
}
);
};
guideLines = (
{
position = "{305, 338}";
}
);
layerId = "08C09966-8326-41C9-AE3D-74AAC6FC1D13";
paths = (
{
closed = 1;
nodes = (
"405 649 LINE SMOOTH",
"432 649 OFFCURVE",
"462 646 OFFCURVE",
"483 644 CURVE",
"491 631 OFFCURVE",
"496 617 OFFCURVE",
"497 610 CURVE SMOOTH",
"499 595 OFFCURVE",
"500 572 OFFCURVE",
"500 556 CURVE",
"557 561 LINE",
"570 692 LINE",
"554 710 LINE",
"554 710 OFFCURVE",
"462 705 OFFCURVE",
"442 705 CURVE SMOOTH",
"227 705 LINE",
"279 649 LINE"
);
},
{
closed = 1;
nodes = (
"217 338 LINE",
"318 338 LINE SMOOTH",
"338 338 OFFCURVE",
"383 333 OFFCURVE",
"394 332 CURVE",
"391 265 LINE",
"439 271 LINE",
"439 271 OFFCURVE",
"446 330 OFFCURVE",
"454 380 CURVE SMOOTH",
"457 400 OFFCURVE",
"469 464 OFFCURVE",
"469 464 CURVE",
"424 469 LINE",
"403 400 LINE",
"389 398 OFFCURVE",
"355 394 OFFCURVE",
"345 394 CURVE SMOOTH",
"227 394 LINE"
);
},
{
closed = 1;
nodes = (
"141 0 LINE",
"352 0 LINE SMOOTH",
"372 0 OFFCURVE",
"462 -4 OFFCURVE",
"462 -4 CURVE",
"483 14 LINE",
"520 165 LINE",
"467 170 LINE",
"462 154 OFFCURVE",
"449 118 OFFCURVE",
"442 103 CURVE SMOOTH",
"438 94 OFFCURVE",
"428 80 OFFCURVE",
"417 66 CURVE",
"395 62 OFFCURVE",
"361 57 OFFCURVE",
"331 57 CURVE SMOOTH",
"193 57 LINE"
);
},
{
closed = 1;
nodes = (
"227 705 LINE",
"207 705 OFFCURVE",
"112 710 OFFCURVE",
"112 710 CURVE",
"99 656 LINE",
"172 644 LINE",
"172 631 OFFCURVE",
"171 583 OFFCURVE",
"169 568 CURVE SMOOTH",
"106 137 LINE SMOOTH",
"104 122 OFFCURVE",
"90 74 OFFCURVE",
"87 61 CURVE",
"8 45 LINE",
"6 -5 LINE",
"6 -5 OFFCURVE",
"116 0 OFFCURVE",
"141 0 CURVE",
"193 57 LINE",
"193 71 OFFCURVE",
"198 137 OFFCURVE",
"202 167 CURVE SMOOTH",
"256 538 LINE SMOOTH",
"260 568 OFFCURVE",
"275 632 OFFCURVE",
"279 649 CURVE"
);
}
);
width = 583;
},
{
anchors = (
{
name = bottom;
position = "{293, 0}";
},
{
name = ogonek;
position = "{485, -4}";
},
{
name = top;
position = "{355, 720}";
}
);
background = {
paths = (
{
closed = 1;
nodes = (
"423 623 LINE SMOOTH",
"453 623 OFFCURVE",
"480 621 OFFCURVE",
"499 619 CURVE",
"503 611 OFFCURVE",
"504 599 OFFCURVE",
"505 595 CURVE",
"506 580 OFFCURVE",
"505 552 OFFCURVE",
"505 536 CURVE",
"576 541 LINE",
"592 692 LINE",
"576 710 LINE",
"576 710 OFFCURVE",
"484 705 OFFCURVE",
"464 705 CURVE SMOOTH",
"227 705 LINE",
"318 623 LINE"
);
},
{
closed = 1;
nodes = (
"152 0 LINE",
"375 0 LINE SMOOTH",
"395 0 OFFCURVE",
"485 -4 OFFCURVE",
"485 -4 CURVE",
"506 14 LINE",
"546 190 LINE",
"478 195 LINE",
"474 179 OFFCURVE",
"465 153 OFFCURVE",
"459 138 CURVE SMOOTH",
"454 128 OFFCURVE",
"446 113 OFFCURVE",
"434 95 CURVE",
"414 91 OFFCURVE",
"387 87 OFFCURVE",
"359 87 CURVE SMOOTH",
"239 87 LINE"
);
},
{
closed = 1;
nodes = (
"227 705 LINE",
"197 705 OFFCURVE",
"107 710 OFFCURVE",
"107 710 CURVE",
"91 635 LINE",
"152 623 LINE",
"152 608 OFFCURVE",
"151 562 OFFCURVE",
"144 512 CURVE SMOOTH",
"93 163 LINE SMOOTH",
"90 143 OFFCURVE",
"77 92 OFFCURVE",
"72 77 CURVE",
"7 65 LINE",
"2 -5 LINE",
"2 -5 OFFCURVE",
"122 0 OFFCURVE",
"152 0 CURVE",
"239 67 LINE",
"240 82 OFFCURVE",
"245 143 OFFCURVE",
"253 193 CURVE SMOOTH",
"303 542 LINE SMOOTH",
"306 562 OFFCURVE",
"320 618 OFFCURVE",
"324 633 CURVE"
);
},
{
closed = 1;
nodes = (
"328 316 LINE SMOOTH",
"348 316 OFFCURVE",
"373 314 OFFCURVE",
"388 312 CURVE",
"388 250 LINE",
"452 256 LINE",
"452 256 OFFCURVE",
"460 333 OFFCURVE",
"468 383 CURVE SMOOTH",
"470 403 OFFCURVE",
"481 466 OFFCURVE",
"481 466 CURVE",
"420 471 LINE",
"401 404 LINE",
"391 402 OFFCURVE",
"369 398 OFFCURVE",
"359 398 CURVE SMOOTH",
"244 398 LINE",
"233 316 LINE"
);
}
);
};
layerId = "B953D09C-6DD0-450A-A78C-8C2188DD4016";
paths = (
{
closed = 1;
nodes = (
"423 623 LINE SMOOTH",
"453 623 OFFCURVE",
"480 621 OFFCURVE",
"499 619 CURVE",
"503 611 OFFCURVE",
"504 599 OFFCURVE",
"505 595 CURVE",
"506 580 OFFCURVE",
"505 552 OFFCURVE",
"505 536 CURVE",
"576 541 LINE",
"592 692 LINE",
"576 710 LINE",
"576 710 OFFCURVE",
"484 705 OFFCURVE",
"464 705 CURVE SMOOTH",
"227 705 LINE",
"318 623 LINE"
);
},
{
closed = 1;
nodes = (
"152 0 LINE",
"375 0 LINE SMOOTH",
"395 0 OFFCURVE",
"485 -4 OFFCURVE",
"485 -4 CURVE",
"506 14 LINE",
"546 190 LINE",
"478 195 LINE",
"474 179 OFFCURVE",
"465 153 OFFCURVE",
"459 138 CURVE SMOOTH",
"454 128 OFFCURVE",
"446 113 OFFCURVE",
"434 95 CURVE",
"414 91 OFFCURVE",
"387 87 OFFCURVE",
"359 87 CURVE SMOOTH",
"239 87 LINE"
);
},
{
closed = 1;
nodes = (
"227 705 LINE",
"197 705 OFFCURVE",
"107 710 OFFCURVE",
"107 710 CURVE",
"91 635 LINE",
"152 623 LINE",
"152 608 OFFCURVE",
"151 562 OFFCURVE",
"144 512 CURVE SMOOTH",
"93 163 LINE SMOOTH",
"90 143 OFFCURVE",
"77 92 OFFCURVE",
"72 77 CURVE",
"7 65 LINE",
"2 -5 LINE",
"2 -5 OFFCURVE",
"122 0 OFFCURVE",
"152 0 CURVE",
"239 67 LINE",
"240 82 OFFCURVE",
"245 143 OFFCURVE",
"253 193 CURVE SMOOTH",
"303 542 LINE SMOOTH",
"306 562 OFFCURVE",
"320 618 OFFCURVE",
"324 633 CURVE"
);
},
{
closed = 1;
nodes = (
"328 316 LINE SMOOTH",
"348 316 OFFCURVE",
"373 312 OFFCURVE",
"388 310 CURVE",
"388 250 LINE",
"452 256 LINE",
"452 256 OFFCURVE",
"460 333 OFFCURVE",
"468 383 CURVE SMOOTH",
"471 403 OFFCURVE",
"481 466 OFFCURVE",
"481 466 CURVE",
"420 471 LINE",
"401 404 LINE",
"391 402 OFFCURVE",
"369 398 OFFCURVE",
"359 398 CURVE SMOOTH",
"244 398 LINE",
"233 316 LINE"
);
}
);
width = 597;
}
);
leftKerningGroup = H;
rightKerningGroup = E;
unicode = 0045;
},
{
color = 1;
glyphname = Eng;
lastChange = "2018-05-29 07:43:28 +0000";
layers = (
{
annotations = (
{
position = "{625, -5}";
type = Text;
}
);
background = {
paths = (
{
closed = 1;
nodes = (
"736 657 LINE",
"657 641 LINE",
"653 622 OFFCURVE",
"642 568 OFFCURVE",
"642 528 CURVE SMOOTH",
"642 297 LINE SMOOTH",
"642 257 OFFCURVE",
"641 -7 OFFCURVE",
"641 -7 CURVE",
"642 -34 OFFCURVE",
"569 -143 OFFCURVE",
"529 -200 CURVE",
"495 -178 LINE",
"495 -178 OFFCURVE",
"562 -34 OFFCURVE",
"573 4 CURVE",
"187 556 LINE",
"187 167 LINE SMOOTH",
"187 125 OFFCURVE",
"192 75 OFFCURVE",
"194 61 CURVE",
"275 54 LINE",
"268 -5 LINE",
"268 -5 OFFCURVE",
"225 0 OFFCURVE",
"145 0 CURVE SMOOTH",
"125 0 OFFCURVE",
"37 -5 OFFCURVE",
"37 -5 CURVE",
"32 45 LINE",
"111 61 LINE",
"113 74 OFFCURVE",
"120 120 OFFCURVE",
"120 137 CURVE SMOOTH",
"120 568 LINE SMOOTH",
"120 584 OFFCURVE",
"113 629 OFFCURVE",
"111 644 CURVE",
"31 656 LINE",
"36 710 LINE",
"36 710 OFFCURVE",
"132 705 OFFCURVE",
"152 706 CURVE",
"196 706 LINE",
"216 685 LINE",
"216 685 OFFCURVE",
"298 552 OFFCURVE",
"313 530 CURVE SMOOTH",
"575 163 LINE",
"575 558 LINE SMOOTH",
"575 574 OFFCURVE",
"569 623 OFFCURVE",
"566 641 CURVE",
"487 647 LINE",
"493 707 LINE",
"575 705 LINE SMOOTH",
"654 705 OFFCURVE",
"731 710 OFFCURVE",
"731 710 CURVE"
);
}
);
};
components = (
{
name = N;
}
);
layerId = UUID0;
paths = (
{
closed = 1;
nodes = (
"571 -14 OFFCURVE",
"490 -178 OFFCURVE",
"490 -178 CURVE",
"524 -200 LINE",
"618 -60 OFFCURVE",
"636 -27 OFFCURVE",
"636 0 CURVE",
"571 12 LINE"
);
}
);
width = 762;
},
{
background = {
paths = (
{
closed = 1;
nodes = (
"778 629 LINE",
"712 623 LINE",
"710 611 OFFCURVE",
"703 562 OFFCURVE",
"703 542 CURVE SMOOTH",
"703 193 LINE SMOOTH",
"703 143 OFFCURVE",
"703 0 OFFCURVE",
"703 0 CURVE",
"707 -31 OFFCURVE",
"631 -115 OFFCURVE",
"546 -200 CURVE",
"492 -169 LINE",
"492 -169 OFFCURVE",
"564 -19 OFFCURVE",
"568 0 CURVE",
"243 450 LINE",
"243 193 LINE SMOOTH",
"243 143 OFFCURVE",
"251 87 OFFCURVE",
"252 77 CURVE",
"317 71 LINE",
"312 -5 LINE",
"312 -5 OFFCURVE",
"259 0 OFFCURVE",
"146 0 CURVE SMOOTH",
"99 0 OFFCURVE",
"46 -5 OFFCURVE",
"46 -5 CURVE",
"41 65 LINE",
"107 77 LINE",
"109 88 OFFCURVE",
"116 143 OFFCURVE",
"116 163 CURVE SMOOTH",
"116 512 LINE SMOOTH",
"116 562 OFFCURVE",
"109 612 OFFCURVE",
"107 623 CURVE",
"42 635 LINE",
"47 710 LINE",
"47 710 OFFCURVE",
"100 705 OFFCURVE",
"147 705 CURVE",
"249 705 LINE",
"268 685 LINE",
"268 685 OFFCURVE",
"341 559 OFFCURVE",
"356 537 CURVE SMOOTH",
"576 230 LINE",
"576 512 LINE SMOOTH",
"576 549 OFFCURVE",
"569 607 OFFCURVE",
"567 623 CURVE",
"502 635 LINE",
"507 710 LINE",
"607 705 LINE SMOOTH",
"688 705 OFFCURVE",
"773 710 OFFCURVE",
"773 710 CURVE"
);
}
);
};
components = (
{
name = N;
}
);
layerId = "16643525-C5DD-48EC-8E99-463BF28F5E85";
paths = (
{
closed = 1;
nodes = (
"685 0 LINE",
"685 -31 OFFCURVE",
"613 -115 OFFCURVE",
"528 -200 CURVE",
"474 -169 LINE",
"474 -169 OFFCURVE",
"546 -19 OFFCURVE",
"550 0 CURVE"
);
}
);
width = 795;
},
{
background = {
paths = (
{
closed = 1;
nodes = (
"786 657 LINE",
"707 641 LINE",
"700 622 OFFCURVE",
"681 568 OFFCURVE",
"675 528 CURVE SMOOTH",
"641 297 LINE SMOOTH",
"635 257 OFFCURVE",
"596 -7 OFFCURVE",
"596 -7 CURVE",
"593 -34 OFFCURVE",
"507 -143 OFFCURVE",
"460 -200 CURVE",
"430 -178 LINE",
"430 -178 OFFCURVE",
"516 -34 OFFCURVE",
"533 4 CURVE",
"238 556 LINE",
"181 167 LINE SMOOTH",
"175 125 OFFCURVE",
"173 75 OFFCURVE",
"173 61 CURVE",
"250 54 LINE",
"235 -5 LINE",
"235 -5 OFFCURVE",
"194 0 OFFCURVE",
"116 0 CURVE SMOOTH",
"97 0 OFFCURVE",
"11 -5 OFFCURVE",
"11 -5 CURVE",
"14 45 LINE",
"92 61 LINE",
"96 74 OFFCURVE",
"110 120 OFFCURVE",
"112 137 CURVE SMOOTH",
"175 568 LINE SMOOTH",
"177 584 OFFCURVE",
"177 629 OFFCURVE",
"177 644 CURVE",
"102 656 LINE",
"115 710 LINE",
"115 710 OFFCURVE",
"207 705 OFFCURVE",
"226 706 CURVE",
"269 706 LINE",
"285 685 LINE",
"285 685 OFFCURVE",
"346 552 OFFCURVE",
"356 530 CURVE SMOOTH",
"557 163 LINE",
"614 558 LINE SMOOTH",
"617 574 OFFCURVE",
"619 623 OFFCURVE",
"619 641 CURVE",
"542 647 LINE",
"557 707 LINE",
"636 705 LINE SMOOTH",
"713 705 OFFCURVE",
"789 710 OFFCURVE",
"789 710 CURVE"
);
}
);
};
components = (
{
name = N;
}
);
layerId = "08C09966-8326-41C9-AE3D-74AAC6FC1D13";
paths = (
{
closed = 1;
nodes = (
"598 0 LINE",
"591 -39 OFFCURVE",
"507 -143 OFFCURVE",
"460 -200 CURVE",
"430 -178 LINE",
"430 -178 OFFCURVE",
"516 -33 OFFCURVE",
"533 5 CURVE"
);
}
);
width = 747;
},
{
background = {
paths = (
{
closed = 1;
nodes = (
"816 629 LINE",
"751 623 LINE",
"747 611 OFFCURVE",
"733 562 OFFCURVE",
"730 542 CURVE SMOOTH",
"679 193 LINE SMOOTH",
"672 143 OFFCURVE",
"651 0 OFFCURVE",
"651 0 CURVE",
"650 -31 OFFCURVE",
"564 -115 OFFCURVE",
"469 -200 CURVE",
"421 -169 LINE",
"421 -169 OFFCURVE",
"513 -19 OFFCURVE",
"520 0 CURVE",
"271 450 LINE",
"233 193 LINE SMOOTH",
"226 143 OFFCURVE",
"225 87 OFFCURVE",
"224 77 CURVE",
"286 71 LINE",
"271 -5 LINE",
"271 -5 OFFCURVE",
"220 0 OFFCURVE",
"110 0 CURVE SMOOTH",
"65 0 OFFCURVE",
"12 -5 OFFCURVE",
"12 -5 CURVE",
"18 65 LINE",
"84 77 LINE",
"88 88 OFFCURVE",
"102 143 OFFCURVE",
"105 163 CURVE SMOOTH",
"156 512 LINE SMOOTH",
"163 562 OFFCURVE",
"164 612 OFFCURVE",
"164 623 CURVE",
"103 635 LINE",
"118 710 LINE",
"118 710 OFFCURVE",
"169 705 OFFCURVE",
"214 705 CURVE",
"313 705 LINE",
"329 685 LINE",
"329 685 OFFCURVE",
"382 559 OFFCURVE",
"392 537 CURVE SMOOTH",
"562 230 LINE",
"603 512 LINE SMOOTH",
"608 549 OFFCURVE",
"610 607 OFFCURVE",
"610 623 CURVE",
"549 635 LINE",
"565 710 LINE",
"661 705 LINE SMOOTH",
"739 705 OFFCURVE",
"823 710 OFFCURVE",
"823 710 CURVE"
);
}
);
};
components = (
{
name = N;
}
);
layerId = "B953D09C-6DD0-450A-A78C-8C2188DD4016";
paths = (
{
closed = 1;
nodes = (
"654 0 LINE",
"651 -31 OFFCURVE",
"564 -115 OFFCURVE",
"469 -200 CURVE",
"421 -169 LINE",
"421 -169 OFFCURVE",
"515 -19 OFFCURVE",
"517 0 CURVE"
);
}
);
width = 777;
}
);
leftKerningGroup = H;
unicode = 014A;
},
{
color = 1;
glyphname = Eth;
lastChange = "2018-05-29 07:43:42 +0000";
layers = (
{
background = {
paths = (
{
closed = 1;
nodes = (
"55 656 LINE",
"132 644 LINE",
"134 631 OFFCURVE",
"141 585 OFFCURVE",
"141 568 CURVE SMOOTH",
"141 380 LINE",
"53 380 LINE",
"53 337 LINE",
"141 337 LINE",
"141 137 LINE SMOOTH",
"141 120 OFFCURVE",
"134 74 OFFCURVE",
"132 61 CURVE",
"53 45 LINE",
"58 -5 LINE",
"58 -5 OFFCURVE",
"155 0 OFFCURVE",
"176 0 CURVE SMOOTH",
"236 0 OFFCURVE",
"305 -6 OFFCURVE",
"345 -6 CURVE SMOOTH",
"561 -6 OFFCURVE",
"690 139 OFFCURVE",
"690 352 CURVE SMOOTH",
"690 575 OFFCURVE",
"568 715 OFFCURVE",
"345 715 CURVE SMOOTH",
"279 715 OFFCURVE",
"222 707 OFFCURVE",
"158 705 CURVE",
"124 707 OFFCURVE",
"60 710 OFFCURVE",
"60 710 CURVE"
);
},
{
closed = 1;
nodes = (
"232 337 LINE",
"370 337 LINE",
"375 380 LINE",
"232 380 LINE",
"232 538 LINE SMOOTH",
"232 578 OFFCURVE",
"237 631 OFFCURVE",
"239 650 CURVE",
"264 653 OFFCURVE",
"300 655 OFFCURVE",
"346 655 CURVE SMOOTH",
"513 655 OFFCURVE",
"591 519 OFFCURVE",
"591 352 CURVE SMOOTH",
"591 187 OFFCURVE",
"513 53 OFFCURVE",
"346 53 CURVE SMOOTH",
"302 53 OFFCURVE",
"265 55 OFFCURVE",
"239 57 CURVE",
"238 61 OFFCURVE",
"232 119 OFFCURVE",
"232 167 CURVE SMOOTH"
);
}
);
};
components = (
{
name = D;
transform = "{1, 0, 0, 1, 15, 0}";
}
);
layerId = UUID0;
paths = (
{
closed = 1;
nodes = (
"370 337 LINE",
"375 380 LINE",
"53 380 LINE",
"53 337 LINE"
);
}
);
width = 743;
},
{
background = {
paths = (
{
closed = 1;
nodes = (
"54 635 LINE",
"119 623 LINE",
"119 623 OFFCURVE",
"128 562 OFFCURVE",
"128 512 CURVE SMOOTH",
"128 395 LINE",
"59 395 LINE",
"59 322 LINE",
"128 322 LINE",
"128 163 LINE SMOOTH",
"128 143 OFFCURVE",
"119 77 OFFCURVE",
"119 77 CURVE",
"53 65 LINE",
"58 -5 LINE",
"58 -5 OFFCURVE",
"111 0 OFFCURVE",
"158 0 CURVE SMOOTH",
"218 0 OFFCURVE",
"305 -6 OFFCURVE",
"368 -6 CURVE SMOOTH",
"600 -6 OFFCURVE",
"720 141 OFFCURVE",
"720 352 CURVE SMOOTH",
"720 567 OFFCURVE",
"600 715 OFFCURVE",
"368 715 CURVE SMOOTH",
"319 715 OFFCURVE",
"207 705 OFFCURVE",
"159 705 CURVE",
"112 705 OFFCURVE",
"59 710 OFFCURVE",
"59 710 CURVE"
);
},
{
closed = 1;
nodes = (
"283 322 LINE",
"376 322 LINE",
"381 395 LINE",
"283 395 LINE",
"283 542 LINE SMOOTH",
"283 558 OFFCURVE",
"286 607 OFFCURVE",
"287 624 CURVE",
"310 628 OFFCURVE",
"334 632 OFFCURVE",
"354 632 CURVE SMOOTH",
"501 632 OFFCURVE",
"553 506 OFFCURVE",
"553 354 CURVE SMOOTH",
"553 199 OFFCURVE",
"502 77 OFFCURVE",
"352 77 CURVE SMOOTH",
"325 77 OFFCURVE",
"298 79 OFFCURVE",
"287 80 CURVE",
"286 92 OFFCURVE",
"283 149 OFFCURVE",
"283 193 CURVE SMOOTH"
);
}
);
};
components = (
{
name = D;
transform = "{1, 0, 0, 1, 11, 0}";
}
);
layerId = "16643525-C5DD-48EC-8E99-463BF28F5E85";
paths = (
{
closed = 1;
nodes = (
"376 322 LINE",
"381 395 LINE",
"59 395 LINE",
"59 322 LINE"
);
}
);
width = 756;
},
{
background = {
paths = (
{
closed = 1;
nodes = (
"118 656 LINE",
"190 644 LINE",
"190 631 OFFCURVE",
"190 585 OFFCURVE",
"188 568 CURVE SMOOTH",
"160 380 LINE",
"75 380 LINE",
"69 337 LINE",
"154 337 LINE",
"125 137 LINE SMOOTH",
"123 120 OFFCURVE",
"109 74 OFFCURVE",
"105 61 CURVE",
"27 45 LINE",
"24 -5 LINE",
"24 -5 OFFCURVE",
"119 0 OFFCURVE",
"139 0 CURVE SMOOTH",
"197 0 OFFCURVE",
"263 -6 OFFCURVE",
"302 -6 CURVE SMOOTH",
"538 -6 OFFCURVE",
"695 169 OFFCURVE",
"695 417 CURVE SMOOTH",
"695 600 OFFCURVE",
"596 715 OFFCURVE",
"407 715 CURVE SMOOTH",
"343 715 OFFCURVE",
"287 707 OFFCURVE",
"225 705 CURVE",
"192 707 OFFCURVE",
"131 710 OFFCURVE",
"131 710 CURVE"
);
},
{
closed = 1;
nodes = (
"242 337 LINE",
"376 337 LINE",
"387 380 LINE",
"248 380 LINE",
"271 538 LINE SMOOTH",
"277 578 OFFCURVE",
"290 631 OFFCURVE",
"295 650 CURVE",
"319 653 OFFCURVE",
"355 655 OFFCURVE",
"400 655 CURVE SMOOTH",
"538 655 OFFCURVE",
"599 547 OFFCURVE",
"599 411 CURVE SMOOTH",
"599 224 OFFCURVE",
"501 53 OFFCURVE",
"312 53 CURVE SMOOTH",
"269 53 OFFCURVE",
"233 55 OFFCURVE",
"208 57 CURVE",
"208 61 OFFCURVE",
"210 119 OFFCURVE",
"217 167 CURVE SMOOTH"
);
}
);
};
components = (
{
name = D;
transform = "{1, 0, 0, 1, 14, 0}";
}
);
layerId = "08C09966-8326-41C9-AE3D-74AAC6FC1D13";
paths = (
{
closed = 1;
nodes = (
"75 380 LINE",
"69 337 LINE",
"376 337 LINE",
"387 380 LINE"
);
}
);
width = 729;
},
{
components = (
{
name = D;
transform = "{1, 0, 0, 1, 12, 0}";
}
);
layerId = "B953D09C-6DD0-450A-A78C-8C2188DD4016";
paths = (
{
closed = 1;
nodes = (
"65 322 LINE",
"371 322 LINE",
"387 395 LINE",
"75 395 LINE"
);
}
);
width = 741;
}
);
unicode = 00D0;
},
{
color = 0;
glyphname = F;
lastChange = "2018-05-29 07:25:27 +0000";
layers = (
{
background = {
paths = (
{
closed = 1;
nodes = (
"38 656 LINE",
"115 644 LINE",
"117 631 OFFCURVE",
"124 585 OFFCURVE",
"124 568 CURVE SMOOTH",
"124 137 LINE SMOOTH",
"124 120 OFFCURVE",
"117 74 OFFCURVE",
"115 61 CURVE",
"36 45 LINE",
"41 -5 LINE",
"41 -5 OFFCURVE",
"151 0 OFFCURVE",
"176 0 CURVE SMOOTH",
"256 0 OFFCURVE",
"315 0 OFFCURVE",
"315 0 CURVE",
"322 54 LINE",
"222 61 LINE",
"220 75 OFFCURVE",
"215 125 OFFCURVE",
"215 167 CURVE SMOOTH",
"215 330 LINE",
"311 330 LINE",
"331 330 OFFCURVE",
"391 324 OFFCURVE",
"391 324 CURVE",
"400 257 LINE",
"448 263 LINE",
"448 263 OFFCURVE",
"445 322 OFFCURVE",
"445 372 CURVE SMOOTH",
"445 392 OFFCURVE",
"446 456 OFFCURVE",
"446 456 CURVE",
"400 461 LINE",
"391 395 LINE",
"391 395 OFFCURVE",
"351 386 OFFCURVE",
"331 386 CURVE",
"215 386 LINE",
"215 538 LINE SMOOTH",
"215 577 OFFCURVE",
"220 628 OFFCURVE",
"222 649 CURVE",
"353 649 LINE SMOOTH",
"381 649 OFFCURVE",
"412 646 OFFCURVE",
"434 644 CURVE",
"444 631 OFFCURVE",
"453 617 OFFCURVE",
"454 610 CURVE",
"458 595 OFFCURVE",
"463 572 OFFCURVE",
"465 556 CURVE",
"523 561 LINE",
"516 692 LINE",
"497 710 LINE",
"497 710 OFFCURVE",
"403 705 OFFCURVE",
"383 705 CURVE SMOOTH",
"158 705 LINE SMOOTH",
"138 705 OFFCURVE",
"43 710 OFFCURVE",
"43 710 CURVE"
);
}
);
};
layerId = UUID0;
paths = (
{
closed = 1;
nodes = (
"38 656 LINE",
"115 644 LINE",
"117 631 OFFCURVE",
"124 585 OFFCURVE",
"124 568 CURVE SMOOTH",
"124 137 LINE SMOOTH",
"124 120 OFFCURVE",
"117 74 OFFCURVE",
"115 61 CURVE",
"36 45 LINE",
"41 -5 LINE",
"41 -5 OFFCURVE",
"151 0 OFFCURVE",
"176 0 CURVE SMOOTH",
"256 0 OFFCURVE",
"315 0 OFFCURVE",
"315 0 CURVE",
"322 54 LINE",
"222 61 LINE",
"220 75 OFFCURVE",
"215 125 OFFCURVE",
"215 167 CURVE",
"215 538 LINE",
"215 577 OFFCURVE",
"220 628 OFFCURVE",
"222 649 CURVE",
"353 649 LINE SMOOTH",
"381 649 OFFCURVE",
"412 646 OFFCURVE",
"434 644 CURVE",
"444 631 OFFCURVE",
"453 617 OFFCURVE",
"454 610 CURVE",
"458 595 OFFCURVE",
"463 572 OFFCURVE",
"465 556 CURVE",
"523 561 LINE",
"516 692 LINE",
"497 710 LINE",
"497 710 OFFCURVE",
"403 705 OFFCURVE",
"383 705 CURVE SMOOTH",
"158 705 LINE SMOOTH",
"138 705 OFFCURVE",
"43 710 OFFCURVE",
"43 710 CURVE"
);
},
{
closed = 1;
nodes = (
"205 330 LINE",
"311 330 LINE SMOOTH",
"331 330 OFFCURVE",
"382 325 OFFCURVE",
"391 324 CURVE",
"400 257 LINE",
"448 263 LINE",
"448 263 OFFCURVE",
"445 322 OFFCURVE",
"445 372 CURVE SMOOTH",
"445 392 OFFCURVE",
"446 456 OFFCURVE",
"446 456 CURVE",
"400 461 LINE",
"391 392 LINE",
"386 391 OFFCURVE",
"351 386 OFFCURVE",
"331 386 CURVE SMOOTH",
"205 386 LINE"
);
}
);
width = 558;
},
{
background = {
paths = (
{
closed = 1;
nodes = (
"268 623 LINE",
"378 623 LINE SMOOTH",
"408 623 OFFCURVE",
"438 620 OFFCURVE",
"458 618 CURVE",
"462 608 OFFCURVE",
"466 599 OFFCURVE",
"467 595 CURVE",
"471 580 OFFCURVE",
"474 552 OFFCURVE",
"476 536 CURVE",
"548 541 LINE",
"541 692 LINE",
"522 710 LINE",
"522 710 OFFCURVE",
"428 705 OFFCURVE",
"408 705 CURVE SMOOTH",
"160 705 LINE"
);
},
{
closed = 1;
nodes = (
"160 705 LINE",
"130 705 OFFCURVE",
"40 710 OFFCURVE",
"40 710 CURVE",
"35 635 LINE",
"100 623 LINE",
"102 607 OFFCURVE",
"109 562 OFFCURVE",
"109 542 CURVE SMOOTH",
"109 163 LINE SMOOTH",
"109 143 OFFCURVE",
"101 87 OFFCURVE",
"100 77 CURVE",
"34 65 LINE",
"39 -5 LINE",
"39 -5 OFFCURVE",
"159 0 OFFCURVE",
"189 0 CURVE",
"363 0 LINE",
"368 71 LINE",
"273 77 LINE",
"271 91 OFFCURVE",
"264 153 OFFCURVE",
"264 193 CURVE SMOOTH",
"264 512 LINE SMOOTH",
"264 552 OFFCURVE",
"268 618 OFFCURVE",
"271 643 CURVE"
);
},
{
closed = 1;
nodes = (
"326 305 LINE SMOOTH",
"346 305 OFFCURVE",
"380 302 OFFCURVE",
"390 301 CURVE",
"399 239 LINE",
"463 245 LINE",
"463 245 OFFCURVE",
"460 322 OFFCURVE",
"460 372 CURVE SMOOTH",
"460 392 OFFCURVE",
"461 455 OFFCURVE",
"461 455 CURVE",
"399 460 LINE",
"390 393 LINE",
"382 391 OFFCURVE",
"356 387 OFFCURVE",
"346 387 CURVE SMOOTH",
"254 387 LINE",
"254 305 LINE"
);
}
);
};
layerId = "16643525-C5DD-48EC-8E99-463BF28F5E85";
paths = (
{
closed = 1;
nodes = (
"268 623 LINE",
"378 623 LINE SMOOTH",
"408 623 OFFCURVE",
"438 620 OFFCURVE",
"458 618 CURVE",
"462 608 OFFCURVE",
"466 599 OFFCURVE",
"467 595 CURVE",
"471 580 OFFCURVE",
"474 552 OFFCURVE",
"476 536 CURVE",
"548 541 LINE",
"541 692 LINE",
"522 710 LINE",
"522 710 OFFCURVE",
"428 705 OFFCURVE",
"408 705 CURVE SMOOTH",
"160 705 LINE"
);
},
{
closed = 1;
nodes = (
"160 705 LINE",
"130 705 OFFCURVE",
"40 710 OFFCURVE",
"40 710 CURVE",
"35 635 LINE",
"100 623 LINE",
"102 607 OFFCURVE",
"109 562 OFFCURVE",
"109 542 CURVE SMOOTH",
"109 163 LINE SMOOTH",
"109 143 OFFCURVE",
"101 87 OFFCURVE",
"100 77 CURVE",
"34 65 LINE",
"39 -5 LINE",
"39 -5 OFFCURVE",
"159 0 OFFCURVE",
"189 0 CURVE",
"363 0 LINE",
"368 71 LINE",
"273 77 LINE",
"271 91 OFFCURVE",
"264 153 OFFCURVE",
"264 193 CURVE SMOOTH",
"264 512 LINE SMOOTH",
"264 552 OFFCURVE",
"268 618 OFFCURVE",
"271 643 CURVE"
);
},
{
closed = 1;
nodes = (
"326 305 LINE SMOOTH",
"346 305 OFFCURVE",
"380 302 OFFCURVE",
"390 301 CURVE",
"399 239 LINE",
"463 245 LINE",
"463 245 OFFCURVE",
"460 322 OFFCURVE",
"460 372 CURVE SMOOTH",
"460 392 OFFCURVE",
"461 455 OFFCURVE",
"461 455 CURVE",
"399 460 LINE",
"390 391 LINE",
"377 389 OFFCURVE",
"356 387 OFFCURVE",
"346 387 CURVE SMOOTH",
"254 387 LINE",
"254 305 LINE"
);
}
);
width = 574;
},
{
background = {
paths = (
{
closed = 1;
nodes = (
"404 649 LINE SMOOTH",
"431 649 OFFCURVE",
"461 646 OFFCURVE",
"482 644 CURVE",
"490 631 OFFCURVE",
"495 617 OFFCURVE",
"496 610 CURVE SMOOTH",
"498 595 OFFCURVE",
"499 572 OFFCURVE",
"499 556 CURVE",
"556 561 LINE",
"569 692 LINE",
"553 710 LINE",
"553 710 OFFCURVE",
"461 705 OFFCURVE",
"441 705 CURVE SMOOTH",
"227 705 LINE",
"278 649 LINE"
);
},
{
closed = 1;
nodes = (
"227 705 LINE",
"207 705 OFFCURVE",
"112 710 OFFCURVE",
"112 710 CURVE",
"99 656 LINE",
"172 644 LINE",
"172 631 OFFCURVE",
"171 583 OFFCURVE",
"169 568 CURVE SMOOTH",
"106 137 LINE SMOOTH",
"104 122 OFFCURVE",
"90 74 OFFCURVE",
"87 61 CURVE",
"8 45 LINE",
"6 -5 LINE",
"6 -5 OFFCURVE",
"116 0 OFFCURVE",
"141 0 CURVE SMOOTH",
"220 0 OFFCURVE",
"274 0 OFFCURVE",
"274 0 CURVE",
"288 54 LINE",
"193 61 LINE",
"193 75 OFFCURVE",
"198 137 OFFCURVE",
"202 167 CURVE SMOOTH",
"256 538 LINE SMOOTH",
"260 568 OFFCURVE",
"274 632 OFFCURVE",
"278 649 CURVE"
);
},
{
closed = 1;
nodes = (
"214 329 LINE",
"315 329 LINE SMOOTH",
"334 329 OFFCURVE",
"391 323 OFFCURVE",
"391 323 CURVE",
"388 256 LINE",
"436 262 LINE",
"436 262 OFFCURVE",
"443 321 OFFCURVE",
"451 371 CURVE SMOOTH",
"454 391 OFFCURVE",
"466 455 OFFCURVE",
"466 455 CURVE",
"421 460 LINE",
"401 394 LINE",
"401 394 OFFCURVE",
"362 385 OFFCURVE",
"342 385 CURVE SMOOTH",
"224 385 LINE"
);
}
);
};
guideLines = (
{
position = "{88, 372}";
}
);
layerId = "08C09966-8326-41C9-AE3D-74AAC6FC1D13";
paths = (
{
closed = 1;
nodes = (
"404 649 LINE SMOOTH",
"431 649 OFFCURVE",
"461 646 OFFCURVE",
"482 644 CURVE",
"490 631 OFFCURVE",
"495 617 OFFCURVE",
"496 610 CURVE SMOOTH",
"498 595 OFFCURVE",
"499 572 OFFCURVE",
"499 556 CURVE",
"556 561 LINE",
"569 692 LINE",
"553 710 LINE",
"553 710 OFFCURVE",
"461 705 OFFCURVE",
"441 705 CURVE SMOOTH",
"227 705 LINE",
"278 649 LINE"
);
},
{
closed = 1;
nodes = (
"227 705 LINE",
"207 705 OFFCURVE",
"112 710 OFFCURVE",
"112 710 CURVE",
"99 656 LINE",
"172 644 LINE",
"172 631 OFFCURVE",
"171 583 OFFCURVE",
"169 568 CURVE SMOOTH",
"106 137 LINE SMOOTH",
"104 122 OFFCURVE",
"90 74 OFFCURVE",
"87 61 CURVE",
"8 45 LINE",
"6 -5 LINE",
"6 -5 OFFCURVE",
"116 0 OFFCURVE",
"141 0 CURVE SMOOTH",
"220 0 OFFCURVE",
"274 0 OFFCURVE",
"274 0 CURVE",
"288 54 LINE",
"193 61 LINE",
"193 75 OFFCURVE",
"198 137 OFFCURVE",
"202 167 CURVE SMOOTH",
"256 538 LINE SMOOTH",
"260 568 OFFCURVE",
"274 632 OFFCURVE",
"278 649 CURVE"
);
},
{
closed = 1;
nodes = (
"214 329 LINE",
"315 329 LINE SMOOTH",
"335 329 OFFCURVE",
"380 324 OFFCURVE",
"391 323 CURVE",
"388 256 LINE",
"436 262 LINE",
"436 262 OFFCURVE",
"443 321 OFFCURVE",
"451 371 CURVE SMOOTH",
"454 391 OFFCURVE",
"466 455 OFFCURVE",
"466 455 CURVE",
"421 460 LINE",
"400 391 LINE",
"386 389 OFFCURVE",
"352 385 OFFCURVE",
"342 385 CURVE SMOOTH",
"224 385 LINE"
);
}
);
width = 547;
},
{
background = {
paths = (
{
closed = 1;
nodes = (
"424 623 LINE SMOOTH",
"454 623 OFFCURVE",
"482 620 OFFCURVE",
"501 618 CURVE",
"503 608 OFFCURVE",
"505 599 OFFCURVE",
"506 595 CURVE",
"507 580 OFFCURVE",
"506 552 OFFCURVE",
"506 536 CURVE",
"577 541 LINE",
"593 692 LINE",
"577 710 LINE",
"577 710 OFFCURVE",
"485 705 OFFCURVE",
"465 705 CURVE SMOOTH",
"227 705 LINE",
"219 623 LINE"
);
},
{
closed = 1;
nodes = (
"327 305 LINE SMOOTH",
"347 305 OFFCURVE",
"372 303 OFFCURVE",
"387 301 CURVE",
"387 239 LINE",
"451 245 LINE",
"451 245 OFFCURVE",
"459 322 OFFCURVE",
"467 372 CURVE SMOOTH",
"469 392 OFFCURVE",
"480 455 OFFCURVE",
"480 455 CURVE",
"419 460 LINE",
"400 393 LINE",
"390 391 OFFCURVE",
"368 387 OFFCURVE",
"358 387 CURVE SMOOTH",
"243 387 LINE",
"232 305 LINE"
);
},
{
closed = 1;
nodes = (
"303 542 LINE SMOOTH",
"306 562 OFFCURVE",
"320 618 OFFCURVE",
"324 633 CURVE",
"227 705 LINE",
"197 705 OFFCURVE",
"107 710 OFFCURVE",
"107 710 CURVE",
"91 635 LINE",
"152 623 LINE",
"152 608 OFFCURVE",
"151 562 OFFCURVE",
"144 512 CURVE SMOOTH",
"93 163 LINE SMOOTH",
"90 143 OFFCURVE",
"77 92 OFFCURVE",
"72 77 CURVE",
"7 65 LINE",
"2 -5 LINE",
"2 -5 OFFCURVE",
"122 0 OFFCURVE",
"152 0 CURVE",
"290 0 LINE",
"305 70 LINE",
"244 77 LINE",
"244 92 OFFCURVE",
"245 143 OFFCURVE",
"253 193 CURVE SMOOTH"
);
}
);
};
layerId = "B953D09C-6DD0-450A-A78C-8C2188DD4016";
paths = (
{
closed = 1;
nodes = (
"424 623 LINE SMOOTH",
"454 623 OFFCURVE",
"482 620 OFFCURVE",
"501 618 CURVE",
"503 608 OFFCURVE",
"505 599 OFFCURVE",
"506 595 CURVE",
"507 580 OFFCURVE",
"506 552 OFFCURVE",
"506 536 CURVE",
"577 541 LINE",
"593 692 LINE",
"577 710 LINE",
"577 710 OFFCURVE",
"485 705 OFFCURVE",
"465 705 CURVE SMOOTH",
"227 705 LINE",
"219 623 LINE"
);
},
{
closed = 1;
nodes = (
"303 542 LINE SMOOTH",
"306 562 OFFCURVE",
"320 618 OFFCURVE",
"324 633 CURVE",
"227 705 LINE",
"197 705 OFFCURVE",
"107 710 OFFCURVE",
"107 710 CURVE",
"91 635 LINE",
"152 623 LINE",
"152 608 OFFCURVE",
"151 562 OFFCURVE",
"144 512 CURVE SMOOTH",
"93 163 LINE SMOOTH",
"90 143 OFFCURVE",
"77 92 OFFCURVE",
"72 77 CURVE",
"7 65 LINE",
"2 -5 LINE",
"2 -5 OFFCURVE",
"122 0 OFFCURVE",
"152 0 CURVE",
"290 0 LINE",
"305 70 LINE",
"244 77 LINE",
"244 92 OFFCURVE",
"245 143 OFFCURVE",
"253 193 CURVE SMOOTH"
);
},
{
closed = 1;
nodes = (
"327 305 LINE SMOOTH",
"347 305 OFFCURVE",
"372 301 OFFCURVE",
"387 299 CURVE",
"387 239 LINE",
"451 245 LINE",
"451 245 OFFCURVE",
"459 322 OFFCURVE",
"467 372 CURVE SMOOTH",
"470 392 OFFCURVE",
"480 455 OFFCURVE",
"480 455 CURVE",
"419 460 LINE",
"400 393 LINE",
"390 391 OFFCURVE",
"368 387 OFFCURVE",
"358 387 CURVE SMOOTH",
"243 387 LINE",
"232 305 LINE"
);
}
);
width = 561;
}
);
leftKerningGroup = H;
rightKerningGroup = F;
unicode = 0046;
},
{
color = 0;
glyphname = G;
lastChange = "2018-05-29 07:25:27 +0000";
layers = (
{
anchors = (
{
name = bottom;
position = "{408, 0}";
},
{
name = top;
position = "{406, 720}";
}
);
layerId = UUID0;
paths = (
{
closed = 1;
nodes = (
"537 619 OFFCURVE",
"543 598 OFFCURVE",
"543 589 CURVE SMOOTH",
"543 542 LINE",
"602 538 LINE",
"612 686 LINE",
"545 702 OFFCURVE",
"479 720 OFFCURVE",
"392 720 CURVE SMOOTH",
"171 720 OFFCURVE",
"58 570 OFFCURVE",
"58 352 CURVE SMOOTH",
"58 134 OFFCURVE",
"171 -15 OFFCURVE",
"392 -15 CURVE SMOOTH",
"478 -15 OFFCURVE",
"554 3 OFFCURVE",
"621 19 CURVE",
"621 166 LINE SMOOTH",
"621 216 OFFCURVE",
"630 319 OFFCURVE",
"630 319 CURVE",
"612 336 LINE",
"612 336 OFFCURVE",
"561 333 OFFCURVE",
"541 333 CURVE",
"430 333 LINE",
"425 275 LINE",
"531 267 LINE",
"531 267 OFFCURVE",
"541 216 OFFCURVE",
"541 196 CURVE SMOOTH",
"541 128 LINE SMOOTH",
"541 117 OFFCURVE",
"535 89 OFFCURVE",
"529 63 CURVE",
"484 51 OFFCURVE",
"429 43 OFFCURVE",
"389 43 CURVE SMOOTH",
"234 43 OFFCURVE",
"159 180 OFFCURVE",
"159 353 CURVE SMOOTH",
"159 526 OFFCURVE",
"234 662 OFFCURVE",
"389 662 CURVE SMOOTH",
"432 662 OFFCURVE",
"487 652 OFFCURVE",
"531 639 CURVE"
);
}
);
width = 702;
},
{
anchors = (
{
name = bottom;
position = "{414, 0}";
},
{
name = top;
position = "{411, 720}";
}
);
background = {
paths = (
{
closed = 1;
nodes = (
"542 600 OFFCURVE",
"549 578 OFFCURVE",
"549 572 CURVE SMOOTH",
"552 525 LINE",
"629 521 LINE",
"641 686 LINE",
"572 704 OFFCURVE",
"503 720 OFFCURVE",
"412 720 CURVE SMOOTH",
"169 720 OFFCURVE",
"45 570 OFFCURVE",
"45 352 CURVE SMOOTH",
"45 134 OFFCURVE",
"169 -15 OFFCURVE",
"412 -15 CURVE SMOOTH",
"502 -15 OFFCURVE",
"581 3 OFFCURVE",
"650 19 CURVE",
"650 196 LINE SMOOTH",
"650 246 OFFCURVE",
"659 341 OFFCURVE",
"659 341 CURVE",
"631 366 LINE",
"631 366 OFFCURVE",
"549 363 OFFCURVE",
"516 363 CURVE",
"405 363 LINE",
"400 265 LINE",
"506 257 LINE",
"506 257 OFFCURVE",
"516 216 OFFCURVE",
"516 196 CURVE SMOOTH",
"516 128 LINE SMOOTH",
"516 120 OFFCURVE",
"513 104 OFFCURVE",
"509 86 CURVE",
"476 81 OFFCURVE",
"445 78 OFFCURVE",
"411 78 CURVE SMOOTH",
"277 78 OFFCURVE",
"225 200 OFFCURVE",
"225 353 CURVE SMOOTH",
"225 506 OFFCURVE",
"278 627 OFFCURVE",
"412 627 CURVE SMOOTH",
"454 627 OFFCURVE",
"493 622 OFFCURVE",
"537 613 CURVE"
);
}
);
};
layerId = "16643525-C5DD-48EC-8E99-463BF28F5E85";
paths = (
{
closed = 1;
nodes = (
"451 627 OFFCURVE",
"495 622 OFFCURVE",
"536 613 CURVE",
"541 600 OFFCURVE",
"548 578 OFFCURVE",
"548 572 CURVE SMOOTH",
"551 511 LINE",
"628 507 LINE",
"640 686 LINE",
"575 704 OFFCURVE",
"498 720 OFFCURVE",
"412 720 CURVE SMOOTH",
"169 720 OFFCURVE",
"45 570 OFFCURVE",
"45 352 CURVE SMOOTH",
"45 134 OFFCURVE",
"169 -15 OFFCURVE",
"412 -15 CURVE SMOOTH",
"502 -15 OFFCURVE",
"581 3 OFFCURVE",
"650 19 CURVE",
"650 196 LINE SMOOTH",
"650 246 OFFCURVE",
"659 341 OFFCURVE",
"659 341 CURVE",
"631 366 LINE",
"631 366 OFFCURVE",
"549 363 OFFCURVE",
"516 363 CURVE",
"405 363 LINE",
"400 265 LINE",
"506 257 LINE",
"506 257 OFFCURVE",
"516 216 OFFCURVE",
"516 196 CURVE SMOOTH",
"516 128 LINE SMOOTH",
"516 120 OFFCURVE",
"513 104 OFFCURVE",
"509 86 CURVE",
"476 81 OFFCURVE",
"445 78 OFFCURVE",
"411 78 CURVE SMOOTH",
"277 78 OFFCURVE",
"225 200 OFFCURVE",
"225 353 CURVE SMOOTH",
"225 506 OFFCURVE",
"278 627 OFFCURVE",
"412 627 CURVE SMOOTH"
);
}
);
width = 721;
},
{
anchors = (
{
name = bottom;
position = "{376, 0}";
},
{
name = top;
position = "{456, 720}";
}
);
background = {
paths = (
{
closed = 1;
nodes = (
"205 720 OFFCURVE",
"69 531 OFFCURVE",
"69 284 CURVE SMOOTH",
"69 106 OFFCURVE",
"170 -15 OFFCURVE",
"357 -15 CURVE SMOOTH",
"441 -15 OFFCURVE",
"507 3 OFFCURVE",
"575 19 CURVE",
"596 166 LINE SMOOTH",
"603 216 OFFCURVE",
"627 319 OFFCURVE",
"627 319 CURVE",
"612 336 LINE",
"612 336 OFFCURVE",
"561 333 OFFCURVE",
"541 333 CURVE",
"433 333 LINE",
"420 275 LINE",
"521 267 LINE",
"521 267 OFFCURVE",
"524 216 OFFCURVE",
"521 196 CURVE SMOOTH",
"511 128 LINE SMOOTH",
"509 117 OFFCURVE",
"499 89 OFFCURVE",
"490 63 CURVE",
"445 51 OFFCURVE",
"401 43 OFFCURVE",
"363 43 CURVE SMOOTH",
"237 43 OFFCURVE",
"171 149 OFFCURVE",
"171 287 CURVE SMOOTH",
"171 484 OFFCURVE",
"266 662 OFFCURVE",
"443 662 CURVE SMOOTH",
"485 662 OFFCURVE",
"536 651 OFFCURVE",
"577 638 CURVE",
"580 618 OFFCURVE",
"582 597 OFFCURVE",
"581 589 CURVE SMOOTH",
"575 544 LINE",
"631 538 LINE",
"663 686 LINE",
"601 702 OFFCURVE",
"539 720 OFFCURVE",
"454 720 CURVE SMOOTH"
);
}
);
};
layerId = "08C09966-8326-41C9-AE3D-74AAC6FC1D13";
paths = (
{
closed = 1;
nodes = (
"205 720 OFFCURVE",
"69 531 OFFCURVE",
"69 284 CURVE SMOOTH",
"69 106 OFFCURVE",
"170 -15 OFFCURVE",
"357 -15 CURVE SMOOTH",
"441 -15 OFFCURVE",
"507 3 OFFCURVE",
"575 19 CURVE",
"596 166 LINE SMOOTH",
"600 196 OFFCURVE",
"627 319 OFFCURVE",
"627 319 CURVE",
"612 336 LINE",
"612 336 OFFCURVE",
"561 333 OFFCURVE",
"541 333 CURVE",
"433 333 LINE",
"420 275 LINE",
"521 267 LINE",
"521 267 OFFCURVE",
"523 211 OFFCURVE",
"521 196 CURVE SMOOTH",
"500 65 LINE",
"457 53 OFFCURVE",
"403 43 OFFCURVE",
"363 43 CURVE SMOOTH",
"237 43 OFFCURVE",
"171 149 OFFCURVE",
"171 287 CURVE SMOOTH",
"171 484 OFFCURVE",
"266 662 OFFCURVE",
"443 662 CURVE SMOOTH",
"485 662 OFFCURVE",
"536 651 OFFCURVE",
"577 638 CURVE",
"580 618 OFFCURVE",
"582 597 OFFCURVE",
"581 589 CURVE SMOOTH",
"575 544 LINE",
"631 538 LINE",
"663 686 LINE",
"601 702 OFFCURVE",
"539 720 OFFCURVE",
"454 720 CURVE SMOOTH"
);
}
);
width = 690;
},
{
anchors = (
{
name = bottom;
position = "{381, 0}";
},
{
name = top;
position = "{476, 720}";
}
);
background = {
paths = (
{
closed = 1;
nodes = (
"200 720 OFFCURVE",
"56 535 OFFCURVE",
"56 290 CURVE SMOOTH",
"56 108 OFFCURVE",
"161 -15 OFFCURVE",
"369 -15 CURVE SMOOTH",
"457 -15 OFFCURVE",
"534 1 OFFCURVE",
"603 19 CURVE",
"629 196 LINE SMOOTH",
"633 226 OFFCURVE",
"658 341 OFFCURVE",
"658 341 CURVE",
"634 366 LINE",
"634 366 OFFCURVE",
"552 363 OFFCURVE",
"519 363 CURVE",
"411 363 LINE",
"392 265 LINE",
"494 257 LINE",
"494 257 OFFCURVE",
"498 216 OFFCURVE",
"495 196 CURVE SMOOTH",
"479 87 LINE",
"447 82 OFFCURVE",
"412 78 OFFCURVE",
"379 78 CURVE SMOOTH",
"275 78 OFFCURVE",
"235 168 OFFCURVE",
"235 283 CURVE SMOOTH",
"235 452 OFFCURVE",
"298 627 OFFCURVE",
"460 627 CURVE SMOOTH",
"501 627 OFFCURVE",
"534 622 OFFCURVE",
"575 613 CURVE",
"578 600 OFFCURVE",
"582 578 OFFCURVE",
"581 572 CURVE SMOOTH",
"577 525 LINE",
"654 521 LINE",
"691 686 LINE",
"627 702 OFFCURVE",
"559 720 OFFCURVE",
"470 720 CURVE SMOOTH"
);
}
);
};
layerId = "B953D09C-6DD0-450A-A78C-8C2188DD4016";
paths = (
{
closed = 1;
nodes = (
"200 720 OFFCURVE",
"56 535 OFFCURVE",
"56 290 CURVE SMOOTH",
"56 108 OFFCURVE",
"161 -15 OFFCURVE",
"369 -15 CURVE SMOOTH",
"457 -15 OFFCURVE",
"534 1 OFFCURVE",
"603 19 CURVE",
"629 196 LINE SMOOTH",
"633 226 OFFCURVE",
"658 341 OFFCURVE",
"658 341 CURVE",
"634 366 LINE",
"634 366 OFFCURVE",
"552 363 OFFCURVE",
"519 363 CURVE",
"411 363 LINE",
"392 265 LINE",
"494 257 LINE",
"494 257 OFFCURVE",
"498 216 OFFCURVE",
"495 196 CURVE SMOOTH",
"479 87 LINE",
"447 82 OFFCURVE",
"412 78 OFFCURVE",
"379 78 CURVE SMOOTH",
"275 78 OFFCURVE",
"235 168 OFFCURVE",
"235 283 CURVE SMOOTH",
"235 452 OFFCURVE",
"298 627 OFFCURVE",
"460 627 CURVE SMOOTH",
"498 627 OFFCURVE",
"538 622 OFFCURVE",
"577 613 CURVE",
"580 600 OFFCURVE",
"584 578 OFFCURVE",
"583 572 CURVE SMOOTH",
"577 511 LINE",
"652 507 LINE",
"690 686 LINE",
"629 702 OFFCURVE",
"554 720 OFFCURVE",
"470 720 CURVE SMOOTH"
);
}
);
width = 707;
}
);
leftKerningGroup = O;
rightKerningGroup = G;
unicode = 0047;
},
{
color = 0;
glyphname = H;
lastChange = "2018-05-29 07:25:28 +0000";
layers = (
{
anchors = (
{
name = bottom;
position = "{381, 0}";
},
{
name = center;
position = "{381, 520}";
},
{
name = top;
position = "{381, 720}";
}
);
background = {
paths = (
{
closed = 1;
nodes = (
"718 710 LINE",
"718 710 OFFCURVE",
"661 705 OFFCURVE",
"581 705 CURVE SMOOTH",
"561 705 OFFCURVE",
"465 710 OFFCURVE",
"465 710 CURVE",
"460 656 LINE",
"537 644 LINE",
"539 631 OFFCURVE",
"546 585 OFFCURVE",
"546 568 CURVE SMOOTH",
"546 383 LINE",
"215 378 LINE",
"215 538 LINE SMOOTH",
"215 580 OFFCURVE",
"220 630 OFFCURVE",
"222 644 CURVE",
"300 651 LINE",
"296 710 LINE",
"296 710 OFFCURVE",
"239 705 OFFCURVE",
"159 705 CURVE SMOOTH",
"139 705 OFFCURVE",
"43 710 OFFCURVE",
"43 710 CURVE",
"38 656 LINE",
"115 644 LINE",
"117 631 OFFCURVE",
"124 585 OFFCURVE",
"124 568 CURVE SMOOTH",
"124 137 LINE SMOOTH",
"124 120 OFFCURVE",
"117 74 OFFCURVE",
"115 61 CURVE",
"36 45 LINE",
"41 -5 LINE",
"41 -5 OFFCURVE",
"139 0 OFFCURVE",
"159 0 CURVE SMOOTH",
"239 0 OFFCURVE",
"305 -5 OFFCURVE",
"305 -5 CURVE",
"312 54 LINE",
"222 61 LINE",
"220 75 OFFCURVE",
"215 125 OFFCURVE",
"215 167 CURVE SMOOTH",
"215 327 LINE",
"546 327 LINE",
"546 137 LINE SMOOTH",
"546 120 OFFCURVE",
"539 74 OFFCURVE",
"537 61 CURVE",
"458 45 LINE",
"463 -5 LINE",
"463 -5 OFFCURVE",
"561 0 OFFCURVE",
"581 0 CURVE SMOOTH",
"661 0 OFFCURVE",
"727 -5 OFFCURVE",
"727 -5 CURVE",
"734 54 LINE",
"644 61 LINE",
"642 75 OFFCURVE",
"637 125 OFFCURVE",
"637 167 CURVE SMOOTH",
"637 538 LINE SMOOTH",
"637 580 OFFCURVE",
"642 630 OFFCURVE",
"644 644 CURVE",
"722 651 LINE"
);
}
);
};
layerId = UUID0;
paths = (
{
closed = 1;
nodes = (
"551 383 LINE",
"210 378 LINE",
"210 327 LINE",
"551 327 LINE"
);
},
{
closed = 1;
nodes = (
"296 710 LINE",
"296 710 OFFCURVE",
"218 705 OFFCURVE",
"158 705 CURVE SMOOTH",
"138 705 OFFCURVE",
"43 710 OFFCURVE",
"43 710 CURVE",
"38 656 LINE",
"115 644 LINE",
"117 631 OFFCURVE",
"124 585 OFFCURVE",
"124 568 CURVE SMOOTH",
"124 137 LINE SMOOTH",
"124 120 OFFCURVE",
"117 74 OFFCURVE",
"115 61 CURVE",
"36 45 LINE",
"41 -5 LINE",
"41 -5 OFFCURVE",
"151 0 OFFCURVE",
"176 0 CURVE",
"305 0 LINE",
"312 54 LINE",
"222 61 LINE",
"220 75 OFFCURVE",
"215 125 OFFCURVE",
"215 167 CURVE SMOOTH",
"215 538 LINE SMOOTH",
"215 580 OFFCURVE",
"220 630 OFFCURVE",
"222 644 CURVE",
"300 651 LINE"
);
},
{
closed = 1;
nodes = (
"718 710 LINE",
"718 710 OFFCURVE",
"640 705 OFFCURVE",
"580 705 CURVE SMOOTH",
"560 705 OFFCURVE",
"465 710 OFFCURVE",
"465 710 CURVE",
"460 656 LINE",
"537 644 LINE",
"539 631 OFFCURVE",
"546 585 OFFCURVE",
"546 568 CURVE SMOOTH",
"546 137 LINE SMOOTH",
"546 120 OFFCURVE",
"539 74 OFFCURVE",
"537 61 CURVE",
"458 45 LINE",
"463 -5 LINE",
"463 -5 OFFCURVE",
"573 0 OFFCURVE",
"598 0 CURVE",
"727 0 LINE",
"734 54 LINE",
"644 61 LINE",
"642 75 OFFCURVE",
"637 125 OFFCURVE",
"637 167 CURVE SMOOTH",
"637 538 LINE SMOOTH",
"637 580 OFFCURVE",
"642 630 OFFCURVE",
"644 644 CURVE",
"722 651 LINE"
);
}
);
width = 764;
},
{
anchors = (
{
name = bottom;
position = "{403, 0}";
},
{
name = center;
position = "{404, 520}";
},
{
name = top;
position = "{403, 720}";
}
);
background = {
paths = (
{
closed = 1;
nodes = (
"334 710 LINE",
"334 710 OFFCURVE",
"240 705 OFFCURVE",
"160 705 CURVE SMOOTH",
"130 705 OFFCURVE",
"40 710 OFFCURVE",
"40 710 CURVE",
"35 635 LINE",
"100 623 LINE",
"102 607 OFFCURVE",
"109 562 OFFCURVE",
"109 512 CURVE SMOOTH",
"109 163 LINE SMOOTH",
"109 143 OFFCURVE",
"101 87 OFFCURVE",
"100 77 CURVE",
"34 65 LINE",
"39 -5 LINE",
"39 -5 OFFCURVE",
"159 0 OFFCURVE",
"189 0 CURVE",
"333 0 LINE",
"338 71 LINE",
"273 77 LINE",
"271 91 OFFCURVE",
"264 143 OFFCURVE",
"264 193 CURVE SMOOTH",
"264 542 LINE SMOOTH",
"264 562 OFFCURVE",
"270 608 OFFCURVE",
"273 623 CURVE",
"339 629 LINE"
);
},
{
closed = 1;
nodes = (
"766 710 LINE",
"766 710 OFFCURVE",
"672 705 OFFCURVE",
"592 705 CURVE SMOOTH",
"562 705 OFFCURVE",
"472 710 OFFCURVE",
"472 710 CURVE",
"467 635 LINE",
"532 623 LINE",
"534 607 OFFCURVE",
"541 562 OFFCURVE",
"541 512 CURVE SMOOTH",
"541 163 LINE SMOOTH",
"541 143 OFFCURVE",
"533 87 OFFCURVE",
"532 77 CURVE",
"466 65 LINE",
"471 -5 LINE",
"471 -5 OFFCURVE",
"591 0 OFFCURVE",
"621 0 CURVE",
"765 0 LINE",
"770 71 LINE",
"705 77 LINE",
"703 91 OFFCURVE",
"696 143 OFFCURVE",
"696 193 CURVE SMOOTH",
"696 542 LINE SMOOTH",
"696 562 OFFCURVE",
"702 608 OFFCURVE",
"705 623 CURVE",
"771 629 LINE"
);
}
);
};
layerId = "16643525-C5DD-48EC-8E99-463BF28F5E85";
paths = (
{
closed = 1;
nodes = (
"546 393 LINE",
"259 389 LINE",
"259 302 LINE",
"546 302 LINE"
);
},
{
closed = 1;
nodes = (
"334 710 LINE",
"334 710 OFFCURVE",
"240 705 OFFCURVE",
"160 705 CURVE SMOOTH",
"130 705 OFFCURVE",
"40 710 OFFCURVE",
"40 710 CURVE",
"35 635 LINE",
"100 623 LINE",
"102 607 OFFCURVE",
"109 562 OFFCURVE",
"109 542 CURVE SMOOTH",
"109 163 LINE SMOOTH",
"109 143 OFFCURVE",
"101 87 OFFCURVE",
"100 77 CURVE",
"34 65 LINE",
"39 -5 LINE",
"39 -5 OFFCURVE",
"159 0 OFFCURVE",
"189 0 CURVE",
"333 0 LINE",
"338 71 LINE",
"273 77 LINE",
"271 91 OFFCURVE",
"264 153 OFFCURVE",
"264 193 CURVE SMOOTH",
"264 512 LINE SMOOTH",
"264 552 OFFCURVE",
"270 608 OFFCURVE",
"273 623 CURVE",
"339 629 LINE"
);
},
{
closed = 1;
nodes = (
"766 710 LINE",
"766 710 OFFCURVE",
"672 705 OFFCURVE",
"592 705 CURVE SMOOTH",
"562 705 OFFCURVE",
"472 710 OFFCURVE",
"472 710 CURVE",
"467 635 LINE",
"532 623 LINE",
"534 607 OFFCURVE",
"541 562 OFFCURVE",
"541 542 CURVE SMOOTH",
"541 163 LINE SMOOTH",
"541 143 OFFCURVE",
"533 87 OFFCURVE",
"532 77 CURVE",
"466 65 LINE",
"471 -5 LINE",
"471 -5 OFFCURVE",
"591 0 OFFCURVE",
"621 0 CURVE",
"765 0 LINE",
"770 71 LINE",
"705 77 LINE",
"703 91 OFFCURVE",
"696 153 OFFCURVE",
"696 193 CURVE SMOOTH",
"696 512 LINE SMOOTH",
"696 552 OFFCURVE",
"702 608 OFFCURVE",
"705 623 CURVE",
"771 629 LINE"
);
}
);
width = 806;
},
{
anchors = (
{
name = bottom;
position = "{331, 0}";
},
{
name = center;
position = "{405, 520}";
},
{
name = top;
position = "{434, 720}";
}
);
background = {
paths = (
{
closed = 1;
nodes = (
"556 383 LINE",
"227 378 LINE",
"219 327 LINE",
"548 327 LINE"
);
},
{
closed = 1;
nodes = (
"359 710 LINE",
"359 710 OFFCURVE",
"287 705 OFFCURVE",
"227 705 CURVE SMOOTH",
"207 705 OFFCURVE",
"112 710 OFFCURVE",
"112 710 CURVE",
"99 656 LINE",
"172 644 LINE",
"172 631 OFFCURVE",
"172 585 OFFCURVE",
"169 568 CURVE SMOOTH",
"106 137 LINE SMOOTH",
"104 120 OFFCURVE",
"90 74 OFFCURVE",
"87 61 CURVE",
"8 45 LINE",
"6 -5 LINE",
"6 -5 OFFCURVE",
"116 0 OFFCURVE",
"141 0 CURVE SMOOTH",
"220 0 OFFCURVE",
"264 0 OFFCURVE",
"264 0 CURVE",
"278 54 LINE",
"193 61 LINE",
"193 75 OFFCURVE",
"196 125 OFFCURVE",
"202 167 CURVE SMOOTH",
"256 538 LINE SMOOTH",
"262 580 OFFCURVE",
"274 630 OFFCURVE",
"278 644 CURVE",
"354 651 LINE"
);
},
{
closed = 1;
nodes = (
"768 710 LINE",
"768 710 OFFCURVE",
"696 705 OFFCURVE",
"636 705 CURVE SMOOTH",
"616 705 OFFCURVE",
"521 710 OFFCURVE",
"521 710 CURVE",
"508 656 LINE",
"581 644 LINE",
"581 631 OFFCURVE",
"581 585 OFFCURVE",
"578 568 CURVE SMOOTH",
"515 137 LINE SMOOTH",
"513 120 OFFCURVE",
"499 74 OFFCURVE",
"496 61 CURVE",
"417 45 LINE",
"415 -5 LINE",
"415 -5 OFFCURVE",
"525 0 OFFCURVE",
"550 0 CURVE SMOOTH",
"629 0 OFFCURVE",
"673 0 OFFCURVE",
"673 0 CURVE",
"687 54 LINE",
"602 61 LINE",
"602 75 OFFCURVE",
"605 125 OFFCURVE",
"611 167 CURVE SMOOTH",
"665 538 LINE SMOOTH",
"671 580 OFFCURVE",
"683 630 OFFCURVE",
"687 644 CURVE",
"763 651 LINE"
);
}
);
};
layerId = "08C09966-8326-41C9-AE3D-74AAC6FC1D13";
paths = (
{
closed = 1;
nodes = (
"556 383 LINE",
"227 378 LINE",
"219 327 LINE",
"548 327 LINE"
);
},
{
closed = 1;
nodes = (
"359 710 LINE",
"359 710 OFFCURVE",
"287 705 OFFCURVE",
"227 705 CURVE SMOOTH",
"207 705 OFFCURVE",
"112 710 OFFCURVE",
"112 710 CURVE",
"99 656 LINE",
"172 644 LINE",
"172 631 OFFCURVE",
"171 583 OFFCURVE",
"169 568 CURVE SMOOTH",
"106 137 LINE SMOOTH",
"104 122 OFFCURVE",
"90 74 OFFCURVE",
"87 61 CURVE",
"8 45 LINE",
"6 -5 LINE",
"6 -5 OFFCURVE",
"116 0 OFFCURVE",
"141 0 CURVE SMOOTH",
"220 0 OFFCURVE",
"264 0 OFFCURVE",
"264 0 CURVE",
"278 54 LINE",
"193 61 LINE",
"193 75 OFFCURVE",
"198 137 OFFCURVE",
"202 167 CURVE SMOOTH",
"256 538 LINE SMOOTH",
"260 568 OFFCURVE",
"274 630 OFFCURVE",
"278 644 CURVE",
"354 651 LINE"
);
},
{
closed = 1;
nodes = (
"768 710 LINE",
"768 710 OFFCURVE",
"696 705 OFFCURVE",
"636 705 CURVE SMOOTH",
"616 705 OFFCURVE",
"521 710 OFFCURVE",
"521 710 CURVE",
"508 656 LINE",
"581 644 LINE",
"581 631 OFFCURVE",
"580 583 OFFCURVE",
"578 568 CURVE SMOOTH",
"515 137 LINE SMOOTH",
"513 122 OFFCURVE",
"499 74 OFFCURVE",
"496 61 CURVE",
"417 45 LINE",
"415 -5 LINE",
"415 -5 OFFCURVE",
"525 0 OFFCURVE",
"550 0 CURVE SMOOTH",
"629 0 OFFCURVE",
"673 0 OFFCURVE",
"673 0 CURVE",
"687 54 LINE",
"602 61 LINE",
"602 75 OFFCURVE",
"607 137 OFFCURVE",
"611 167 CURVE SMOOTH",
"665 538 LINE SMOOTH",
"669 568 OFFCURVE",
"683 630 OFFCURVE",
"687 644 CURVE",
"763 651 LINE"
);
}
);
width = 749;
},
{
anchors = (
{
name = bottom;
position = "{357, 0}";
},
{
name = center;
position = "{429, 520}";
},
{
name = top;
position = "{462, 720}";
}
);
background = {
paths = (
{
closed = 1;
nodes = (
"552 393 LINE",
"276 389 LINE",
"264 302 LINE",
"538 302 LINE"
);
},
{
closed = 1;
nodes = (
"395 710 LINE",
"395 710 OFFCURVE",
"307 705 OFFCURVE",
"227 705 CURVE SMOOTH",
"197 705 OFFCURVE",
"107 710 OFFCURVE",
"107 710 CURVE",
"91 635 LINE",
"152 623 LINE",
"151 607 OFFCURVE",
"151 562 OFFCURVE",
"144 512 CURVE SMOOTH",
"93 163 LINE SMOOTH",
"90 143 OFFCURVE",
"74 87 OFFCURVE",
"72 77 CURVE",
"7 65 LINE",
"2 -5 LINE",
"2 -5 OFFCURVE",
"122 0 OFFCURVE",
"152 0 CURVE",
"290 0 LINE",
"305 71 LINE",
"244 77 LINE",
"245 91 OFFCURVE",
"245 143 OFFCURVE",
"253 193 CURVE SMOOTH",
"303 542 LINE SMOOTH",
"306 562 OFFCURVE",
"319 608 OFFCURVE",
"324 623 CURVE",
"388 629 LINE"
);
},
{
closed = 1;
nodes = (
"815 710 LINE",
"815 710 OFFCURVE",
"727 705 OFFCURVE",
"647 705 CURVE SMOOTH",
"617 705 OFFCURVE",
"527 710 OFFCURVE",
"527 710 CURVE",
"511 635 LINE",
"572 623 LINE",
"571 607 OFFCURVE",
"571 562 OFFCURVE",
"564 512 CURVE SMOOTH",
"513 163 LINE SMOOTH",
"510 143 OFFCURVE",
"494 87 OFFCURVE",
"492 77 CURVE",
"427 65 LINE",
"422 -5 LINE",
"422 -5 OFFCURVE",
"542 0 OFFCURVE",
"572 0 CURVE",
"710 0 LINE",
"725 71 LINE",
"664 77 LINE",
"665 91 OFFCURVE",
"665 143 OFFCURVE",
"673 193 CURVE SMOOTH",
"723 542 LINE SMOOTH",
"726 562 OFFCURVE",
"739 608 OFFCURVE",
"744 623 CURVE",
"808 629 LINE"
);
}
);
};
layerId = "B953D09C-6DD0-450A-A78C-8C2188DD4016";
paths = (
{
closed = 1;
nodes = (
"552 393 LINE",
"276 389 LINE",
"264 302 LINE",
"538 302 LINE"
);
},
{
closed = 1;
nodes = (
"395 710 LINE",
"395 710 OFFCURVE",
"307 705 OFFCURVE",
"227 705 CURVE SMOOTH",
"197 705 OFFCURVE",
"107 710 OFFCURVE",
"107 710 CURVE",
"91 635 LINE",
"152 623 LINE",
"152 608 OFFCURVE",
"151 562 OFFCURVE",
"144 512 CURVE SMOOTH",
"93 163 LINE SMOOTH",
"90 143 OFFCURVE",
"77 92 OFFCURVE",
"72 77 CURVE",
"7 65 LINE",
"2 -5 LINE",
"2 -5 OFFCURVE",
"122 0 OFFCURVE",
"152 0 CURVE",
"290 0 LINE",
"305 70 LINE",
"244 77 LINE",
"244 92 OFFCURVE",
"245 143 OFFCURVE",
"253 193 CURVE SMOOTH",
"303 542 LINE SMOOTH",
"306 562 OFFCURVE",
"319 608 OFFCURVE",
"324 623 CURVE",
"388 629 LINE"
);
},
{
closed = 1;
nodes = (
"815 710 LINE",
"815 710 OFFCURVE",
"727 705 OFFCURVE",
"647 705 CURVE SMOOTH",
"617 705 OFFCURVE",
"527 710 OFFCURVE",
"527 710 CURVE",
"511 635 LINE",
"572 623 LINE",
"572 608 OFFCURVE",
"571 562 OFFCURVE",
"564 512 CURVE SMOOTH",
"513 163 LINE SMOOTH",
"510 143 OFFCURVE",
"497 92 OFFCURVE",
"492 77 CURVE",
"427 65 LINE",
"422 -5 LINE",
"422 -5 OFFCURVE",
"542 0 OFFCURVE",
"572 0 CURVE",
"710 0 LINE",
"725 70 LINE",
"664 77 LINE",
"664 92 OFFCURVE",
"665 143 OFFCURVE",
"673 193 CURVE SMOOTH",
"723 542 LINE SMOOTH",
"726 562 OFFCURVE",
"739 608 OFFCURVE",
"744 623 CURVE",
"808 629 LINE"
);
}
);
width = 788;
}
);
leftKerningGroup = H;
rightKerningGroup = H;
unicode = 0048;
},
{
color = 1;
glyphname = Hbar;
lastChange = "2018-05-29 07:43:44 +0000";
layers = (
{
background = {
paths = (
{
closed = 1;
nodes = (
"60 542 LINE",
"60 498 LINE",
"719 498 LINE",
"724 542 LINE"
);
}
);
};
components = (
{
name = H;
},
{
name = barcomp.long;
transform = "{1, 0, 0, 1, -36, -85}";
}
);
layerId = UUID0;
width = 764;
},
{
components = (
{
name = H;
},
{
name = barcomp.long;
transform = "{1, 0, 0, 1, -41, -72}";
}
);
layerId = "16643525-C5DD-48EC-8E99-463BF28F5E85";
width = 806;
},
{
background = {
paths = (
{
closed = 1;
nodes = (
"70 542 LINE",
"64 498 LINE",
"753 498 LINE",
"764 542 LINE"
);
}
);
};
components = (
{
name = H;
},
{
name = barcomp.long;
transform = "{1, 0, 0, 1, 17, -85}";
}
);
layerId = "08C09966-8326-41C9-AE3D-74AAC6FC1D13";
width = 749;
},
{
background = {
paths = (
{
closed = 1;
nodes = (
"819 551 LINE",
"75 551 LINE",
"66 487 LINE",
"810 487 LINE"
);
}
);
};
components = (
{
name = H;
},
{
name = barcomp.long;
transform = "{1, 0, 0, 1, -59, -72}";
}
);
layerId = "B953D09C-6DD0-450A-A78C-8C2188DD4016";
width = 788;
}
);
leftKerningGroup = H;
rightKerningGroup = H;
unicode = 0126;
},
{
color = 0;
glyphname = I;
lastChange = "2018-05-29 07:25:28 +0000";
layers = (
{
anchors = (
{
name = bottom;
position = "{178, 0}";
},
{
name = ogonek;
position = "{306, 0}";
},
{
name = top;
position = "{170, 720}";
}
);
background = {
paths = (
{
closed = 1;
nodes = (
"296 710 LINE",
"296 710 OFFCURVE",
"239 705 OFFCURVE",
"159 705 CURVE SMOOTH",
"139 705 OFFCURVE",
"43 710 OFFCURVE",
"43 710 CURVE",
"38 656 LINE",
"115 644 LINE",
"117 631 OFFCURVE",
"124 585 OFFCURVE",
"124 568 CURVE SMOOTH",
"124 137 LINE SMOOTH",
"124 120 OFFCURVE",
"117 74 OFFCURVE",
"115 61 CURVE",
"36 45 LINE",
"41 -5 LINE",
"41 -5 OFFCURVE",
"151 0 OFFCURVE",
"176 0 CURVE SMOOTH",
"256 0 OFFCURVE",
"305 -5 OFFCURVE",
"305 -5 CURVE",
"312 54 LINE",
"222 61 LINE",
"220 75 OFFCURVE",
"215 125 OFFCURVE",
"215 167 CURVE SMOOTH",
"215 538 LINE SMOOTH",
"215 580 OFFCURVE",
"220 630 OFFCURVE",
"222 644 CURVE",
"300 651 LINE"
);
}
);
};
layerId = UUID0;
paths = (
{
closed = 1;
nodes = (
"296 710 LINE",
"296 710 OFFCURVE",
"218 705 OFFCURVE",
"158 705 CURVE SMOOTH",
"138 705 OFFCURVE",
"43 710 OFFCURVE",
"43 710 CURVE",
"38 656 LINE",
"115 644 LINE",
"117 631 OFFCURVE",
"124 585 OFFCURVE",
"124 568 CURVE SMOOTH",
"124 137 LINE SMOOTH",
"124 120 OFFCURVE",
"117 74 OFFCURVE",
"115 61 CURVE",
"36 45 LINE",
"41 -5 LINE",
"41 -5 OFFCURVE",
"151 0 OFFCURVE",
"176 0 CURVE",
"306 0 LINE",
"312 54 LINE",
"222 61 LINE",
"220 75 OFFCURVE",
"215 125 OFFCURVE",
"215 167 CURVE SMOOTH",
"215 538 LINE SMOOTH",
"215 580 OFFCURVE",
"220 630 OFFCURVE",
"222 644 CURVE",
"300 651 LINE"
);
}
);
width = 342;
},
{
anchors = (
{
name = bottom;
position = "{187, 0}";
},
{
name = ogonek;
position = "{333, 0}";
},
{
name = top;
position = "{187, 720}";
}
);
background = {
paths = (
{
closed = 1;
nodes = (
"334 710 LINE",
"334 710 OFFCURVE",
"253 705 OFFCURVE",
"140 705 CURVE SMOOTH",
"93 705 OFFCURVE",
"40 710 OFFCURVE",
"40 710 CURVE",
"35 635 LINE",
"100 623 LINE",
"102 607 OFFCURVE",
"109 562 OFFCURVE",
"109 512 CURVE SMOOTH",
"109 163 LINE SMOOTH",
"109 143 OFFCURVE",
"101 87 OFFCURVE",
"100 77 CURVE",
"34 65 LINE",
"39 -5 LINE",
"39 -5 OFFCURVE",
"149 0 OFFCURVE",
"179 0 CURVE SMOOTH",
"292 0 OFFCURVE",
"333 -5 OFFCURVE",
"333 -5 CURVE",
"338 71 LINE",
"273 77 LINE",
"271 91 OFFCURVE",
"264 143 OFFCURVE",
"264 193 CURVE SMOOTH",
"264 542 LINE SMOOTH",
"264 562 OFFCURVE",
"270 608 OFFCURVE",
"273 623 CURVE",
"339 629 LINE"
);
}
);
};
layerId = "16643525-C5DD-48EC-8E99-463BF28F5E85";
paths = (
{
closed = 1;
nodes = (
"334 710 LINE",
"334 710 OFFCURVE",
"240 705 OFFCURVE",
"160 705 CURVE SMOOTH",
"130 705 OFFCURVE",
"40 710 OFFCURVE",
"40 710 CURVE",
"35 635 LINE",
"100 623 LINE",
"102 607 OFFCURVE",
"109 562 OFFCURVE",
"109 542 CURVE SMOOTH",
"109 163 LINE SMOOTH",
"109 143 OFFCURVE",
"101 87 OFFCURVE",
"100 77 CURVE",
"34 65 LINE",
"39 -5 LINE",
"39 -5 OFFCURVE",
"159 0 OFFCURVE",
"189 0 CURVE",
"333 0 LINE",
"338 71 LINE",
"273 77 LINE",
"271 91 OFFCURVE",
"264 153 OFFCURVE",
"264 193 CURVE SMOOTH",
"264 512 LINE SMOOTH",
"264 552 OFFCURVE",
"270 608 OFFCURVE",
"273 623 CURVE",
"339 629 LINE"
);
}
);
width = 374;
},
{
anchors = (
{
name = bottom;
position = "{129, 0}";
},
{
name = ogonek;
position = "{264, 0}";
},
{
name = top;
position = "{235, 720}";
}
);
background = {
paths = (
{
closed = 1;
nodes = (
"359 710 LINE",
"359 710 OFFCURVE",
"302 705 OFFCURVE",
"223 705 CURVE SMOOTH",
"203 705 OFFCURVE",
"112 710 OFFCURVE",
"112 710 CURVE",
"99 656 LINE",
"172 644 LINE",
"172 631 OFFCURVE",
"172 585 OFFCURVE",
"169 568 CURVE SMOOTH",
"106 137 LINE SMOOTH",
"104 120 OFFCURVE",
"90 74 OFFCURVE",
"87 61 CURVE",
"8 45 LINE",
"6 -5 LINE",
"6 -5 OFFCURVE",
"100 0 OFFCURVE",
"120 0 CURVE SMOOTH",
"199 0 OFFCURVE",
"263 -5 OFFCURVE",
"263 -5 CURVE",
"278 54 LINE",
"193 61 LINE",
"193 75 OFFCURVE",
"196 125 OFFCURVE",
"202 167 CURVE SMOOTH",
"256 538 LINE SMOOTH",
"262 580 OFFCURVE",
"274 630 OFFCURVE",
"278 644 CURVE",
"354 651 LINE"
);
}
);
};
layerId = "08C09966-8326-41C9-AE3D-74AAC6FC1D13";
paths = (
{
closed = 1;
nodes = (
"359 710 LINE",
"359 710 OFFCURVE",
"287 705 OFFCURVE",
"227 705 CURVE SMOOTH",
"207 705 OFFCURVE",
"112 710 OFFCURVE",
"112 710 CURVE",
"99 656 LINE",
"172 644 LINE",
"172 631 OFFCURVE",
"171 583 OFFCURVE",
"169 568 CURVE SMOOTH",
"106 137 LINE SMOOTH",
"104 122 OFFCURVE",
"90 74 OFFCURVE",
"87 61 CURVE",
"8 45 LINE",
"6 -5 LINE",
"6 -5 OFFCURVE",
"116 0 OFFCURVE",
"141 0 CURVE",
"264 0 LINE",
"278 54 LINE",
"193 61 LINE",
"193 75 OFFCURVE",
"198 137 OFFCURVE",
"202 167 CURVE SMOOTH",
"256 538 LINE SMOOTH",
"260 568 OFFCURVE",
"274 630 OFFCURVE",
"278 644 CURVE",
"354 651 LINE"
);
}
);
width = 340;
},
{
anchors = (
{
name = bottom;
position = "{146, 0}";
},
{
name = ogonek;
position = "{290, 0}";
},
{
name = top;
position = "{249, 720}";
}
);
background = {
paths = (
{
closed = 1;
nodes = (
"395 710 LINE",
"395 710 OFFCURVE",
"307 705 OFFCURVE",
"227 705 CURVE SMOOTH",
"197 705 OFFCURVE",
"107 710 OFFCURVE",
"107 710 CURVE",
"91 635 LINE",
"152 623 LINE",
"152 608 OFFCURVE",
"151 562 OFFCURVE",
"144 512 CURVE SMOOTH",
"93 163 LINE SMOOTH",
"90 143 OFFCURVE",
"77 92 OFFCURVE",
"72 77 CURVE",
"7 65 LINE",
"2 -5 LINE",
"2 -5 OFFCURVE",
"122 0 OFFCURVE",
"152 0 CURVE",
"290 0 LINE",
"305 70 LINE",
"244 77 LINE",
"244 92 OFFCURVE",
"245 143 OFFCURVE",
"253 193 CURVE SMOOTH",
"303 542 LINE SMOOTH",
"306 562 OFFCURVE",
"319 608 OFFCURVE",
"324 623 CURVE",
"388 629 LINE"
);
}
);
};
guideLines = (
{
angle = 261.6;
position = "{339, 395}";
}
);
layerId = "B953D09C-6DD0-450A-A78C-8C2188DD4016";
paths = (
{
closed = 1;
nodes = (
"395 710 LINE",
"395 710 OFFCURVE",
"307 705 OFFCURVE",
"227 705 CURVE SMOOTH",
"197 705 OFFCURVE",
"107 710 OFFCURVE",
"107 710 CURVE",
"91 635 LINE",
"152 623 LINE",
"152 608 OFFCURVE",
"151 562 OFFCURVE",
"144 512 CURVE SMOOTH",
"93 163 LINE SMOOTH",
"90 143 OFFCURVE",
"77 92 OFFCURVE",
"72 77 CURVE",
"7 65 LINE",
"2 -5 LINE",
"2 -5 OFFCURVE",
"122 0 OFFCURVE",
"152 0 CURVE",
"290 0 LINE",
"305 70 LINE",
"244 77 LINE",
"244 92 OFFCURVE",
"245 143 OFFCURVE",
"253 193 CURVE SMOOTH",
"303 542 LINE SMOOTH",
"306 562 OFFCURVE",
"319 608 OFFCURVE",
"324 623 CURVE",
"388 629 LINE"
);
}
);
width = 368;
}
);
leftKerningGroup = H;
rightKerningGroup = H;
unicode = 0049;
},
{
glyphname = IJ;
lastChange = "2018-05-29 07:35:31 +0000";
layers = (
{
anchors = (
{
name = top;
position = "{477, 720}";
}
);
background = {
paths = (
{
closed = 1;
nodes = (
"613 651 LINE",
"535 644 LINE",
"533 630 OFFCURVE",
"528 580 OFFCURVE",
"528 538 CURVE SMOOTH",
"528 -10 LINE SMOOTH",
"528 -37 OFFCURVE",
"438 -144 OFFCURVE",
"391 -200 CURVE",
"357 -178 LINE",
"357 -178 OFFCURVE",
"437 -9 OFFCURVE",
"437 11 CURVE SMOOTH",
"437 568 LINE SMOOTH",
"437 585 OFFCURVE",
"430 631 OFFCURVE",
"428 644 CURVE",
"345 656 LINE",
"262 644 LINE",
"260 630 OFFCURVE",
"255 580 OFFCURVE",
"255 538 CURVE SMOOTH",
"255 167 LINE SMOOTH",
"255 125 OFFCURVE",
"260 75 OFFCURVE",
"262 61 CURVE",
"352 54 LINE",
"346 0 LINE",
"346 0 OFFCURVE",
"279 0 OFFCURVE",
"199 0 CURVE SMOOTH",
"179 0 OFFCURVE",
"81 -5 OFFCURVE",
"81 -5 CURVE",
"76 45 LINE",
"155 61 LINE",
"157 74 OFFCURVE",
"164 120 OFFCURVE",
"164 137 CURVE SMOOTH",
"164 568 LINE SMOOTH",
"164 585 OFFCURVE",
"157 631 OFFCURVE",
"155 644 CURVE",
"78 656 LINE",
"83 710 LINE",
"83 710 OFFCURVE",
"179 705 OFFCURVE",
"199 705 CURVE SMOOTH",
"472 705 LINE SMOOTH",
"552 705 OFFCURVE",
"609 710 OFFCURVE",
"609 710 CURVE"
);
}
);
};
layerId = UUID0;
paths = (
{
closed = 1;
nodes = (
"325 656 LINE",
"222 644 LINE",
"220 630 OFFCURVE",
"215 580 OFFCURVE",
"215 538 CURVE SMOOTH",
"215 167 LINE SMOOTH",
"215 125 OFFCURVE",
"220 75 OFFCURVE",
"222 61 CURVE",
"312 54 LINE",
"306 0 LINE",
"159 0 LINE",
"139 0 OFFCURVE",
"41 -5 OFFCURVE",
"41 -5 CURVE",
"36 45 LINE",
"115 61 LINE",
"117 74 OFFCURVE",
"124 120 OFFCURVE",
"124 137 CURVE SMOOTH",
"124 568 LINE SMOOTH",
"124 585 OFFCURVE",
"117 631 OFFCURVE",
"115 644 CURVE",
"38 656 LINE",
"43 710 LINE",
"43 710 OFFCURVE",
"139 705 OFFCURVE",
"159 705 CURVE SMOOTH",
"325 705 LINE"
);
},
{
closed = 1;
nodes = (
"325 705 LINE",
"325 656 LINE",
"428 644 LINE",
"430 631 OFFCURVE",
"437 585 OFFCURVE",
"437 568 CURVE SMOOTH",
"437 11 LINE SMOOTH",
"437 -9 OFFCURVE",
"357 -178 OFFCURVE",
"357 -178 CURVE",
"391 -200 LINE",
"438 -144 OFFCURVE",
"528 -37 OFFCURVE",
"528 -10 CURVE SMOOTH",
"528 538 LINE SMOOTH",
"528 580 OFFCURVE",
"533 630 OFFCURVE",
"535 644 CURVE",
"613 651 LINE",
"609 710 LINE",
"609 710 OFFCURVE",
"531 705 OFFCURVE",
"471 705 CURVE"
);
}
);
width = 641;
},
{
anchors = (
{
name = top;
position = "{525, 720}";
}
);
background = {
paths = (
{
closed = 1;
nodes = (
"677 629 LINE",
"611 623 LINE",
"609 614 OFFCURVE",
"602 562 OFFCURVE",
"602 542 CURVE SMOOTH",
"602 0 LINE SMOOTH",
"602 -33 OFFCURVE",
"521 -111 OFFCURVE",
"425 -200 CURVE",
"371 -169 LINE",
"371 -169 OFFCURVE",
"447 -9 OFFCURVE",
"447 11 CURVE SMOOTH",
"447 512 LINE SMOOTH",
"447 562 OFFCURVE",
"441 608 OFFCURVE",
"438 623 CURVE",
"356 632 LINE",
"273 623 LINE",
"270 609 OFFCURVE",
"264 562 OFFCURVE",
"264 542 CURVE SMOOTH",
"264 193 LINE SMOOTH",
"264 143 OFFCURVE",
"272 86 OFFCURVE",
"273 77 CURVE",
"338 71 LINE",
"333 0 LINE",
"333 0 OFFCURVE",
"302 0 OFFCURVE",
"189 0 CURVE SMOOTH",
"159 0 OFFCURVE",
"39 -5 OFFCURVE",
"39 -5 CURVE",
"34 65 LINE",
"100 77 LINE",
"102 91 OFFCURVE",
"109 143 OFFCURVE",
"109 163 CURVE SMOOTH",
"109 512 LINE SMOOTH",
"109 562 OFFCURVE",
"103 604 OFFCURVE",
"100 623 CURVE",
"35 635 LINE",
"40 710 LINE",
"40 710 OFFCURVE",
"111 705 OFFCURVE",
"158 705 CURVE SMOOTH",
"478 705 LINE SMOOTH",
"591 705 OFFCURVE",
"672 710 OFFCURVE",
"672 710 CURVE"
);
}
);
};
layerId = "16643525-C5DD-48EC-8E99-463BF28F5E85";
paths = (
{
closed = 1;
nodes = (
"356 632 LINE",
"273 623 LINE",
"270 609 OFFCURVE",
"264 562 OFFCURVE",
"264 542 CURVE SMOOTH",
"264 193 LINE SMOOTH",
"264 143 OFFCURVE",
"272 86 OFFCURVE",
"273 77 CURVE",
"338 71 LINE",
"333 0 LINE",
"189 0 LINE",
"159 0 OFFCURVE",
"39 -5 OFFCURVE",
"39 -5 CURVE",
"34 65 LINE",
"100 77 LINE",
"102 91 OFFCURVE",
"109 143 OFFCURVE",
"109 163 CURVE SMOOTH",
"109 512 LINE SMOOTH",
"109 562 OFFCURVE",
"103 604 OFFCURVE",
"100 623 CURVE",
"35 635 LINE",
"40 710 LINE",
"40 710 OFFCURVE",
"111 705 OFFCURVE",
"158 705 CURVE SMOOTH",
"356 705 LINE"
);
},
{
closed = 1;
nodes = (
"468 705 OFFCURVE",
"356 705 OFFCURVE",
"356 705 CURVE",
"356 632 LINE",
"438 623 LINE",
"441 608 OFFCURVE",
"447 562 OFFCURVE",
"447 512 CURVE SMOOTH",
"447 11 LINE SMOOTH",
"447 -9 OFFCURVE",
"371 -169 OFFCURVE",
"371 -169 CURVE",
"425 -200 LINE",
"521 -111 OFFCURVE",
"602 -23 OFFCURVE",
"602 10 CURVE SMOOTH",
"602 542 LINE SMOOTH",
"602 562 OFFCURVE",
"609 614 OFFCURVE",
"611 623 CURVE",
"677 629 LINE",
"672 710 LINE",
"672 710 OFFCURVE",
"578 705 OFFCURVE",
"498 705 CURVE SMOOTH"
);
}
);
width = 701;
},
{
background = {
paths = (
{
closed = 1;
nodes = (
"656 651 LINE",
"580 644 LINE",
"576 630 OFFCURVE",
"564 580 OFFCURVE",
"557 538 CURVE SMOOTH",
"478 -10 LINE SMOOTH",
"474 -37 OFFCURVE",
"371 -144 OFFCURVE",
"317 -200 CURVE",
"287 -178 LINE",
"287 -178 OFFCURVE",
"390 -9 OFFCURVE",
"393 11 CURVE SMOOTH",
"474 568 LINE SMOOTH",
"476 585 OFFCURVE",
"476 631 OFFCURVE",
"476 644 CURVE",
"397 656 LINE",
"528 705 LINE",
"605 705 OFFCURVE",
"662 710 OFFCURVE",
"662 710 CURVE"
);
}
);
};
layerId = "08C09966-8326-41C9-AE3D-74AAC6FC1D13";
paths = (
{
closed = 1;
nodes = (
"389 705 LINE",
"227 705 LINE",
"207 705 OFFCURVE",
"112 710 OFFCURVE",
"112 710 CURVE",
"99 656 LINE",
"172 644 LINE",
"172 631 OFFCURVE",
"172 585 OFFCURVE",
"169 568 CURVE SMOOTH",
"106 137 LINE SMOOTH",
"104 120 OFFCURVE",
"90 74 OFFCURVE",
"87 61 CURVE",
"8 45 LINE",
"6 -5 LINE",
"6 -5 OFFCURVE",
"116 0 OFFCURVE",
"141 0 CURVE",
"264 0 LINE",
"278 54 LINE",
"193 61 LINE",
"193 75 OFFCURVE",
"196 125 OFFCURVE",
"202 167 CURVE SMOOTH",
"256 538 LINE SMOOTH",
"262 580 OFFCURVE",
"274 630 OFFCURVE",
"278 644 CURVE",
"403 660 LINE"
);
},
{
closed = 1;
nodes = (
"557 538 LINE SMOOTH",
"563 580 OFFCURVE",
"575 630 OFFCURVE",
"579 644 CURVE",
"655 651 LINE",
"660 710 LINE",
"660 710 OFFCURVE",
"588 705 OFFCURVE",
"528 705 CURVE",
"379 705 LINE",
"370 656 LINE",
"473 644 LINE",
"473 631 OFFCURVE",
"473 585 OFFCURVE",
"470 568 CURVE SMOOTH",
"389 11 LINE",
"386 -9 OFFCURVE",
"284 -178 OFFCURVE",
"284 -178 CURVE",
"315 -200 LINE",
"370 -144 OFFCURVE",
"473 -37 OFFCURVE",
"477 -10 CURVE SMOOTH"
);
}
);
width = 627;
},
{
background = {
paths = (
{
closed = 1;
nodes = (
"425 705 LINE",
"425 705 OFFCURVE",
"317 705 OFFCURVE",
"237 705 CURVE SMOOTH",
"207 705 OFFCURVE",
"117 710 OFFCURVE",
"117 710 CURVE",
"101 635 LINE",
"162 623 LINE",
"161 607 OFFCURVE",
"161 562 OFFCURVE",
"154 512 CURVE SMOOTH",
"103 163 LINE SMOOTH",
"100 143 OFFCURVE",
"84 87 OFFCURVE",
"82 77 CURVE",
"17 65 LINE",
"12 -5 LINE",
"12 -5 OFFCURVE",
"132 0 OFFCURVE",
"162 0 CURVE",
"300 0 LINE",
"315 71 LINE",
"254 77 LINE",
"255 91 OFFCURVE",
"255 143 OFFCURVE",
"263 193 CURVE SMOOTH",
"313 542 LINE SMOOTH",
"316 562 OFFCURVE",
"329 608 OFFCURVE",
"334 623 CURVE",
"418 633 LINE"
);
},
{
closed = 1;
nodes = (
"636 542 LINE SMOOTH",
"639 562 OFFCURVE",
"652 608 OFFCURVE",
"657 623 CURVE",
"721 629 LINE",
"728 710 LINE",
"728 710 OFFCURVE",
"640 705 OFFCURVE",
"560 705 CURVE SMOOTH",
"530 705 OFFCURVE",
"420 705 OFFCURVE",
"420 705 CURVE",
"410 633 LINE",
"485 623 LINE",
"484 607 OFFCURVE",
"484 562 OFFCURVE",
"477 512 CURVE SMOOTH",
"404 11 LINE",
"401 -9 OFFCURVE",
"304 -169 OFFCURVE",
"304 -169 CURVE",
"354 -200 LINE",
"463 -111 OFFCURVE",
"554 -23 OFFCURVE",
"559 10 CURVE"
);
}
);
};
layerId = "B953D09C-6DD0-450A-A78C-8C2188DD4016";
paths = (
{
closed = 1;
nodes = (
"425 705 LINE",
"227 705 LINE",
"197 705 OFFCURVE",
"107 710 OFFCURVE",
"107 710 CURVE",
"91 635 LINE",
"152 623 LINE",
"151 607 OFFCURVE",
"151 562 OFFCURVE",
"144 512 CURVE SMOOTH",
"93 163 LINE SMOOTH",
"90 143 OFFCURVE",
"74 87 OFFCURVE",
"72 77 CURVE",
"7 65 LINE",
"2 -5 LINE",
"2 -5 OFFCURVE",
"122 0 OFFCURVE",
"152 0 CURVE",
"290 0 LINE",
"305 71 LINE",
"244 77 LINE",
"245 91 OFFCURVE",
"245 143 OFFCURVE",
"253 193 CURVE SMOOTH",
"303 542 LINE SMOOTH",
"306 562 OFFCURVE",
"319 608 OFFCURVE",
"324 623 CURVE",
"418 633 LINE"
);
},
{
closed = 1;
nodes = (
"636 542 LINE SMOOTH",
"639 562 OFFCURVE",
"652 608 OFFCURVE",
"657 623 CURVE",
"721 629 LINE",
"728 710 LINE",
"728 710 OFFCURVE",
"640 705 OFFCURVE",
"560 705 CURVE",
"410 705 LINE",
"400 633 LINE",
"485 623 LINE",
"484 607 OFFCURVE",
"484 562 OFFCURVE",
"477 512 CURVE SMOOTH",
"404 11 LINE",
"401 -9 OFFCURVE",
"304 -169 OFFCURVE",
"304 -169 CURVE",
"354 -200 LINE",
"463 -111 OFFCURVE",
"554 -23 OFFCURVE",
"559 10 CURVE"
);
}
);
width = 690;
}
);
leftKerningGroup = H;
rightKerningGroup = J;
unicode = 0132;
},
{
color = 1;
glyphname = Iogonek;
lastChange = "2018-05-29 07:43:40 +0000";
layers = (
{
background = {
paths = (
{
closed = 1;
nodes = (
"287 710 LINE",
"287 710 OFFCURVE",
"230 705 OFFCURVE",
"150 705 CURVE SMOOTH",
"130 705 OFFCURVE",
"34 710 OFFCURVE",
"34 710 CURVE",
"29 656 LINE",
"106 644 LINE",
"108 631 OFFCURVE",
"115 585 OFFCURVE",
"115 568 CURVE SMOOTH",
"115 137 LINE",
"150 0 LINE",
"230 0 OFFCURVE",
"296 -5 OFFCURVE",
"296 -5 CURVE",
"303 54 LINE",
"213 61 LINE",
"211 75 OFFCURVE",
"206 125 OFFCURVE",
"206 167 CURVE SMOOTH",
"206 538 LINE SMOOTH",
"206 580 OFFCURVE",
"211 630 OFFCURVE",
"213 644 CURVE",
"291 651 LINE"
);
},
{
closed = 1;
nodes = (
"32 -42 OFFCURVE",
"4 -64 OFFCURVE",
"4 -108 CURVE SMOOTH",
"4 -168 OFFCURVE",
"47 -197 OFFCURVE",
"107 -197 CURVE SMOOTH",
"144 -197 OFFCURVE",
"176 -183 OFFCURVE",
"193 -175 CURVE",
"179 -142 LINE",
"157 -151 OFFCURVE",
"139 -155 OFFCURVE",
"124 -155 CURVE SMOOTH",
"86 -155 OFFCURVE",
"68 -131 OFFCURVE",
"68 -102 CURVE SMOOTH",
"68 -60 OFFCURVE",
"104 -8 OFFCURVE",
"168 0 CURVE",
"186 110 LINE",
"115 175 LINE",
"115 67 OFFCURVE",
"114 40 OFFCURVE",
"87 13 CURVE SMOOTH"
);
}
);
};
components = (
{
name = I;
},
{
name = ogonekcomb;
transform = "{1, 0, 0, 1, 79, 0}";
}
);
layerId = UUID0;
width = 342;
},
{
components = (
{
name = I;
},
{
name = ogonekcomb;
transform = "{1, 0, 0, 1, 62, 0}";
}
);
layerId = "16643525-C5DD-48EC-8E99-463BF28F5E85";
width = 374;
},
{
background = {
paths = (
{
closed = 1;
nodes = (
"366 710 LINE",
"366 710 OFFCURVE",
"309 705 OFFCURVE",
"232 705 CURVE SMOOTH",
"212 705 OFFCURVE",
"120 710 OFFCURVE",
"120 710 CURVE",
"107 656 LINE",
"180 644 LINE",
"180 631 OFFCURVE",
"180 585 OFFCURVE",
"178 568 CURVE SMOOTH",
"115 137 LINE",
"129 0 LINE",
"206 0 OFFCURVE",
"269 -5 OFFCURVE",
"269 -5 CURVE",
"285 54 LINE",
"199 61 LINE",
"199 75 OFFCURVE",
"201 125 OFFCURVE",
"207 167 CURVE SMOOTH",
"261 538 LINE SMOOTH",
"268 580 OFFCURVE",
"280 630 OFFCURVE",
"284 644 CURVE",
"361 651 LINE"
);
},
{
closed = 1;
nodes = (
"-1 -50 OFFCURVE",
"-30 -68 OFFCURVE",
"-30 -122 CURVE SMOOTH",
"-30 -172 OFFCURVE",
"6 -197 OFFCURVE",
"58 -197 CURVE SMOOTH",
"94 -197 OFFCURVE",
"127 -183 OFFCURVE",
"145 -175 CURVE",
"136 -142 LINE",
"114 -151 OFFCURVE",
"95 -155 OFFCURVE",
"81 -155 CURVE SMOOTH",
"49 -155 OFFCURVE",
"33 -135 OFFCURVE",
"33 -110 CURVE SMOOTH",
"33 -67 OFFCURVE",
"78 -9 OFFCURVE",
"146 0 CURVE",
"180 110 LINE",
"121 175 LINE",
"105 67 OFFCURVE",
"100 40 OFFCURVE",
"70 13 CURVE SMOOTH"
);
}
);
};
components = (
{
name = I;
},
{
name = ogonekcomb;
transform = "{1, 0, 0, 1, 72, 1}";
}
);
layerId = "08C09966-8326-41C9-AE3D-74AAC6FC1D13";
width = 340;
},
{
background = {
paths = (
{
closed = 1;
nodes = (
"108 163 LINE SMOOTH",
"78 -44 OFFCURVE",
"-35 -14 OFFCURVE",
"-35 -121 CURVE SMOOTH",
"-35 -172 OFFCURVE",
"3 -197 OFFCURVE",
"59 -197 CURVE SMOOTH",
"99 -197 OFFCURVE",
"136 -183 OFFCURVE",
"155 -174 CURVE",
"145 -126 LINE",
"131 -131 OFFCURVE",
"121 -133 OFFCURVE",
"111 -133 CURVE SMOOTH",
"85 -133 OFFCURVE",
"73 -115 OFFCURVE",
"73 -93 CURVE SMOOTH",
"73 -56 OFFCURVE",
"105 -9 OFFCURVE",
"159 0 CURVE",
"243 -1 OFFCURVE",
"301 -5 OFFCURVE",
"301 -5 CURVE",
"316 71 LINE",
"254 77 LINE",
"254 91 OFFCURVE",
"256 143 OFFCURVE",
"263 193 CURVE SMOOTH",
"314 542 LINE SMOOTH",
"317 562 OFFCURVE",
"329 608 OFFCURVE",
"334 623 CURVE",
"399 629 LINE",
"406 710 LINE",
"406 710 OFFCURVE",
"327 705 OFFCURVE",
"217 705 CURVE SMOOTH",
"172 705 OFFCURVE",
"121 710 OFFCURVE",
"121 710 CURVE",
"105 635 LINE",
"167 623 LINE",
"166 607 OFFCURVE",
"166 562 OFFCURVE",
"159 512 CURVE SMOOTH"
);
}
);
};
components = (
{
name = I;
},
{
name = ogonekcomb;
transform = "{1, 0, 0, 1, 69, 0}";
}
);
layerId = "B953D09C-6DD0-450A-A78C-8C2188DD4016";
width = 368;
}
);
unicode = 012E;
},
{
color = 0;
glyphname = J;
lastChange = "2018-05-29 07:25:28 +0000";
layers = (
{
anchors = (
{
name = top;
position = "{153, 720}";
}
);
background = {
paths = (
{
closed = 1;
nodes = (
"285 710 LINE",
"285 710 OFFCURVE",
"207 705 OFFCURVE",
"147 705 CURVE SMOOTH",
"127 705 OFFCURVE",
"32 710 OFFCURVE",
"32 710 CURVE",
"27 656 LINE",
"104 644 LINE",
"106 631 OFFCURVE",
"113 585 OFFCURVE",
"113 568 CURVE SMOOTH",
"113 137 LINE SMOOTH",
"113 120 OFFCURVE",
"106 74 OFFCURVE",
"104 61 CURVE",
"25 45 LINE",
"30 -5 LINE",
"30 -5 OFFCURVE",
"140 0 OFFCURVE",
"165 0 CURVE",
"294 0 LINE",
"301 54 LINE",
"211 61 LINE",
"209 75 OFFCURVE",
"204 125 OFFCURVE",
"204 167 CURVE SMOOTH",
"204 538 LINE SMOOTH",
"204 580 OFFCURVE",
"209 630 OFFCURVE",
"211 644 CURVE",
"289 651 LINE"
);
}
);
};
layerId = UUID0;
paths = (
{
closed = 1;
nodes = (
"127 705 OFFCURVE",
"32 710 OFFCURVE",
"32 710 CURVE",
"27 656 LINE",
"104 644 LINE",
"106 631 OFFCURVE",
"113 585 OFFCURVE",
"113 568 CURVE SMOOTH",
"113 11 LINE SMOOTH",
"113 -9 OFFCURVE",
"33 -178 OFFCURVE",
"33 -178 CURVE",
"67 -200 LINE",
"114 -144 OFFCURVE",
"204 -37 OFFCURVE",
"204 -10 CURVE SMOOTH",
"204 538 LINE SMOOTH",
"204 580 OFFCURVE",
"209 630 OFFCURVE",
"211 644 CURVE",
"289 651 LINE",
"285 710 LINE",
"285 710 OFFCURVE",
"207 705 OFFCURVE",
"147 705 CURVE SMOOTH"
);
}
);
width = 317;
},
{
anchors = (
{
name = top;
position = "{177, 720}";
}
);
background = {
paths = (
{
closed = 1;
nodes = (
"329 629 LINE",
"324 710 LINE",
"324 710 OFFCURVE",
"243 705 OFFCURVE",
"130 705 CURVE SMOOTH",
"83 705 OFFCURVE",
"30 710 OFFCURVE",
"30 710 CURVE",
"25 635 LINE",
"90 623 LINE",
"93 608 OFFCURVE",
"99 562 OFFCURVE",
"99 512 CURVE SMOOTH",
"99 11 LINE SMOOTH",
"99 -9 OFFCURVE",
"23 -169 OFFCURVE",
"23 -169 CURVE",
"77 -200 LINE",
"173 -111 OFFCURVE",
"254 -23 OFFCURVE",
"254 10 CURVE SMOOTH",
"254 542 LINE SMOOTH",
"254 562 OFFCURVE",
"261 614 OFFCURVE",
"263 623 CURVE"
);
}
);
};
layerId = "16643525-C5DD-48EC-8E99-463BF28F5E85";
paths = (
{
closed = 1;
nodes = (
"30 710 CURVE",
"25 635 LINE",
"90 623 LINE",
"93 608 OFFCURVE",
"99 562 OFFCURVE",
"99 542 CURVE SMOOTH",
"99 11 LINE SMOOTH",
"99 -9 OFFCURVE",
"23 -169 OFFCURVE",
"23 -169 CURVE",
"77 -200 LINE",
"173 -111 OFFCURVE",
"254 -23 OFFCURVE",
"254 10 CURVE SMOOTH",
"254 512 LINE SMOOTH",
"254 552 OFFCURVE",
"261 614 OFFCURVE",
"263 623 CURVE",
"329 629 LINE",
"324 710 LINE",
"324 710 OFFCURVE",
"230 705 OFFCURVE",
"150 705 CURVE SMOOTH",
"120 705 OFFCURVE",
"30 710 OFFCURVE"
);
}
);
width = 353;
},
{
anchors = (
{
name = top;
position = "{227, 720}";
}
);
background = {
paths = (
{
closed = 1;
nodes = (
"343 651 LINE",
"348 710 LINE",
"348 710 OFFCURVE",
"291 705 OFFCURVE",
"212 705 CURVE SMOOTH",
"192 705 OFFCURVE",
"101 710 OFFCURVE",
"101 710 CURVE",
"88 656 LINE",
"161 644 LINE",
"161 631 OFFCURVE",
"161 585 OFFCURVE",
"158 568 CURVE SMOOTH",
"77 11 LINE SMOOTH",
"74 -9 OFFCURVE",
"-28 -178 OFFCURVE",
"-28 -178 CURVE",
"3 -200 LINE",
"58 -144 OFFCURVE",
"161 -37 OFFCURVE",
"165 -10 CURVE SMOOTH",
"245 538 LINE SMOOTH",
"251 580 OFFCURVE",
"263 630 OFFCURVE",
"267 644 CURVE"
);
}
);
};
layerId = "08C09966-8326-41C9-AE3D-74AAC6FC1D13";
paths = (
{
closed = 1;
nodes = (
"245 538 LINE SMOOTH",
"249 568 OFFCURVE",
"263 630 OFFCURVE",
"267 644 CURVE",
"343 651 LINE",
"348 710 LINE",
"348 710 OFFCURVE",
"276 705 OFFCURVE",
"216 705 CURVE SMOOTH",
"196 705 OFFCURVE",
"101 710 OFFCURVE",
"101 710 CURVE",
"88 656 LINE",
"161 644 LINE",
"161 631 OFFCURVE",
"160 583 OFFCURVE",
"158 568 CURVE SMOOTH",
"77 11 LINE",
"74 -9 OFFCURVE",
"-28 -178 OFFCURVE",
"-28 -178 CURVE",
"3 -200 LINE",
"58 -144 OFFCURVE",
"161 -37 OFFCURVE",
"165 -10 CURVE SMOOTH"
);
}
);
width = 315;
},
{
anchors = (
{
name = top;
position = "{244, 720}";
}
);
background = {
paths = (
{
closed = 1;
nodes = (
"380 629 LINE",
"387 710 LINE",
"387 710 OFFCURVE",
"306 705 OFFCURVE",
"194 705 CURVE SMOOTH",
"147 705 OFFCURVE",
"99 710 OFFCURVE",
"99 710 CURVE",
"83 635 LINE",
"144 623 LINE",
"144 608 OFFCURVE",
"143 562 OFFCURVE",
"136 512 CURVE SMOOTH",
"63 11 LINE SMOOTH",
"60 -9 OFFCURVE",
"-37 -169 OFFCURVE",
"-37 -169 CURVE",
"13 -200 LINE",
"122 -111 OFFCURVE",
"213 -23 OFFCURVE",
"218 10 CURVE SMOOTH",
"295 542 LINE SMOOTH",
"298 562 OFFCURVE",
"313 614 OFFCURVE",
"316 623 CURVE"
);
}
);
};
layerId = "B953D09C-6DD0-450A-A78C-8C2188DD4016";
paths = (
{
closed = 1;
nodes = (
"63 11 LINE",
"60 -9 OFFCURVE",
"-37 -169 OFFCURVE",
"-37 -169 CURVE",
"13 -200 LINE",
"122 -111 OFFCURVE",
"213 -23 OFFCURVE",
"218 10 CURVE",
"295 542 LINE SMOOTH",
"298 562 OFFCURVE",
"311 608 OFFCURVE",
"316 623 CURVE",
"380 629 LINE",
"387 710 LINE",
"387 710 OFFCURVE",
"299 705 OFFCURVE",
"219 705 CURVE SMOOTH",
"189 705 OFFCURVE",
"99 710 OFFCURVE",
"99 710 CURVE",
"83 635 LINE",
"144 623 LINE",
"144 608 OFFCURVE",
"143 562 OFFCURVE",
"136 512 CURVE SMOOTH"
);
}
);
width = 349;
}
);
leftKerningGroup = J;
rightKerningGroup = J;
unicode = 004A;
},
{
color = 0;
glyphname = K;
lastChange = "2018-05-29 07:25:28 +0000";
layers = (
{
anchors = (
{
name = bottom;
position = "{343, 0}";
},
{
name = top;
position = "{343, 720}";
}
);
background = {
paths = (
{
closed = 1;
nodes = (
"664 710 LINE",
"664 710 OFFCURVE",
"586 705 OFFCURVE",
"526 705 CURVE SMOOTH",
"506 705 OFFCURVE",
"411 710 OFFCURVE",
"411 710 CURVE",
"406 656 LINE",
"483 644 LINE",
"485 631 OFFCURVE",
"492 585 OFFCURVE",
"492 568 CURVE SMOOTH",
"492 137 LINE SMOOTH",
"492 120 OFFCURVE",
"485 74 OFFCURVE",
"483 61 CURVE",
"404 45 LINE",
"409 -5 LINE",
"409 -5 OFFCURVE",
"519 0 OFFCURVE",
"544 0 CURVE",
"673 0 LINE",
"680 54 LINE",
"590 61 LINE",
"588 75 OFFCURVE",
"583 125 OFFCURVE",
"583 167 CURVE SMOOTH",
"583 538 LINE SMOOTH",
"583 580 OFFCURVE",
"588 630 OFFCURVE",
"590 644 CURVE",
"668 651 LINE"
);
}
);
};
layerId = UUID0;
paths = (
{
closed = 1;
nodes = (
"472 705 OFFCURVE",
"397 710 OFFCURVE",
"397 710 CURVE",
"392 656 LINE",
"446 645 LINE",
"407 577 LINE",
"225 353 LINE",
"225 353 OFFCURVE",
"369 188 OFFCURVE",
"390 164 CURVE",
"407 142 OFFCURVE",
"444 85 OFFCURVE",
"460 59 CURVE",
"401 45 LINE",
"406 -5 LINE",
"406 -5 OFFCURVE",
"519 0 OFFCURVE",
"544 0 CURVE",
"675 0 LINE",
"682 54 LINE",
"612 61 LINE",
"588 81 OFFCURVE",
"550 113 OFFCURVE",
"535 129 CURVE",
"466 209 OFFCURVE",
"394 290 OFFCURVE",
"324 370 CURVE",
"456 546 LINE",
"486 576 OFFCURVE",
"532 620 OFFCURVE",
"558 644 CURVE",
"634 651 LINE",
"630 710 LINE",
"630 710 OFFCURVE",
"552 705 OFFCURVE",
"492 705 CURVE SMOOTH"
);
},
{
closed = 1;
nodes = (
"296 710 LINE",
"296 710 OFFCURVE",
"218 705 OFFCURVE",
"158 705 CURVE SMOOTH",
"138 705 OFFCURVE",
"43 710 OFFCURVE",
"43 710 CURVE",
"38 656 LINE",
"115 644 LINE",
"117 631 OFFCURVE",
"124 585 OFFCURVE",
"124 568 CURVE SMOOTH",
"124 137 LINE SMOOTH",
"124 120 OFFCURVE",
"117 74 OFFCURVE",
"115 61 CURVE",
"36 45 LINE",
"41 -5 LINE",
"41 -5 OFFCURVE",
"151 0 OFFCURVE",
"176 0 CURVE",
"305 0 LINE",
"312 54 LINE",
"222 61 LINE",
"220 75 OFFCURVE",
"215 125 OFFCURVE",
"215 167 CURVE SMOOTH",
"215 538 LINE SMOOTH",
"215 580 OFFCURVE",
"220 630 OFFCURVE",
"222 644 CURVE",
"300 651 LINE"
);
}
);
width = 705;
},
{
anchors = (
{
name = bottom;
position = "{365, 0}";
},
{
name = top;
position = "{365, 720}";
}
);
background = {
paths = (
{
closed = 1;
nodes = (
"432 710 CURVE",
"427 635 LINE",
"458 629 LINE",
"430 577 LINE",
"268 353 LINE",
"268 353 OFFCURVE",
"397 188 OFFCURVE",
"418 164 CURVE",
"432 145 OFFCURVE",
"459 102 OFFCURVE",
"477 73 CURVE",
"438 65 LINE",
"443 -5 LINE",
"443 -5 OFFCURVE",
"553 0 OFFCURVE",
"603 0 CURVE",
"740 0 LINE",
"745 71 LINE",
"697 77 LINE",
"677 95 OFFCURVE",
"652 117 OFFCURVE",
"642 129 CURVE",
"575 209 OFFCURVE",
"505 290 OFFCURVE",
"437 370 CURVE",
"566 546 LINE",
"587 569 OFFCURVE",
"617 599 OFFCURVE",
"642 623 CURVE",
"700 629 LINE",
"695 710 LINE",
"695 710 OFFCURVE",
"609 705 OFFCURVE",
"529 705 CURVE SMOOTH",
"499 705 OFFCURVE",
"432 710 OFFCURVE"
);
},
{
closed = 1;
nodes = (
"334 710 LINE",
"334 710 OFFCURVE",
"240 705 OFFCURVE",
"160 705 CURVE SMOOTH",
"130 705 OFFCURVE",
"40 710 OFFCURVE",
"40 710 CURVE",
"35 635 LINE",
"100 623 LINE",
"102 607 OFFCURVE",
"109 562 OFFCURVE",
"109 512 CURVE SMOOTH",
"109 163 LINE SMOOTH",
"109 143 OFFCURVE",
"101 87 OFFCURVE",
"100 77 CURVE",
"34 65 LINE",
"39 -5 LINE",
"39 -5 OFFCURVE",
"159 0 OFFCURVE",
"189 0 CURVE",
"333 0 LINE",
"338 71 LINE",
"273 77 LINE",
"271 91 OFFCURVE",
"264 143 OFFCURVE",
"264 193 CURVE SMOOTH",
"264 542 LINE SMOOTH",
"264 562 OFFCURVE",
"270 608 OFFCURVE",
"273 623 CURVE",
"339 629 LINE"
);
}
);
};
layerId = "16643525-C5DD-48EC-8E99-463BF28F5E85";
paths = (
{
closed = 1;
nodes = (
"499 705 OFFCURVE",
"432 710 OFFCURVE",
"432 710 CURVE",
"427 635 LINE",
"458 629 LINE",
"430 577 LINE SMOOTH",
"268 353 LINE",
"268 353 OFFCURVE",
"397 188 OFFCURVE",
"418 164 CURVE",
"432 145 OFFCURVE",
"459 102 OFFCURVE",
"477 73 CURVE",
"438 65 LINE",
"443 -5 LINE",
"443 -5 OFFCURVE",
"553 0 OFFCURVE",
"603 0 CURVE",
"740 0 LINE",
"745 71 LINE",
"697 77 LINE",
"677 95 OFFCURVE",
"652 117 OFFCURVE",
"642 129 CURVE",
"575 209 OFFCURVE",
"505 290 OFFCURVE",
"437 370 CURVE",
"566 546 LINE",
"587 569 OFFCURVE",
"617 599 OFFCURVE",
"642 623 CURVE",
"700 629 LINE",
"695 710 LINE",
"695 710 OFFCURVE",
"609 705 OFFCURVE",
"529 705 CURVE SMOOTH"
);
},
{
closed = 1;
nodes = (
"334 710 LINE",
"334 710 OFFCURVE",
"240 705 OFFCURVE",
"160 705 CURVE SMOOTH",
"130 705 OFFCURVE",
"40 710 OFFCURVE",
"40 710 CURVE",
"35 635 LINE",
"100 623 LINE",
"102 607 OFFCURVE",
"109 562 OFFCURVE",
"109 542 CURVE SMOOTH",
"109 163 LINE SMOOTH",
"109 143 OFFCURVE",
"101 87 OFFCURVE",
"100 77 CURVE",
"34 65 LINE",
"39 -5 LINE",
"39 -5 OFFCURVE",
"159 0 OFFCURVE",
"189 0 CURVE",
"333 0 LINE",
"338 71 LINE",
"273 77 LINE",
"271 91 OFFCURVE",
"264 153 OFFCURVE",
"264 193 CURVE SMOOTH",
"264 512 LINE SMOOTH",
"264 552 OFFCURVE",
"270 608 OFFCURVE",
"273 623 CURVE",
"339 629 LINE"
);
}
);
width = 766;
},
{
anchors = (
{
name = bottom;
position = "{323, 0}";
},
{
name = top;
position = "{238, 720}";
}
);
background = {
paths = (
{
closed = 1;
nodes = (
"638 54 LINE",
"572 61 LINE",
"552 81 OFFCURVE",
"520 113 OFFCURVE",
"508 129 CURVE",
"453 209 OFFCURVE",
"395 290 OFFCURVE",
"339 370 CURVE",
"499 546 LINE",
"532 576 OFFCURVE",
"576 620 OFFCURVE",
"605 644 CURVE",
"679 651 LINE",
"683 710 LINE",
"683 710 OFFCURVE",
"618 705 OFFCURVE",
"558 705 CURVE SMOOTH",
"538 705 OFFCURVE",
"456 710 OFFCURVE",
"456 710 CURVE",
"443 656 LINE",
"493 645 LINE",
"446 577 LINE",
"238 353 LINE",
"238 353 OFFCURVE",
"353 188 OFFCURVE",
"369 164 CURVE",
"383 142 OFFCURVE",
"410 85 OFFCURVE",
"422 59 CURVE",
"363 45 LINE",
"361 -5 LINE",
"361 -5 OFFCURVE",
"471 0 OFFCURVE",
"496 0 CURVE SMOOTH",
"575 0 OFFCURVE",
"624 0 OFFCURVE",
"624 0 CURVE"
);
},
{
closed = 1;
nodes = (
"359 710 LINE",
"359 710 OFFCURVE",
"287 705 OFFCURVE",
"227 705 CURVE SMOOTH",
"207 705 OFFCURVE",
"112 710 OFFCURVE",
"112 710 CURVE",
"99 656 LINE",
"172 644 LINE",
"172 631 OFFCURVE",
"172 585 OFFCURVE",
"169 568 CURVE SMOOTH",
"106 137 LINE SMOOTH",
"104 120 OFFCURVE",
"90 74 OFFCURVE",
"87 61 CURVE",
"8 45 LINE",
"6 -5 LINE",
"6 -5 OFFCURVE",
"116 0 OFFCURVE",
"141 0 CURVE SMOOTH",
"220 0 OFFCURVE",
"264 0 OFFCURVE",
"264 0 CURVE",
"278 54 LINE",
"193 61 LINE",
"193 75 OFFCURVE",
"196 125 OFFCURVE",
"202 167 CURVE SMOOTH",
"256 538 LINE SMOOTH",
"262 580 OFFCURVE",
"274 630 OFFCURVE",
"278 644 CURVE",
"354 651 LINE"
);
}
);
};
layerId = "08C09966-8326-41C9-AE3D-74AAC6FC1D13";
paths = (
{
closed = 1;
nodes = (
"638 54 LINE",
"572 61 LINE",
"552 81 OFFCURVE",
"520 113 OFFCURVE",
"508 129 CURVE",
"453 209 OFFCURVE",
"395 290 OFFCURVE",
"339 370 CURVE",
"499 546 LINE",
"532 576 OFFCURVE",
"576 620 OFFCURVE",
"605 644 CURVE",
"679 651 LINE",
"683 710 LINE",
"683 710 OFFCURVE",
"618 705 OFFCURVE",
"558 705 CURVE SMOOTH",
"538 705 OFFCURVE",
"456 710 OFFCURVE",
"456 710 CURVE",
"443 656 LINE",
"493 645 LINE",
"446 577 LINE",
"238 353 LINE",
"238 353 OFFCURVE",
"353 188 OFFCURVE",
"369 164 CURVE",
"383 142 OFFCURVE",
"410 85 OFFCURVE",
"422 59 CURVE",
"363 45 LINE",
"361 -5 LINE",
"361 -5 OFFCURVE",
"471 0 OFFCURVE",
"496 0 CURVE SMOOTH",
"575 0 OFFCURVE",
"624 0 OFFCURVE",
"624 0 CURVE"
);
},
{
closed = 1;
nodes = (
"359 710 LINE",
"359 710 OFFCURVE",
"287 705 OFFCURVE",
"227 705 CURVE SMOOTH",
"207 705 OFFCURVE",
"112 710 OFFCURVE",
"112 710 CURVE",
"99 656 LINE",
"172 644 LINE",
"172 631 OFFCURVE",
"171 583 OFFCURVE",
"169 568 CURVE SMOOTH",
"106 137 LINE SMOOTH",
"104 122 OFFCURVE",
"90 74 OFFCURVE",
"87 61 CURVE",
"8 45 LINE",
"6 -5 LINE",
"6 -5 OFFCURVE",
"116 0 OFFCURVE",
"141 0 CURVE SMOOTH",
"220 0 OFFCURVE",
"264 0 OFFCURVE",
"264 0 CURVE",
"278 54 LINE",
"193 61 LINE",
"193 75 OFFCURVE",
"198 137 OFFCURVE",
"202 167 CURVE SMOOTH",
"256 538 LINE SMOOTH",
"260 568 OFFCURVE",
"274 630 OFFCURVE",
"278 644 CURVE",
"354 651 LINE"
);
}
);
width = 688;
},
{
anchors = (
{
name = bottom;
position = "{333, 0}";
},
{
name = top;
position = "{252, 720}";
}
);
background = {
paths = (
{
closed = 0;
nodes = (
"438 73 LINE",
"399 65 LINE",
"404 -5 LINE",
"404 -5 OFFCURVE",
"514 0 OFFCURVE",
"564 0 CURVE",
"701 0 LINE",
"706 71 LINE",
"658 77 LINE"
);
}
);
};
layerId = "B953D09C-6DD0-450A-A78C-8C2188DD4016";
paths = (
{
closed = 1;
nodes = (
"702 71 LINE",
"658 77 LINE",
"642 94 OFFCURVE",
"622 117 OFFCURVE",
"614 129 CURVE SMOOTH",
"451 370 LINE",
"602 546 LINE SMOOTH",
"623 570 OFFCURVE",
"657 600 OFFCURVE",
"685 623 CURVE",
"740 629 LINE",
"747 710 LINE",
"747 710 OFFCURVE",
"680 705 OFFCURVE",
"610 705 CURVE SMOOTH",
"580 705 OFFCURVE",
"490 710 OFFCURVE",
"490 710 CURVE",
"474 635 LINE",
"502 629 LINE",
"492 612 OFFCURVE",
"482 593 OFFCURVE",
"468 577 CURVE SMOOTH",
"280 353 LINE",
"396 164 LINE SMOOTH",
"408 145 OFFCURVE",
"429 98 OFFCURVE",
"440 73 CURVE",
"402 65 LINE",
"397 -5 LINE",
"397 -5 OFFCURVE",
"517 0 OFFCURVE",
"547 0 CURVE SMOOTH",
"658 0 OFFCURVE",
"687 0 OFFCURVE",
"687 0 CURVE"
);
},
{
closed = 1;
nodes = (
"395 710 LINE",
"395 710 OFFCURVE",
"307 705 OFFCURVE",
"227 705 CURVE SMOOTH",
"197 705 OFFCURVE",
"107 710 OFFCURVE",
"107 710 CURVE",
"91 635 LINE",
"152 623 LINE",
"152 608 OFFCURVE",
"151 562 OFFCURVE",
"144 512 CURVE SMOOTH",
"93 163 LINE SMOOTH",
"90 143 OFFCURVE",
"77 92 OFFCURVE",
"72 77 CURVE",
"7 65 LINE",
"2 -5 LINE",
"2 -5 OFFCURVE",
"122 0 OFFCURVE",
"152 0 CURVE",
"290 0 LINE",
"305 70 LINE",
"244 77 LINE",
"244 92 OFFCURVE",
"245 143 OFFCURVE",
"253 193 CURVE SMOOTH",
"303 542 LINE SMOOTH",
"306 562 OFFCURVE",
"319 608 OFFCURVE",
"324 623 CURVE",
"388 629 LINE"
);
}
);
width = 748;
}
);
leftKerningGroup = H;
rightKerningGroup = X;
unicode = 004B;
},
{
color = 0;
glyphname = L;
lastChange = "2018-05-29 09:31:00 +0000";
layers = (
{
anchors = (
{
name = bottom;
position = "{261, 0}";
},
{
name = middle;
position = "{381, 382}";
},
{
name = mitteright;
position = "{437, 408}";
},
{
name = top;
position = "{172, 720}";
}
);
background = {
paths = (
{
closed = 1;
nodes = (
"112 705 OFFCURVE",
"17 710 OFFCURVE",
"17 710 CURVE",
"12 656 LINE",
"89 644 LINE",
"91 631 OFFCURVE",
"98 585 OFFCURVE",
"98 568 CURVE SMOOTH",
"98 137 LINE SMOOTH",
"98 120 OFFCURVE",
"91 74 OFFCURVE",
"89 61 CURVE",
"10 45 LINE",
"15 -5 LINE",
"15 -5 OFFCURVE",
"125 0 OFFCURVE",
"150 0 CURVE SMOOTH",
"370 0 LINE SMOOTH",
"390 0 OFFCURVE",
"484 -4 OFFCURVE",
"484 -4 CURVE",
"503 14 LINE",
"518 165 LINE",
"463 170 LINE",
"461 154 OFFCURVE",
"451 118 OFFCURVE",
"448 103 CURVE SMOOTH",
"446 94 OFFCURVE",
"437 80 OFFCURVE",
"427 66 CURVE",
"405 62 OFFCURVE",
"371 57 OFFCURVE",
"340 57 CURVE SMOOTH",
"196 57 LINE",
"194 76 OFFCURVE",
"189 127 OFFCURVE",
"189 167 CURVE SMOOTH",
"189 338 LINE",
"285 338 LINE",
"305 338 OFFCURVE",
"365 332 OFFCURVE",
"365 332 CURVE",
"374 265 LINE",
"422 271 LINE",
"422 271 OFFCURVE",
"419 330 OFFCURVE",
"419 380 CURVE SMOOTH",
"419 400 OFFCURVE",
"420 464 OFFCURVE",
"420 464 CURVE",
"374 469 LINE",
"365 403 LINE",
"365 403 OFFCURVE",
"325 394 OFFCURVE",
"305 394 CURVE",
"189 394 LINE",
"189 538 LINE SMOOTH",
"189 577 OFFCURVE",
"194 628 OFFCURVE",
"196 649 CURVE",
"327 649 LINE SMOOTH",
"355 649 OFFCURVE",
"386 646 OFFCURVE",
"408 644 CURVE",
"418 631 OFFCURVE",
"427 617 OFFCURVE",
"428 610 CURVE",
"432 595 OFFCURVE",
"437 572 OFFCURVE",
"439 556 CURVE",
"497 561 LINE",
"490 697 LINE",
"471 715 LINE",
"471 715 OFFCURVE",
"377 705 OFFCURVE",
"357 705 CURVE SMOOTH",
"132 705 LINE SMOOTH"
);
}
);
};
layerId = UUID0;
paths = (
{
closed = 1;
nodes = (
"138 705 OFFCURVE",
"43 710 OFFCURVE",
"43 710 CURVE",
"38 656 LINE",
"115 644 LINE",
"117 631 OFFCURVE",
"124 585 OFFCURVE",
"124 568 CURVE SMOOTH",
"124 137 LINE SMOOTH",
"124 120 OFFCURVE",
"117 74 OFFCURVE",
"115 61 CURVE",
"36 45 LINE",
"41 -5 LINE",
"41 -5 OFFCURVE",
"151 0 OFFCURVE",
"176 0 CURVE SMOOTH",
"370 0 LINE SMOOTH",
"390 0 OFFCURVE",
"484 -4 OFFCURVE",
"484 -4 CURVE",
"503 14 LINE",
"518 165 LINE",
"463 170 LINE",
"461 154 OFFCURVE",
"452 118 OFFCURVE",
"448 103 CURVE",
"447 96 OFFCURVE",
"437 80 OFFCURVE",
"427 66 CURVE",
"405 62 OFFCURVE",
"371 57 OFFCURVE",
"340 57 CURVE SMOOTH",
"222 57 LINE",
"220 72 OFFCURVE",
"215 126 OFFCURVE",
"215 167 CURVE SMOOTH",
"215 538 LINE SMOOTH",
"215 580 OFFCURVE",
"220 630 OFFCURVE",
"222 644 CURVE",
"310 651 LINE",
"306 710 LINE",
"306 710 OFFCURVE",
"218 705 OFFCURVE",
"158 705 CURVE SMOOTH"
);
}
);
width = 549;
},
{
anchors = (
{
name = bottom;
position = "{272, 0}";
},
{
name = middle;
position = "{425, 382}";
},
{
name = mitteright;
position = "{457, 388}";
},
{
name = top;
position = "{172, 720}";
}
);
background = {
paths = (
{
closed = 1;
nodes = (
"40 710 CURVE",
"35 635 LINE",
"100 623 LINE",
"102 607 OFFCURVE",
"109 562 OFFCURVE",
"109 512 CURVE SMOOTH",
"109 163 LINE SMOOTH",
"109 143 OFFCURVE",
"101 87 OFFCURVE",
"100 77 CURVE",
"34 65 LINE",
"39 -5 LINE",
"39 -5 OFFCURVE",
"159 0 OFFCURVE",
"189 0 CURVE SMOOTH",
"396 0 LINE SMOOTH",
"416 0 OFFCURVE",
"510 -4 OFFCURVE",
"510 -4 CURVE",
"529 14 LINE",
"544 190 LINE",
"474 195 LINE",
"472 179 OFFCURVE",
"466 153 OFFCURVE",
"462 138 CURVE",
"461 132 OFFCURVE",
"452 114 OFFCURVE",
"443 95 CURVE",
"424 91 OFFCURVE",
"395 87 OFFCURVE",
"366 87 CURVE SMOOTH",
"272 87 LINE",
"269 108 OFFCURVE",
"264 151 OFFCURVE",
"264 193 CURVE SMOOTH",
"264 542 LINE SMOOTH",
"264 562 OFFCURVE",
"270 608 OFFCURVE",
"273 623 CURVE",
"349 629 LINE",
"344 710 LINE",
"344 710 OFFCURVE",
"240 705 OFFCURVE",
"160 705 CURVE SMOOTH",
"130 705 OFFCURVE",
"40 710 OFFCURVE"
);
}
);
};
layerId = "16643525-C5DD-48EC-8E99-463BF28F5E85";
paths = (
{
closed = 1;
nodes = (
"189 0 LINE",
"396 0 LINE SMOOTH",
"416 0 OFFCURVE",
"510 -4 OFFCURVE",
"510 -4 CURVE",
"529 14 LINE",
"544 190 LINE",
"474 195 LINE",
"472 179 OFFCURVE",
"466 153 OFFCURVE",
"462 138 CURVE",
"461 132 OFFCURVE",
"452 114 OFFCURVE",
"443 95 CURVE",
"424 91 OFFCURVE",
"395 87 OFFCURVE",
"366 87 CURVE SMOOTH",
"182 87 LINE"
);
},
{
closed = 1;
nodes = (
"344 710 LINE",
"344 710 OFFCURVE",
"240 705 OFFCURVE",
"160 705 CURVE SMOOTH",
"130 705 OFFCURVE",
"40 710 OFFCURVE",
"40 710 CURVE",
"35 635 LINE",
"100 623 LINE",
"102 607 OFFCURVE",
"109 562 OFFCURVE",
"109 542 CURVE SMOOTH",
"109 163 LINE SMOOTH",
"109 143 OFFCURVE",
"101 87 OFFCURVE",
"100 77 CURVE",
"34 65 LINE",
"39 -5 LINE",
"39 -5 OFFCURVE",
"159 0 OFFCURVE",
"189 0 CURVE",
"273 77 LINE",
"271 91 OFFCURVE",
"264 153 OFFCURVE",
"264 193 CURVE SMOOTH",
"264 512 LINE SMOOTH",
"264 552 OFFCURVE",
"270 608 OFFCURVE",
"273 623 CURVE",
"349 629 LINE"
);
}
);
width = 572;
},
{
anchors = (
{
name = bottom;
position = "{247, 0}";
},
{
name = middle;
position = "{378, 382}";
},
{
name = mitteright;
position = "{435, 388}";
},
{
name = top;
position = "{239, 720}";
}
);
background = {
paths = (
{
closed = 1;
nodes = (
"115 0 LINE",
"326 0 LINE SMOOTH",
"346 0 OFFCURVE",
"436 -4 OFFCURVE",
"436 -4 CURVE",
"457 14 LINE",
"494 165 LINE",
"441 170 LINE",
"436 154 OFFCURVE",
"423 118 OFFCURVE",
"416 103 CURVE SMOOTH",
"412 94 OFFCURVE",
"402 80 OFFCURVE",
"391 66 CURVE",
"369 62 OFFCURVE",
"335 57 OFFCURVE",
"305 57 CURVE SMOOTH",
"167 57 LINE"
);
},
{
closed = 1;
nodes = (
"359 710 LINE",
"359 710 OFFCURVE",
"287 705 OFFCURVE",
"227 705 CURVE SMOOTH",
"207 705 OFFCURVE",
"112 710 OFFCURVE",
"112 710 CURVE",
"99 656 LINE",
"172 644 LINE",
"172 631 OFFCURVE",
"172 585 OFFCURVE",
"169 568 CURVE SMOOTH",
"106 137 LINE SMOOTH",
"104 120 OFFCURVE",
"90 74 OFFCURVE",
"87 61 CURVE",
"8 45 LINE",
"6 -5 LINE",
"6 -5 OFFCURVE",
"116 0 OFFCURVE",
"141 0 CURVE",
"192 56 LINE",
"192 70 OFFCURVE",
"196 125 OFFCURVE",
"202 167 CURVE SMOOTH",
"256 538 LINE SMOOTH",
"262 580 OFFCURVE",
"274 630 OFFCURVE",
"278 644 CURVE",
"354 651 LINE"
);
}
);
};
layerId = "08C09966-8326-41C9-AE3D-74AAC6FC1D13";
paths = (
{
closed = 1;
nodes = (
"141 0 LINE",
"326 0 LINE SMOOTH",
"346 0 OFFCURVE",
"436 -4 OFFCURVE",
"436 -4 CURVE",
"457 14 LINE",
"494 165 LINE",
"441 170 LINE",
"436 154 OFFCURVE",
"423 118 OFFCURVE",
"416 103 CURVE SMOOTH",
"412 94 OFFCURVE",
"402 80 OFFCURVE",
"391 66 CURVE",
"369 62 OFFCURVE",
"335 57 OFFCURVE",
"305 57 CURVE SMOOTH",
"193 57 LINE"
);
},
{
closed = 1;
nodes = (
"359 710 LINE",
"359 710 OFFCURVE",
"287 705 OFFCURVE",
"227 705 CURVE SMOOTH",
"207 705 OFFCURVE",
"112 710 OFFCURVE",
"112 710 CURVE",
"99 656 LINE",
"172 644 LINE",
"172 631 OFFCURVE",
"171 583 OFFCURVE",
"169 568 CURVE SMOOTH",
"106 137 LINE SMOOTH",
"104 122 OFFCURVE",
"90 74 OFFCURVE",
"87 61 CURVE",
"8 45 LINE",
"6 -5 LINE",
"6 -5 OFFCURVE",
"116 0 OFFCURVE",
"141 0 CURVE",
"193 57 LINE",
"193 71 OFFCURVE",
"198 137 OFFCURVE",
"202 167 CURVE SMOOTH",
"256 538 LINE SMOOTH",
"260 568 OFFCURVE",
"274 630 OFFCURVE",
"278 644 CURVE",
"354 651 LINE"
);
}
);
width = 537;
},
{
anchors = (
{
name = bottom;
position = "{272, 0}";
},
{
name = middle;
position = "{432, 382}";
},
{
name = mitteright;
position = "{457, 378}";
},
{
name = top;
position = "{248, 720}";
}
);
background = {
paths = (
{
closed = 1;
nodes = (
"152 0 LINE",
"351 0 LINE SMOOTH",
"370 0 OFFCURVE",
"461 -4 OFFCURVE",
"461 -4 CURVE",
"482 14 LINE",
"522 190 LINE",
"454 195 LINE",
"450 179 OFFCURVE",
"440 153 OFFCURVE",
"434 138 CURVE",
"432 132 OFFCURVE",
"421 114 OFFCURVE",
"410 95 CURVE",
"391 91 OFFCURVE",
"363 87 OFFCURVE",
"335 87 CURVE SMOOTH",
"205 87 LINE"
);
},
{
closed = 1;
nodes = (
"405 710 LINE",
"405 710 OFFCURVE",
"307 705 OFFCURVE",
"227 705 CURVE SMOOTH",
"197 705 OFFCURVE",
"107 710 OFFCURVE",
"107 710 CURVE",
"91 635 LINE",
"152 623 LINE",
"151 607 OFFCURVE",
"151 562 OFFCURVE",
"144 512 CURVE SMOOTH",
"93 163 LINE SMOOTH",
"90 143 OFFCURVE",
"75 87 OFFCURVE",
"72 77 CURVE",
"7 65 LINE",
"2 -5 LINE",
"2 -5 OFFCURVE",
"122 0 OFFCURVE",
"152 0 CURVE",
"244 77 LINE",
"244 91 OFFCURVE",
"245 143 OFFCURVE",
"253 193 CURVE SMOOTH",
"303 542 LINE SMOOTH",
"306 562 OFFCURVE",
"319 608 OFFCURVE",
"324 623 CURVE",
"398 629 LINE"
);
}
);
};
layerId = "B953D09C-6DD0-450A-A78C-8C2188DD4016";
paths = (
{
closed = 1;
nodes = (
"152 0 LINE",
"351 0 LINE SMOOTH",
"370 0 OFFCURVE",
"461 -4 OFFCURVE",
"461 -4 CURVE",
"482 14 LINE",
"522 190 LINE",
"454 195 LINE",
"450 179 OFFCURVE",
"440 153 OFFCURVE",
"434 138 CURVE",
"432 132 OFFCURVE",
"421 114 OFFCURVE",
"410 95 CURVE",
"391 91 OFFCURVE",
"363 87 OFFCURVE",
"335 87 CURVE SMOOTH",
"205 87 LINE"
);
},
{
closed = 1;
nodes = (
"405 710 LINE",
"405 710 OFFCURVE",
"307 705 OFFCURVE",
"227 705 CURVE SMOOTH",
"197 705 OFFCURVE",
"107 710 OFFCURVE",
"107 710 CURVE",
"91 635 LINE",
"152 623 LINE",
"152 608 OFFCURVE",
"151 562 OFFCURVE",
"144 512 CURVE SMOOTH",
"93 163 LINE SMOOTH",
"90 143 OFFCURVE",
"77 92 OFFCURVE",
"72 77 CURVE",
"7 65 LINE",
"2 -5 LINE",
"2 -5 OFFCURVE",
"122 0 OFFCURVE",
"152 0 CURVE",
"244 77 LINE",
"244 92 OFFCURVE",
"245 143 OFFCURVE",
"253 193 CURVE SMOOTH",
"303 542 LINE SMOOTH",
"306 562 OFFCURVE",
"319 608 OFFCURVE",
"324 623 CURVE",
"398 629 LINE"
);
}
);
width = 557;
}
);
leftKerningGroup = H;
rightKerningGroup = L;
unicode = 004C;
},
{
color = 1;
glyphname = Lcaron;
lastChange = "2018-05-16 11:35:16 +0000";
layers = (
{
background = {
paths = (
{
closed = 1;
nodes = (
"437 607 LINE",
"424 364 LINE",
"366 367 LINE",
"367 461 LINE",
"366 480 OFFCURVE",
"348 607 OFFCURVE",
"348 607 CURVE"
);
}
);
};
components = (
{
name = L;
},
{
name = caron.alt;
transform = "{1, 0, 0, 1, 356, 0}";
}
);
layerId = UUID0;
width = 533;
},
{
components = (
{
name = L;
},
{
name = caron.alt;
transform = "{1, 0, 0, 1, 365, 0}";
}
);
layerId = "16643525-C5DD-48EC-8E99-463BF28F5E85";
width = 548;
},
{
components = (
{
name = L;
},
{
name = caron.alt;
transform = "{1, 0, 0, 1, 361, 0}";
}
);
layerId = "08C09966-8326-41C9-AE3D-74AAC6FC1D13";
width = 519;
},
{
components = (
{
name = L;
},
{
name = caron.alt;
transform = "{1, 0, 0, 1, 395, 0}";
}
);
layerId = "B953D09C-6DD0-450A-A78C-8C2188DD4016";
width = 550;
}
);
leftKerningGroup = H;
rightKerningGroup = L;
unicode = 013D;
},
{
glyphname = Ldot;
lastChange = "2018-05-29 09:31:00 +0000";
layers = (
{
background = {
paths = (
{
closed = 1;
nodes = (
"422 480 OFFCURVE",
"446 454 OFFCURVE",
"446 410 CURVE SMOOTH",
"446 369 OFFCURVE",
"423 341 OFFCURVE",
"382 341 CURVE SMOOTH",
"341 341 OFFCURVE",
"318 369 OFFCURVE",
"318 410 CURVE SMOOTH",
"318 451 OFFCURVE",
"341 480 OFFCURVE",
"382 480 CURVE SMOOTH"
);
}
);
};
components = (
{
name = L;
},
{
name = periodcentered.loclCAT;
transform = "{1, 0, 0, 1, 278, 46}";
}
);
layerId = UUID0;
width = 549;
},
{
background = {
components = (
{
name = L;
},
{
name = dotaccentcomb;
transform = "{1, 0, 0, 1, 297, -272}";
}
);
};
components = (
{
name = L;
},
{
name = periodcentered.loclCAT;
transform = "{1, 0, 0, 1, 301, 26}";
}
);
layerId = "16643525-C5DD-48EC-8E99-463BF28F5E85";
width = 572;
},
{
background = {
components = (
{
name = L;
},
{
name = dotaccentcomb;
transform = "{1, 0, 0, 1, 197, -273}";
}
);
};
components = (
{
name = L;
},
{
name = periodcentered.loclCAT;
transform = "{1, 0, 0, 1, 306, -31}";
}
);
layerId = "08C09966-8326-41C9-AE3D-74AAC6FC1D13";
width = 537;
},
{
background = {
components = (
{
name = L;
},
{
name = dotaccentcomb;
transform = "{1, 0, 0, 1, 249, -274}";
}
);
};
components = (
{
name = L;
},
{
name = periodcentered.loclCAT;
transform = "{1, 0, 0, 1, 123, 26}";
}
);
layerId = "B953D09C-6DD0-450A-A78C-8C2188DD4016";
width = 557;
}
);
leftKerningGroup = H;
rightKerningGroup = L;
unicode = 013F;
},
{
color = 1;
glyphname = Lslash;
lastChange = "2018-05-29 07:43:40 +0000";
layers = (
{
background = {
paths = (
{
closed = 1;
nodes = (
"375 500 LINE",
"45 380 LINE",
"60 339 LINE",
"390 459 LINE"
);
}
);
};
components = (
{
name = L;
transform = "{1, 0, 0, 1, 15, 0}";
}
);
layerId = UUID0;
paths = (
{
closed = 1;
nodes = (
"48 371 LINE",
"63 329 LINE",
"381 445 LINE",
"371 488 LINE"
);
}
);
width = 564;
},
{
background = {
paths = (
{
closed = 1;
nodes = (
"474 494 LINE",
"62 344 LINE",
"84 284 LINE",
"496 434 LINE"
);
}
);
};
components = (
{
name = L;
transform = "{1, 0, 0, 1, 36, 0}";
}
);
layerId = "16643525-C5DD-48EC-8E99-463BF28F5E85";
paths = (
{
closed = 1;
nodes = (
"26 375 LINE",
"48 315 LINE",
"445 459 LINE",
"432 523 LINE"
);
}
);
width = 608;
},
{
background = {
paths = (
{
closed = 1;
nodes = (
"441 500 LINE",
"103 380 LINE",
"112 339 LINE",
"450 459 LINE"
);
}
);
};
components = (
{
name = L;
transform = "{1, 0, 0, 1, 19, 0}";
}
);
layerId = "08C09966-8326-41C9-AE3D-74AAC6FC1D13";
paths = (
{
closed = 1;
nodes = (
"57 371 LINE",
"66 329 LINE",
"400 445 LINE",
"396 488 LINE"
);
}
);
width = 556;
},
{
background = {
paths = (
{
closed = 1;
nodes = (
"482 494 LINE",
"60 344 LINE",
"73 284 LINE",
"494 434 LINE"
);
}
);
};
components = (
{
name = L;
transform = "{1, 0, 0, 1, 43, 0}";
}
);
layerId = "B953D09C-6DD0-450A-A78C-8C2188DD4016";
paths = (
{
closed = 1;
nodes = (
"39 375 LINE",
"52 315 LINE",
"470 459 LINE",
"466 523 LINE"
);
}
);
width = 600;
}
);
leftKerningGroup = H;
rightKerningGroup = L;
unicode = 0141;
},
{
color = 0;
glyphname = M;
lastChange = "2018-05-29 07:25:27 +0000";
layers = (
{
anchors = (
{
name = bottom;
position = "{451, 0}";
}
);
background = {
paths = (
{
closed = 1;
nodes = (
"670 705 LINE",
"650 685 LINE",
"650 685 OFFCURVE",
"607 559 OFFCURVE",
"597 537 CURVE",
"461 175 LINE",
"328 529 LINE",
"319 553 OFFCURVE",
"276 684 OFFCURVE",
"276 684 CURVE",
"257 705 LINE",
"178 705 LINE",
"158 705 OFFCURVE",
"63 710 OFFCURVE",
"63 710 CURVE",
"58 656 LINE",
"140 644 LINE",
"142 630 OFFCURVE",
"144 586 OFFCURVE",
"144 569 CURVE",
"118 132 LINE",
"115 115 OFFCURVE",
"104 74 OFFCURVE",
"101 61 CURVE",
"23 45 LINE",
"28 -5 LINE",
"28 -5 OFFCURVE",
"129 0 OFFCURVE",
"149 0 CURVE SMOOTH",
"264 0 LINE",
"271 54 LINE",
"190 61 LINE",
"189 77 OFFCURVE",
"185 134 OFFCURVE",
"185 162 CURVE",
"209 584 LINE",
"428 0 LINE",
"464 0 LINE",
"683 584 LINE",
"710 162 LINE",
"710 134 OFFCURVE",
"706 76 OFFCURVE",
"705 61 CURVE",
"628 45 LINE",
"633 -5 LINE",
"633 -5 OFFCURVE",
"743 0 OFFCURVE",
"768 0 CURVE",
"897 0 LINE",
"904 54 LINE",
"822 61 LINE",
"819 74 OFFCURVE",
"809 115 OFFCURVE",
"806 132 CURVE",
"772 569 LINE",
"772 586 OFFCURVE",
"773 632 OFFCURVE",
"775 644 CURVE",
"855 651 LINE",
"851 710 LINE",
"851 710 OFFCURVE",
"756 705 OFFCURVE",
"696 705 CURVE SMOOTH"
);
}
);
};
layerId = UUID0;
paths = (
{
closed = 1;
nodes = (
"670 705 LINE",
"650 685 LINE",
"650 685 OFFCURVE",
"607 559 OFFCURVE",
"597 537 CURVE",
"461 175 LINE",
"328 529 LINE",
"319 553 OFFCURVE",
"276 684 OFFCURVE",
"276 684 CURVE",
"257 705 LINE",
"178 705 LINE",
"158 705 OFFCURVE",
"63 710 OFFCURVE",
"63 710 CURVE",
"58 656 LINE",
"140 644 LINE",
"142 630 OFFCURVE",
"145 586 OFFCURVE",
"144 569 CURVE SMOOTH",
"118 137 LINE SMOOTH",
"117 120 OFFCURVE",
"104 74 OFFCURVE",
"101 61 CURVE",
"23 45 LINE",
"28 -5 LINE",
"28 -5 OFFCURVE",
"129 0 OFFCURVE",
"149 0 CURVE SMOOTH",
"264 0 LINE",
"271 54 LINE",
"190 61 LINE",
"189 77 OFFCURVE",
"183 139 OFFCURVE",
"185 167 CURVE SMOOTH",
"209 584 LINE",
"428 0 LINE",
"464 0 LINE",
"683 584 LINE",
"711 137 LINE SMOOTH",
"713 109 OFFCURVE",
"706 76 OFFCURVE",
"705 61 CURVE",
"628 45 LINE",
"633 -5 LINE",
"633 -5 OFFCURVE",
"743 0 OFFCURVE",
"768 0 CURVE",
"897 0 LINE",
"904 54 LINE",
"822 61 LINE",
"819 74 OFFCURVE",
"804 150 OFFCURVE",
"803 167 CURVE SMOOTH",
"774 538 LINE SMOOTH",
"773 555 OFFCURVE",
"774 602 OFFCURVE",
"775 644 CURVE",
"855 651 LINE",
"851 710 LINE",
"851 710 OFFCURVE",
"756 705 OFFCURVE",
"696 705 CURVE SMOOTH"
);
}
);
width = 926;
},
{
anchors = (
{
name = bottom;
position = "{465, 0}";
}
);
background = {
paths = (
{
closed = 1;
nodes = (
"650 705 LINE",
"630 685 LINE",
"630 685 OFFCURVE",
"597 572 OFFCURVE",
"589 549 CURVE",
"477 221 LINE",
"374 534 LINE",
"362 571 OFFCURVE",
"331 685 OFFCURVE",
"331 685 CURVE",
"311 705 LINE",
"184 705 LINE",
"164 705 OFFCURVE",
"64 710 OFFCURVE",
"64 710 CURVE",
"59 635 LINE",
"126 623 LINE",
"129 605 OFFCURVE",
"132 581 OFFCURVE",
"132 569 CURVE",
"104 132 LINE",
"101 119 OFFCURVE",
"96 95 OFFCURVE",
"91 77 CURVE",
"22 65 LINE",
"27 -5 LINE",
"27 -5 OFFCURVE",
"117 0 OFFCURVE",
"147 0 CURVE",
"282 0 LINE",
"288 71 LINE",
"220 77 LINE",
"218 100 OFFCURVE",
"216 140 OFFCURVE",
"216 162 CURVE",
"235 518 LINE",
"414 0 LINE",
"506 0 LINE",
"690 518 LINE",
"706 162 LINE",
"706 140 OFFCURVE",
"704 100 OFFCURVE",
"702 77 CURVE",
"636 65 LINE",
"641 -5 LINE",
"641 -5 OFFCURVE",
"751 0 OFFCURVE",
"781 0 CURVE",
"923 0 LINE",
"928 71 LINE",
"861 77 LINE",
"857 95 OFFCURVE",
"850 119 OFFCURVE",
"848 132 CURVE",
"816 569 LINE",
"816 582 OFFCURVE",
"817 605 OFFCURVE",
"819 623 CURVE",
"884 629 LINE",
"879 710 LINE",
"879 710 OFFCURVE",
"802 705 OFFCURVE",
"747 705 CURVE SMOOTH"
);
}
);
};
layerId = "16643525-C5DD-48EC-8E99-463BF28F5E85";
paths = (
{
closed = 1;
nodes = (
"650 705 LINE",
"630 685 LINE",
"630 685 OFFCURVE",
"597 572 OFFCURVE",
"589 549 CURVE SMOOTH",
"477 221 LINE",
"374 534 LINE SMOOTH",
"362 571 OFFCURVE",
"331 685 OFFCURVE",
"331 685 CURVE",
"311 705 LINE",
"184 705 LINE",
"164 705 OFFCURVE",
"64 710 OFFCURVE",
"64 710 CURVE",
"59 635 LINE",
"126 623 LINE",
"127 605 OFFCURVE",
"131 562 OFFCURVE",
"130 542 CURVE SMOOTH",
"106 163 LINE SMOOTH",
"105 143 OFFCURVE",
"96 95 OFFCURVE",
"91 77 CURVE",
"22 65 LINE",
"27 -5 LINE",
"27 -5 OFFCURVE",
"117 0 OFFCURVE",
"147 0 CURVE",
"282 0 LINE",
"288 71 LINE",
"220 77 LINE",
"218 100 OFFCURVE",
"216 153 OFFCURVE",
"218 193 CURVE SMOOTH",
"235 518 LINE",
"414 0 LINE",
"506 0 LINE",
"690 518 LINE",
"706 163 LINE SMOOTH",
"707 143 OFFCURVE",
"704 100 OFFCURVE",
"702 77 CURVE",
"636 65 LINE",
"641 -5 LINE",
"641 -5 OFFCURVE",
"751 0 OFFCURVE",
"781 0 CURVE",
"923 0 LINE",
"928 71 LINE",
"861 77 LINE",
"857 95 OFFCURVE",
"847 152 OFFCURVE",
"844 192 CURVE SMOOTH",
"820 512 LINE SMOOTH",
"817 552 OFFCURVE",
"818 595 OFFCURVE",
"819 623 CURVE",
"884 629 LINE",
"879 710 LINE",
"879 710 OFFCURVE",
"802 705 OFFCURVE",
"747 705 CURVE SMOOTH"
);
}
);
width = 949;
},
{
anchors = (
{
name = bottom;
position = "{399, 0}";
}
);
background = {
paths = (
{
closed = 1;
nodes = (
"718 705 LINE",
"696 685 LINE",
"696 685 OFFCURVE",
"636 559 OFFCURVE",
"623 537 CURVE",
"440 175 LINE",
"364 529 LINE",
"358 553 OFFCURVE",
"336 685 OFFCURVE",
"336 685 CURVE",
"321 705 LINE",
"252 705 LINE",
"232 705 OFFCURVE",
"141 710 OFFCURVE",
"136 710 CURVE",
"123 656 LINE",
"196 644 LINE",
"195 630 OFFCURVE",
"192 583 OFFCURVE",
"189 568 CURVE SMOOTH",
"99 132 LINE SMOOTH",
"96 117 OFFCURVE",
"78 74 OFFCURVE",
"73 61 CURVE",
"-5 45 LINE",
"-7 -5 LINE",
"-7 -5 OFFCURVE",
"92 0 OFFCURVE",
"117 0 CURVE",
"223 0 LINE",
"238 54 LINE",
"161 61 LINE",
"162 77 OFFCURVE",
"166 137 OFFCURVE",
"172 167 CURVE SMOOTH",
"255 584 LINE",
"381 0 LINE",
"418 0 LINE",
"714 584 LINE",
"676 137 LINE SMOOTH",
"675 122 OFFCURVE",
"663 76 OFFCURVE",
"659 61 CURVE",
"581 45 LINE",
"579 -5 LINE",
"579 -5 OFFCURVE",
"693 0 OFFCURVE",
"718 0 CURVE",
"837 0 LINE",
"851 54 LINE",
"774 61 LINE",
"773 74 OFFCURVE",
"769 136 OFFCURVE",
"771 166 CURVE SMOOTH",
"798 538 LINE SMOOTH",
"800 568 OFFCURVE",
"811 630 OFFCURVE",
"814 644 CURVE",
"890 651 LINE",
"895 710 LINE",
"895 710 OFFCURVE",
"823 705 OFFCURVE",
"746 705 CURVE SMOOTH"
);
}
);
};
layerId = "08C09966-8326-41C9-AE3D-74AAC6FC1D13";
paths = (
{
closed = 1;
nodes = (
"718 705 LINE",
"696 685 LINE",
"696 685 OFFCURVE",
"636 559 OFFCURVE",
"623 537 CURVE",
"440 175 LINE",
"364 529 LINE",
"358 553 OFFCURVE",
"336 685 OFFCURVE",
"336 685 CURVE",
"321 705 LINE",
"252 705 LINE",
"232 705 OFFCURVE",
"141 710 OFFCURVE",
"136 710 CURVE",
"123 656 LINE",
"196 644 LINE",
"195 630 OFFCURVE",
"192 583 OFFCURVE",
"189 568 CURVE SMOOTH",
"100 137 LINE SMOOTH",
"97 122 OFFCURVE",
"78 74 OFFCURVE",
"73 61 CURVE",
"-5 45 LINE",
"-7 -5 LINE",
"-7 -5 OFFCURVE",
"92 0 OFFCURVE",
"117 0 CURVE",
"223 0 LINE",
"238 54 LINE",
"161 61 LINE",
"162 77 OFFCURVE",
"166 137 OFFCURVE",
"172 167 CURVE SMOOTH",
"255 584 LINE",
"381 0 LINE",
"418 0 LINE",
"714 584 LINE",
"676 137 LINE SMOOTH",
"675 122 OFFCURVE",
"663 76 OFFCURVE",
"659 61 CURVE",
"581 45 LINE",
"579 -5 LINE",
"579 -5 OFFCURVE",
"693 0 OFFCURVE",
"718 0 CURVE",
"837 0 LINE",
"851 54 LINE",
"774 61 LINE",
"773 74 OFFCURVE",
"769 136 OFFCURVE",
"771 166 CURVE SMOOTH",
"798 538 LINE SMOOTH",
"800 568 OFFCURVE",
"811 630 OFFCURVE",
"814 644 CURVE",
"890 651 LINE",
"895 710 LINE",
"895 710 OFFCURVE",
"823 705 OFFCURVE",
"746 705 CURVE SMOOTH"
);
}
);
width = 901;
},
{
anchors = (
{
name = bottom;
position = "{401, 0}";
}
);
background = {
paths = (
{
closed = 1;
nodes = (
"691 705 LINE",
"669 685 LINE",
"669 685 OFFCURVE",
"621 572 OFFCURVE",
"610 549 CURVE",
"455 221 LINE",
"403 534 LINE",
"397 571 OFFCURVE",
"384 685 OFFCURVE",
"384 685 CURVE",
"368 705 LINE",
"225 705 LINE",
"182 705 OFFCURVE",
"125 710 OFFCURVE",
"125 710 CURVE",
"110 638 LINE",
"172 626 LINE",
"172 608 OFFCURVE",
"171 581 OFFCURVE",
"170 569 CURVE",
"78 132 LINE",
"74 119 OFFCURVE",
"64 92 OFFCURVE",
"57 74 CURVE",
"-10 62 LINE",
"-15 -5 LINE",
"-15 -5 OFFCURVE",
"41 0 OFFCURVE",
"83 0 CURVE SMOOTH",
"190 0 OFFCURVE",
"233 -5 OFFCURVE",
"233 -5 CURVE",
"250 68 LINE",
"186 74 LINE",
"187 97 OFFCURVE",
"191 140 OFFCURVE",
"195 162 CURVE",
"265 518 LINE",
"360 0 LINE",
"453 0 LINE",
"705 518 LINE",
"668 162 LINE",
"664 140 OFFCURVE",
"656 97 OFFCURVE",
"651 74 CURVE",
"585 62 LINE",
"580 -5 LINE",
"580 -5 OFFCURVE",
"637 0 OFFCURVE",
"679 0 CURVE SMOOTH",
"786 0 OFFCURVE",
"856 -5 OFFCURVE",
"856 -5 CURVE",
"871 68 LINE",
"808 74 LINE",
"807 92 OFFCURVE",
"804 119 OFFCURVE",
"804 132 CURVE",
"837 569 LINE",
"839 582 OFFCURVE",
"844 609 OFFCURVE",
"848 627 CURVE",
"911 638 LINE",
"918 710 LINE",
"918 710 OFFCURVE",
"839 705 OFFCURVE",
"790 705 CURVE SMOOTH"
);
}
);
};
layerId = "B953D09C-6DD0-450A-A78C-8C2188DD4016";
paths = (
{
closed = 1;
nodes = (
"835 542 LINE SMOOTH",
"836 562 OFFCURVE",
"846 608 OFFCURVE",
"851 623 CURVE",
"915 629 LINE",
"922 710 LINE",
"922 710 OFFCURVE",
"839 705 OFFCURVE",
"759 705 CURVE",
"691 705 LINE",
"669 685 LINE",
"669 685 OFFCURVE",
"621 572 OFFCURVE",
"610 549 CURVE",
"455 221 LINE",
"403 534 LINE",
"397 571 OFFCURVE",
"384 685 OFFCURVE",
"384 685 CURVE",
"368 705 LINE",
"241 705 LINE",
"211 705 OFFCURVE",
"121 710 OFFCURVE",
"121 710 CURVE",
"105 635 LINE",
"166 623 LINE",
"166 608 OFFCURVE",
"168 561 OFFCURVE",
"158 512 CURVE SMOOTH",
"85 163 LINE SMOOTH",
"81 143 OFFCURVE",
"68 92 OFFCURVE",
"63 77 CURVE",
"-2 65 LINE",
"-7 -5 LINE",
"-7 -5 OFFCURVE",
"90 0 OFFCURVE",
"120 0 CURVE",
"238 0 LINE",
"253 70 LINE",
"192 77 LINE",
"192 92 OFFCURVE",
"191 143 OFFCURVE",
"201 193 CURVE SMOOTH",
"265 518 LINE",
"360 0 LINE",
"453 0 LINE",
"705 518 LINE",
"668 163 LINE SMOOTH",
"666 143 OFFCURVE",
"653 92 OFFCURVE",
"648 77 CURVE",
"583 65 LINE",
"578 -5 LINE",
"578 -5 OFFCURVE",
"699 0 OFFCURVE",
"729 0 CURVE",
"857 0 LINE",
"872 70 LINE",
"811 77 LINE",
"811 92 OFFCURVE",
"806 143 OFFCURVE",
"809 193 CURVE SMOOTH"
);
}
);
width = 919;
}
);
leftKerningGroup = M;
rightKerningGroup = M;
unicode = 004D;
},
{
color = 0;
glyphname = N;
lastChange = "2018-05-29 07:25:28 +0000";
layers = (
{
anchors = (
{
name = bottom;
position = "{396, 0}";
},
{
name = top;
position = "{376, 720}";
}
);
background = {
paths = (
{
closed = 1;
nodes = (
"740 651 LINE",
"662 644 LINE",
"658 625 OFFCURVE",
"647 568 OFFCURVE",
"647 528 CURVE SMOOTH",
"647 297 LINE SMOOTH",
"647 257 OFFCURVE",
"646 0 OFFCURVE",
"646 0 CURVE",
"586 0 LINE",
"192 556 LINE",
"192 167 LINE SMOOTH",
"192 125 OFFCURVE",
"197 75 OFFCURVE",
"199 61 CURVE",
"280 54 LINE",
"273 0 LINE",
"164 0 LINE",
"139 0 OFFCURVE",
"43 -5 OFFCURVE",
"43 -5 CURVE",
"38 45 LINE",
"116 61 LINE",
"118 74 OFFCURVE",
"125 120 OFFCURVE",
"125 137 CURVE SMOOTH",
"125 568 LINE SMOOTH",
"125 584 OFFCURVE",
"118 629 OFFCURVE",
"116 644 CURVE",
"36 656 LINE",
"41 710 LINE",
"41 710 OFFCURVE",
"136 705 OFFCURVE",
"156 705 CURVE SMOOTH",
"201 706 LINE",
"221 685 LINE",
"221 685 OFFCURVE",
"302 552 OFFCURVE",
"318 530 CURVE SMOOTH",
"580 168 LINE",
"580 558 LINE SMOOTH",
"580 574 OFFCURVE",
"574 626 OFFCURVE",
"571 644 CURVE",
"493 656 LINE",
"498 710 LINE",
"526 708 OFFCURVE",
"585 705 OFFCURVE",
"605 705 CURVE SMOOTH",
"665 705 OFFCURVE",
"736 710 OFFCURVE",
"736 710 CURVE"
);
}
);
};
layerId = UUID0;
paths = (
{
closed = 1;
nodes = (
"740 651 LINE",
"662 644 LINE",
"659 630 OFFCURVE",
"647 580 OFFCURVE",
"647 538 CURVE SMOOTH",
"646 0 LINE",
"586 0 LINE",
"192 556 LINE",
"192 167 LINE SMOOTH",
"192 125 OFFCURVE",
"197 75 OFFCURVE",
"199 61 CURVE",
"280 54 LINE",
"273 0 LINE",
"164 0 LINE",
"139 0 OFFCURVE",
"43 -5 OFFCURVE",
"43 -5 CURVE",
"38 45 LINE",
"116 61 LINE",
"118 74 OFFCURVE",
"125 120 OFFCURVE",
"125 137 CURVE SMOOTH",
"125 568 LINE SMOOTH",
"125 584 OFFCURVE",
"118 629 OFFCURVE",
"116 644 CURVE",
"36 656 LINE",
"41 710 LINE",
"41 710 OFFCURVE",
"136 705 OFFCURVE",
"156 705 CURVE SMOOTH",
"201 706 LINE",
"221 685 LINE",
"221 685 OFFCURVE",
"302 552 OFFCURVE",
"318 530 CURVE SMOOTH",
"580 168 LINE",
"580 568 LINE SMOOTH",
"580 584 OFFCURVE",
"574 626 OFFCURVE",
"571 644 CURVE",
"493 656 LINE",
"498 710 LINE",
"526 708 OFFCURVE",
"585 705 OFFCURVE",
"605 705 CURVE SMOOTH",
"665 705 OFFCURVE",
"736 710 OFFCURVE",
"736 710 CURVE"
);
}
);
width = 762;
},
{
anchors = (
{
name = bottom;
position = "{400, 0}";
},
{
name = top;
position = "{390, 720}";
}
);
background = {
paths = (
{
closed = 1;
nodes = (
"766 710 LINE",
"766 710 OFFCURVE",
"672 705 OFFCURVE",
"592 705 CURVE SMOOTH",
"562 705 OFFCURVE",
"472 710 OFFCURVE",
"472 710 CURVE",
"467 635 LINE",
"532 623 LINE",
"534 607 OFFCURVE",
"541 562 OFFCURVE",
"541 512 CURVE SMOOTH",
"541 163 LINE SMOOTH",
"541 143 OFFCURVE",
"533 87 OFFCURVE",
"532 77 CURVE",
"466 65 LINE",
"471 -5 LINE",
"471 -5 OFFCURVE",
"591 0 OFFCURVE",
"621 0 CURVE",
"765 0 LINE",
"770 71 LINE",
"705 77 LINE",
"703 91 OFFCURVE",
"696 143 OFFCURVE",
"696 193 CURVE SMOOTH",
"696 542 LINE SMOOTH",
"696 562 OFFCURVE",
"702 608 OFFCURVE",
"705 623 CURVE",
"771 629 LINE"
);
}
);
};
layerId = "16643525-C5DD-48EC-8E99-463BF28F5E85";
paths = (
{
closed = 1;
nodes = (
"771 629 LINE",
"705 623 LINE",
"703 611 OFFCURVE",
"696 552 OFFCURVE",
"696 512 CURVE SMOOTH",
"696 0 LINE",
"561 0 LINE",
"236 450 LINE",
"236 193 LINE SMOOTH",
"236 153 OFFCURVE",
"244 87 OFFCURVE",
"245 77 CURVE",
"310 71 LINE",
"305 0 LINE",
"169 0 LINE",
"139 0 OFFCURVE",
"39 -5 OFFCURVE",
"39 -5 CURVE",
"34 65 LINE",
"100 77 LINE",
"102 88 OFFCURVE",
"109 143 OFFCURVE",
"109 163 CURVE SMOOTH",
"109 542 LINE SMOOTH",
"109 562 OFFCURVE",
"102 612 OFFCURVE",
"100 623 CURVE",
"35 635 LINE",
"40 710 LINE",
"40 710 OFFCURVE",
"130 705 OFFCURVE",
"150 705 CURVE SMOOTH",
"242 705 LINE",
"261 685 LINE",
"261 685 OFFCURVE",
"334 559 OFFCURVE",
"349 537 CURVE SMOOTH",
"569 230 LINE",
"569 542 LINE SMOOTH",
"569 562 OFFCURVE",
"562 607 OFFCURVE",
"560 623 CURVE",
"495 635 LINE",
"500 710 LINE",
"535 708 OFFCURVE",
"584 705 OFFCURVE",
"604 705 CURVE",
"674 705 OFFCURVE",
"766 710 OFFCURVE",
"766 710 CURVE"
);
}
);
width = 795;
},
{
anchors = (
{
name = bottom;
position = "{372, 0}";
},
{
name = top;
position = "{414, 720}";
}
);
background = {
paths = (
{
closed = 1;
nodes = (
"782 657 LINE",
"704 641 LINE",
"697 622 OFFCURVE",
"679 568 OFFCURVE",
"673 528 CURVE SMOOTH",
"639 297 LINE SMOOTH",
"633 257 OFFCURVE",
"594 -7 OFFCURVE",
"594 -7 CURVE",
"532 -7 LINE",
"235 556 LINE",
"179 167 LINE SMOOTH",
"172 125 OFFCURVE",
"170 75 OFFCURVE",
"170 61 CURVE",
"247 54 LINE",
"231 -5 LINE",
"231 -5 OFFCURVE",
"190 0 OFFCURVE",
"111 0 CURVE SMOOTH",
"91 0 OFFCURVE",
"6 -5 OFFCURVE",
"6 -5 CURVE",
"8 45 LINE",
"87 61 LINE",
"91 74 OFFCURVE",
"104 120 OFFCURVE",
"107 137 CURVE SMOOTH",
"170 568 LINE SMOOTH",
"172 584 OFFCURVE",
"172 629 OFFCURVE",
"172 644 CURVE",
"97 656 LINE",
"109 710 LINE",
"109 710 OFFCURVE",
"200 705 OFFCURVE",
"221 705 CURVE SMOOTH",
"266 706 LINE",
"282 685 LINE",
"282 685 OFFCURVE",
"342 552 OFFCURVE",
"353 530 CURVE SMOOTH",
"552 163 LINE",
"610 558 LINE SMOOTH",
"612 574 OFFCURVE",
"613 623 OFFCURVE",
"613 641 CURVE",
"538 647 LINE",
"552 707 LINE",
"632 705 LINE",
"709 705 OFFCURVE",
"785 710 OFFCURVE",
"785 710 CURVE"
);
},
{
closed = 1;
nodes = (
"786 710 LINE",
"786 710 OFFCURVE",
"714 705 OFFCURVE",
"654 705 CURVE SMOOTH",
"634 705 OFFCURVE",
"539 710 OFFCURVE",
"539 710 CURVE",
"526 656 LINE",
"599 644 LINE",
"599 631 OFFCURVE",
"598 583 OFFCURVE",
"596 568 CURVE SMOOTH",
"533 137 LINE SMOOTH",
"531 122 OFFCURVE",
"517 74 OFFCURVE",
"514 61 CURVE",
"435 45 LINE",
"433 -5 LINE",
"433 -5 OFFCURVE",
"543 0 OFFCURVE",
"568 0 CURVE SMOOTH",
"647 0 OFFCURVE",
"691 0 OFFCURVE",
"691 0 CURVE",
"705 54 LINE",
"620 61 LINE",
"620 75 OFFCURVE",
"625 137 OFFCURVE",
"629 167 CURVE SMOOTH",
"683 538 LINE SMOOTH",
"687 568 OFFCURVE",
"701 630 OFFCURVE",
"705 644 CURVE",
"781 651 LINE"
);
}
);
};
layerId = "08C09966-8326-41C9-AE3D-74AAC6FC1D13";
paths = (
{
closed = 1;
nodes = (
"781 651 LINE",
"705 644 LINE",
"698 625 OFFCURVE",
"680 568 OFFCURVE",
"675 538 CURVE SMOOTH",
"595 0 LINE",
"528 0 LINE",
"235 556 LINE",
"179 167 LINE SMOOTH",
"175 137 OFFCURVE",
"170 75 OFFCURVE",
"170 61 CURVE",
"247 54 LINE",
"232 0 LINE",
"128 0 LINE",
"103 0 OFFCURVE",
"6 -5 OFFCURVE",
"6 -5 CURVE",
"8 45 LINE",
"87 61 LINE",
"91 74 OFFCURVE",
"105 122 OFFCURVE",
"107 137 CURVE SMOOTH",
"170 568 LINE SMOOTH",
"172 583 OFFCURVE",
"172 629 OFFCURVE",
"172 644 CURVE",
"99 656 LINE",
"112 710 LINE",
"112 710 OFFCURVE",
"208 705 OFFCURVE",
"228 705 CURVE SMOOTH",
"266 705 LINE",
"282 685 LINE",
"282 685 OFFCURVE",
"342 552 OFFCURVE",
"353 530 CURVE SMOOTH",
"552 163 LINE",
"612 568 LINE SMOOTH",
"614 583 OFFCURVE",
"614 626 OFFCURVE",
"614 644 CURVE",
"541 656 LINE",
"554 710 LINE",
"568 709 OFFCURVE",
"642 705 OFFCURVE",
"662 705 CURVE SMOOTH",
"722 705 OFFCURVE",
"786 710 OFFCURVE",
"786 710 CURVE"
);
}
);
width = 747;
},
{
anchors = (
{
name = bottom;
position = "{374, 0}";
},
{
name = top;
position = "{450, 720}";
}
);
background = {
paths = (
{
closed = 1;
nodes = (
"807 629 LINE",
"743 623 LINE",
"739 611 OFFCURVE",
"726 562 OFFCURVE",
"723 542 CURVE SMOOTH",
"672 193 LINE SMOOTH",
"665 143 OFFCURVE",
"644 0 OFFCURVE",
"644 0 CURVE",
"507 0 LINE",
"263 450 LINE",
"225 193 LINE SMOOTH",
"218 143 OFFCURVE",
"218 87 OFFCURVE",
"217 77 CURVE",
"278 71 LINE",
"262 -5 LINE",
"262 -5 OFFCURVE",
"211 0 OFFCURVE",
"99 0 CURVE SMOOTH",
"52 0 OFFCURVE",
"2 -5 OFFCURVE",
"2 -5 CURVE",
"7 65 LINE",
"72 77 LINE",
"76 88 OFFCURVE",
"91 143 OFFCURVE",
"93 163 CURVE SMOOTH",
"144 512 LINE SMOOTH",
"152 562 OFFCURVE",
"152 612 OFFCURVE",
"152 623 CURVE",
"92 635 LINE",
"107 710 LINE",
"107 710 OFFCURVE",
"155 705 OFFCURVE",
"203 705 CURVE SMOOTH",
"306 705 LINE",
"321 685 LINE",
"321 685 OFFCURVE",
"373 559 OFFCURVE",
"384 537 CURVE SMOOTH",
"550 230 LINE",
"591 512 LINE SMOOTH",
"596 549 OFFCURVE",
"598 607 OFFCURVE",
"598 623 CURVE",
"538 635 LINE",
"554 710 LINE",
"651 705 LINE",
"730 705 OFFCURVE",
"814 710 OFFCURVE",
"814 710 CURVE"
);
}
);
};
layerId = "B953D09C-6DD0-450A-A78C-8C2188DD4016";
paths = (
{
closed = 1;
nodes = (
"665 143 OFFCURVE",
"644 0 OFFCURVE",
"644 0 CURVE",
"507 0 LINE",
"263 450 LINE",
"225 193 LINE SMOOTH",
"218 143 OFFCURVE",
"216 92 OFFCURVE",
"216 77 CURVE",
"277 70 LINE",
"262 0 LINE",
"138 0 LINE",
"108 0 OFFCURVE",
"2 -5 OFFCURVE",
"2 -5 CURVE",
"7 65 LINE",
"72 77 LINE",
"77 92 OFFCURVE",
"90 143 OFFCURVE",
"93 163 CURVE SMOOTH",
"144 512 LINE SMOOTH",
"151 562 OFFCURVE",
"152 608 OFFCURVE",
"152 623 CURVE",
"91 635 LINE",
"107 710 LINE",
"107 710 OFFCURVE",
"197 705 OFFCURVE",
"227 705 CURVE",
"306 705 LINE",
"321 685 LINE",
"321 685 OFFCURVE",
"373 559 OFFCURVE",
"384 537 CURVE SMOOTH",
"550 230 LINE",
"591 512 LINE SMOOTH",
"598 562 OFFCURVE",
"599 608 OFFCURVE",
"599 623 CURVE",
"538 635 LINE",
"554 710 LINE",
"554 710 OFFCURVE",
"629 705 OFFCURVE",
"659 705 CURVE SMOOTH",
"739 705 OFFCURVE",
"815 710 OFFCURVE",
"815 710 CURVE",
"808 629 LINE",
"744 623 LINE",
"739 608 OFFCURVE",
"726 562 OFFCURVE",
"723 542 CURVE SMOOTH"
);
}
);
width = 777;
}
);
leftKerningGroup = H;
rightKerningGroup = H;
unicode = 004E;
},
{
color = 0;
glyphname = O;
lastChange = "2018-05-29 07:25:28 +0000";
layers = (
{
anchors = (
{
name = bottom;
position = "{387, 0}";
},
{
name = horn;
position = "{645, 544}";
},
{
name = ogonek;
position = "{497, 0}";
},
{
name = top;
position = "{387, 720}";
}
);
layerId = UUID0;
paths = (
{
closed = 1;
nodes = (
"715 570 OFFCURVE",
"604 720 OFFCURVE",
"387 720 CURVE SMOOTH",
"170 720 OFFCURVE",
"59 570 OFFCURVE",
"59 352 CURVE SMOOTH",
"59 135 OFFCURVE",
"170 -15 OFFCURVE",
"387 -15 CURVE SMOOTH",
"604 -15 OFFCURVE",
"715 135 OFFCURVE",
"715 352 CURVE SMOOTH"
);
},
{
closed = 1;
nodes = (
"166 527 OFFCURVE",
"238 667 OFFCURVE",
"387 667 CURVE SMOOTH",
"536 667 OFFCURVE",
"608 527 OFFCURVE",
"608 352 CURVE SMOOTH",
"608 178 OFFCURVE",
"536 38 OFFCURVE",
"387 38 CURVE SMOOTH",
"238 38 OFFCURVE",
"166 178 OFFCURVE",
"166 352 CURVE SMOOTH"
);
}
);
width = 774;
},
{
anchors = (
{
name = bottom;
position = "{401, 0}";
},
{
name = horn;
position = "{661, 544}";
},
{
name = ogonek;
position = "{515, 0}";
},
{
name = top;
position = "{400, 720}";
}
);
layerId = "16643525-C5DD-48EC-8E99-463BF28F5E85";
paths = (
{
closed = 1;
nodes = (
"758 574 OFFCURVE",
"618 720 OFFCURVE",
"401 720 CURVE SMOOTH",
"184 720 OFFCURVE",
"44 574 OFFCURVE",
"44 352 CURVE SMOOTH",
"44 131 OFFCURVE",
"184 -15 OFFCURVE",
"401 -15 CURVE SMOOTH",
"618 -15 OFFCURVE",
"758 131 OFFCURVE",
"758 352 CURVE SMOOTH"
);
},
{
closed = 1;
nodes = (
"224 535 OFFCURVE",
"281 623 OFFCURVE",
"401 623 CURVE SMOOTH",
"521 623 OFFCURVE",
"578 535 OFFCURVE",
"578 352 CURVE SMOOTH",
"578 170 OFFCURVE",
"521 82 OFFCURVE",
"401 82 CURVE SMOOTH",
"281 82 OFFCURVE",
"224 170 OFFCURVE",
"224 352 CURVE SMOOTH"
);
}
);
width = 802;
},
{
anchors = (
{
name = bottom;
position = "{342, 0}";
},
{
name = horn;
position = "{657, 544}";
},
{
name = ogonek;
position = "{457, 0}";
},
{
name = top;
position = "{449, 720}";
}
);
layerId = "08C09966-8326-41C9-AE3D-74AAC6FC1D13";
paths = (
{
closed = 1;
nodes = (
"722 598 OFFCURVE",
"629 720 OFFCURVE",
"447 720 CURVE SMOOTH",
"203 720 OFFCURVE",
"70 531 OFFCURVE",
"70 284 CURVE SMOOTH",
"70 107 OFFCURVE",
"163 -15 OFFCURVE",
"345 -15 CURVE SMOOTH",
"589 -15 OFFCURVE",
"722 174 OFFCURVE",
"722 420 CURVE SMOOTH"
);
},
{
closed = 1;
nodes = (
"177 481 OFFCURVE",
"270 667 OFFCURVE",
"442 667 CURVE SMOOTH",
"561 667 OFFCURVE",
"615 560 OFFCURVE",
"615 421 CURVE SMOOTH",
"615 223 OFFCURVE",
"521 38 OFFCURVE",
"350 38 CURVE SMOOTH",
"231 38 OFFCURVE",
"177 145 OFFCURVE",
"177 283 CURVE SMOOTH"
);
}
);
width = 762;
},
{
anchors = (
{
name = bottom;
position = "{368, 0}";
},
{
name = horn;
position = "{696, 544}";
},
{
name = ogonek;
position = "{473, 0}";
},
{
name = top;
position = "{468, 720}";
}
);
layerId = "B953D09C-6DD0-450A-A78C-8C2188DD4016";
paths = (
{
closed = 1;
nodes = (
"763 598 OFFCURVE",
"647 720 OFFCURVE",
"460 720 CURVE SMOOTH",
"223 720 OFFCURVE",
"55 544 OFFCURVE",
"55 292 CURVE SMOOTH",
"55 107 OFFCURVE",
"171 -15 OFFCURVE",
"358 -15 CURVE SMOOTH",
"595 -15 OFFCURVE",
"763 161 OFFCURVE",
"763 412 CURVE SMOOTH"
);
},
{
closed = 1;
nodes = (
"232 479 OFFCURVE",
"294 623 OFFCURVE",
"449 623 CURVE SMOOTH",
"541 623 OFFCURVE",
"585 559 OFFCURVE",
"585 433 CURVE SMOOTH",
"585 225 OFFCURVE",
"523 82 OFFCURVE",
"369 82 CURVE SMOOTH",
"277 82 OFFCURVE",
"232 146 OFFCURVE",
"232 271 CURVE SMOOTH"
);
}
);
width = 788;
}
);
leftKerningGroup = O;
rightKerningGroup = O;
unicode = 004F;
},
{
color = 1;
glyphname = OE;
lastChange = "2018-05-29 07:35:30 +0000";
layers = (
{
anchors = (
{
name = top;
position = "{544, 720}";
}
);
background = {
paths = (
{
closed = 1;
nodes = (
"562 614 LINE",
"562 97 LINE",
"392 0 LINE",
"799 0 LINE SMOOTH",
"819 0 OFFCURVE",
"913 -4 OFFCURVE",
"913 -4 CURVE",
"932 14 LINE",
"947 165 LINE",
"892 170 LINE",
"890 154 OFFCURVE",
"880 118 OFFCURVE",
"877 103 CURVE SMOOTH",
"875 94 OFFCURVE",
"866 80 OFFCURVE",
"856 66 CURVE",
"834 62 OFFCURVE",
"800 57 OFFCURVE",
"769 57 CURVE SMOOTH",
"645 57 LINE",
"643 76 OFFCURVE",
"638 127 OFFCURVE",
"638 167 CURVE SMOOTH",
"638 338 LINE",
"714 338 LINE",
"734 338 OFFCURVE",
"794 332 OFFCURVE",
"794 332 CURVE",
"803 265 LINE",
"851 271 LINE",
"851 271 OFFCURVE",
"848 330 OFFCURVE",
"848 380 CURVE SMOOTH",
"848 400 OFFCURVE",
"849 464 OFFCURVE",
"849 464 CURVE",
"803 469 LINE",
"794 403 LINE",
"794 403 OFFCURVE",
"754 394 OFFCURVE",
"734 394 CURVE",
"638 394 LINE",
"638 538 LINE SMOOTH",
"638 577 OFFCURVE",
"643 628 OFFCURVE",
"645 649 CURVE",
"756 649 LINE SMOOTH",
"784 649 OFFCURVE",
"815 646 OFFCURVE",
"837 644 CURVE",
"847 631 OFFCURVE",
"856 617 OFFCURVE",
"857 610 CURVE",
"861 595 OFFCURVE",
"866 572 OFFCURVE",
"868 556 CURVE",
"926 561 LINE",
"919 697 LINE",
"900 715 LINE",
"900 715 OFFCURVE",
"806 705 OFFCURVE",
"786 705 CURVE SMOOTH",
"392 705 LINE"
);
},
{
closed = 1;
nodes = (
"168 527 OFFCURVE",
"231 667 OFFCURVE",
"359 667 CURVE SMOOTH",
"487 667 OFFCURVE",
"550 527 OFFCURVE",
"550 352 CURVE SMOOTH",
"550 178 OFFCURVE",
"487 38 OFFCURVE",
"359 38 CURVE SMOOTH",
"231 38 OFFCURVE",
"168 178 OFFCURVE",
"168 352 CURVE SMOOTH"
);
},
{
closed = 1;
nodes = (
"592 603 LINE",
"543 677 OFFCURVE",
"464 720 OFFCURVE",
"359 720 CURVE SMOOTH",
"163 720 OFFCURVE",
"61 570 OFFCURVE",
"61 352 CURVE SMOOTH",
"61 135 OFFCURVE",
"163 -15 OFFCURVE",
"359 -15 CURVE SMOOTH",
"464 -15 OFFCURVE",
"543 28 OFFCURVE",
"592 102 CURVE"
);
}
);
};
layerId = UUID0;
paths = (
{
closed = 1;
nodes = (
"562 614 LINE",
"562 97 LINE",
"392 0 LINE",
"799 0 LINE SMOOTH",
"819 0 OFFCURVE",
"913 -4 OFFCURVE",
"913 -4 CURVE",
"932 14 LINE",
"947 165 LINE",
"892 170 LINE",
"890 154 OFFCURVE",
"880 118 OFFCURVE",
"877 103 CURVE SMOOTH",
"875 94 OFFCURVE",
"866 80 OFFCURVE",
"856 66 CURVE",
"834 62 OFFCURVE",
"800 57 OFFCURVE",
"769 57 CURVE SMOOTH",
"645 57 LINE",
"643 76 OFFCURVE",
"638 127 OFFCURVE",
"638 167 CURVE",
"638 538 LINE",
"638 577 OFFCURVE",
"643 628 OFFCURVE",
"645 649 CURVE",
"756 649 LINE SMOOTH",
"784 649 OFFCURVE",
"815 646 OFFCURVE",
"837 644 CURVE",
"847 631 OFFCURVE",
"856 617 OFFCURVE",
"857 610 CURVE",
"861 595 OFFCURVE",
"866 572 OFFCURVE",
"868 556 CURVE",
"926 561 LINE",
"919 697 LINE",
"900 715 LINE",
"900 715 OFFCURVE",
"806 705 OFFCURVE",
"786 705 CURVE SMOOTH",
"392 705 LINE"
);
},
{
closed = 1;
nodes = (
"168 527 OFFCURVE",
"231 667 OFFCURVE",
"359 667 CURVE SMOOTH",
"487 667 OFFCURVE",
"550 527 OFFCURVE",
"550 352 CURVE SMOOTH",
"550 178 OFFCURVE",
"487 38 OFFCURVE",
"359 38 CURVE SMOOTH",
"231 38 OFFCURVE",
"168 178 OFFCURVE",
"168 352 CURVE SMOOTH"
);
},
{
closed = 1;
nodes = (
"592 603 LINE",
"543 677 OFFCURVE",
"464 720 OFFCURVE",
"359 720 CURVE SMOOTH",
"163 720 OFFCURVE",
"61 570 OFFCURVE",
"61 352 CURVE SMOOTH",
"61 135 OFFCURVE",
"163 -15 OFFCURVE",
"359 -15 CURVE SMOOTH",
"464 -15 OFFCURVE",
"543 28 OFFCURVE",
"592 102 CURVE"
);
},
{
closed = 1;
nodes = (
"608 338 LINE",
"714 338 LINE SMOOTH",
"734 338 OFFCURVE",
"785 333 OFFCURVE",
"794 332 CURVE",
"803 265 LINE",
"851 271 LINE",
"851 271 OFFCURVE",
"848 330 OFFCURVE",
"848 380 CURVE SMOOTH",
"848 400 OFFCURVE",
"849 464 OFFCURVE",
"849 464 CURVE",
"803 469 LINE",
"794 400 LINE",
"789 399 OFFCURVE",
"754 394 OFFCURVE",
"734 394 CURVE SMOOTH",
"608 394 LINE"
);
}
);
width = 997;
},
{
anchors = (
{
name = top;
position = "{521, 720}";
}
);
background = {
paths = (
{
closed = 1;
nodes = (
"834 623 OFFCURVE",
"859 621 OFFCURVE",
"879 619 CURVE",
"892 583 LINE",
"894 568 OFFCURVE",
"896 554 OFFCURVE",
"898 537 CURVE",
"970 542 LINE",
"963 697 LINE",
"944 715 LINE",
"906 710 OFFCURVE",
"849 705 OFFCURVE",
"829 705 CURVE",
"440 705 LINE",
"570 571 LINE",
"570 101 LINE",
"440 0 LINE",
"844 0 LINE SMOOTH",
"864 0 OFFCURVE",
"958 -4 OFFCURVE",
"958 -4 CURVE",
"977 14 LINE",
"992 190 LINE",
"922 195 LINE",
"920 179 OFFCURVE",
"914 153 OFFCURVE",
"910 138 CURVE SMOOTH",
"907 128 OFFCURVE",
"901 113 OFFCURVE",
"891 95 CURVE",
"871 91 OFFCURVE",
"843 87 OFFCURVE",
"814 87 CURVE SMOOTH",
"689 87 LINE",
"688 107 OFFCURVE",
"686 155 OFFCURVE",
"686 193 CURVE SMOOTH",
"686 316 LINE",
"748 316 LINE",
"768 316 OFFCURVE",
"812 310 OFFCURVE",
"812 310 CURVE",
"821 250 LINE",
"885 256 LINE",
"885 256 OFFCURVE",
"882 333 OFFCURVE",
"882 383 CURVE SMOOTH",
"882 403 OFFCURVE",
"883 466 OFFCURVE",
"883 466 CURVE",
"821 471 LINE",
"812 407 LINE",
"812 407 OFFCURVE",
"788 398 OFFCURVE",
"768 398 CURVE",
"686 398 LINE",
"686 542 LINE SMOOTH",
"686 558 OFFCURVE",
"689 605 OFFCURVE",
"690 623 CURVE",
"804 623 LINE"
);
},
{
closed = 1;
nodes = (
"225 535 OFFCURVE",
"276 623 OFFCURVE",
"382 623 CURVE SMOOTH",
"488 623 OFFCURVE",
"539 535 OFFCURVE",
"539 352 CURVE SMOOTH",
"539 170 OFFCURVE",
"488 82 OFFCURVE",
"382 82 CURVE SMOOTH",
"276 82 OFFCURVE",
"225 170 OFFCURVE",
"225 352 CURVE SMOOTH"
);
},
{
closed = 1;
nodes = (
"649 592 LINE",
"591 673 OFFCURVE",
"498 720 OFFCURVE",
"382 720 CURVE SMOOTH",
"177 720 OFFCURVE",
"45 574 OFFCURVE",
"45 352 CURVE SMOOTH",
"45 131 OFFCURVE",
"177 -15 OFFCURVE",
"382 -15 CURVE SMOOTH",
"498 -15 OFFCURVE",
"591 32 OFFCURVE",
"649 113 CURVE"
);
}
);
};
layerId = "16643525-C5DD-48EC-8E99-463BF28F5E85";
paths = (
{
closed = 1;
nodes = (
"834 623 OFFCURVE",
"859 621 OFFCURVE",
"879 619 CURVE",
"892 583 LINE",
"894 568 OFFCURVE",
"896 554 OFFCURVE",
"898 537 CURVE",
"970 542 LINE",
"963 697 LINE",
"944 715 LINE",
"906 710 OFFCURVE",
"849 705 OFFCURVE",
"829 705 CURVE",
"440 705 LINE",
"570 571 LINE",
"570 101 LINE",
"440 0 LINE",
"844 0 LINE SMOOTH",
"864 0 OFFCURVE",
"958 -4 OFFCURVE",
"958 -4 CURVE",
"977 14 LINE",
"992 190 LINE",
"922 195 LINE",
"920 179 OFFCURVE",
"914 153 OFFCURVE",
"910 138 CURVE SMOOTH",
"907 128 OFFCURVE",
"901 113 OFFCURVE",
"891 95 CURVE",
"871 91 OFFCURVE",
"843 87 OFFCURVE",
"814 87 CURVE SMOOTH",
"689 87 LINE",
"688 107 OFFCURVE",
"686 155 OFFCURVE",
"686 193 CURVE",
"686 542 LINE",
"686 558 OFFCURVE",
"689 605 OFFCURVE",
"690 623 CURVE",
"804 623 LINE"
);
},
{
closed = 1;
nodes = (
"225 535 OFFCURVE",
"276 623 OFFCURVE",
"382 623 CURVE SMOOTH",
"488 623 OFFCURVE",
"539 535 OFFCURVE",
"539 352 CURVE SMOOTH",
"539 170 OFFCURVE",
"488 82 OFFCURVE",
"382 82 CURVE SMOOTH",
"276 82 OFFCURVE",
"225 170 OFFCURVE",
"225 352 CURVE SMOOTH"
);
},
{
closed = 1;
nodes = (
"649 592 LINE",
"591 673 OFFCURVE",
"498 720 OFFCURVE",
"382 720 CURVE SMOOTH",
"177 720 OFFCURVE",
"45 574 OFFCURVE",
"45 352 CURVE SMOOTH",
"45 131 OFFCURVE",
"177 -15 OFFCURVE",
"382 -15 CURVE SMOOTH",
"498 -15 OFFCURVE",
"591 32 OFFCURVE",
"649 113 CURVE"
);
},
{
closed = 1;
nodes = (
"748 316 LINE SMOOTH",
"768 316 OFFCURVE",
"802 313 OFFCURVE",
"812 312 CURVE",
"821 250 LINE",
"885 256 LINE",
"885 256 OFFCURVE",
"882 333 OFFCURVE",
"882 383 CURVE SMOOTH",
"882 403 OFFCURVE",
"883 466 OFFCURVE",
"883 466 CURVE",
"821 471 LINE",
"812 402 LINE",
"799 400 OFFCURVE",
"778 398 OFFCURVE",
"768 398 CURVE SMOOTH",
"676 398 LINE",
"676 316 LINE"
);
}
);
width = 1036;
},
{
background = {
paths = (
{
closed = 1;
nodes = (
"179 481 OFFCURVE",
"261 667 OFFCURVE",
"414 667 CURVE SMOOTH",
"512 667 OFFCURVE",
"557 560 OFFCURVE",
"557 421 CURVE SMOOTH",
"557 223 OFFCURVE",
"475 38 OFFCURVE",
"322 38 CURVE SMOOTH",
"224 38 OFFCURVE",
"179 145 OFFCURVE",
"179 283 CURVE SMOOTH"
);
},
{
closed = 1;
nodes = (
"809 649 LINE SMOOTH",
"836 649 OFFCURVE",
"866 646 OFFCURVE",
"887 644 CURVE",
"895 631 OFFCURVE",
"900 617 OFFCURVE",
"901 610 CURVE SMOOTH",
"903 595 OFFCURVE",
"904 572 OFFCURVE",
"904 556 CURVE",
"961 561 LINE",
"974 692 LINE",
"958 710 LINE",
"958 710 OFFCURVE",
"866 705 OFFCURVE",
"846 705 CURVE SMOOTH",
"479 705 LINE",
"537 649 LINE"
);
},
{
closed = 1;
nodes = (
"613 338 LINE",
"724 338 LINE SMOOTH",
"743 338 OFFCURVE",
"800 332 OFFCURVE",
"800 332 CURVE",
"797 265 LINE",
"845 271 LINE",
"845 271 OFFCURVE",
"852 330 OFFCURVE",
"860 380 CURVE SMOOTH",
"863 401 OFFCURVE",
"875 467 OFFCURVE",
"875 464 CURVE",
"830 469 LINE",
"810 403 LINE",
"810 403 OFFCURVE",
"771 394 OFFCURVE",
"751 394 CURVE SMOOTH",
"623 394 LINE"
);
},
{
closed = 1;
nodes = (
"357 0 LINE",
"756 0 LINE SMOOTH",
"776 0 OFFCURVE",
"866 -4 OFFCURVE",
"866 -4 CURVE",
"887 14 LINE",
"924 165 LINE",
"871 170 LINE",
"866 154 OFFCURVE",
"853 118 OFFCURVE",
"846 103 CURVE SMOOTH",
"842 94 OFFCURVE",
"832 80 OFFCURVE",
"821 66 CURVE",
"799 62 OFFCURVE",
"765 57 OFFCURVE",
"735 57 CURVE SMOOTH",
"442 57 LINE"
);
},
{
closed = 1;
nodes = (
"624 603 LINE",
"584 676 OFFCURVE",
"515 720 OFFCURVE",
"419 720 CURVE SMOOTH",
"193 720 OFFCURVE",
"72 531 OFFCURVE",
"72 284 CURVE SMOOTH",
"72 107 OFFCURVE",
"156 -15 OFFCURVE",
"317 -15 CURVE SMOOTH",
"425 -15 OFFCURVE",
"510 29 OFFCURVE",
"568 101 CURVE"
);
},
{
closed = 1;
nodes = (
"632 705 LINE",
"585 705 OFFCURVE",
"539 707 OFFCURVE",
"492 710 CURVE",
"504 656 LINE",
"577 644 LINE",
"577 631 OFFCURVE",
"616 583 OFFCURVE",
"614 568 CURVE SMOOTH",
"551 137 LINE SMOOTH",
"549 122 OFFCURVE",
"495 74 OFFCURVE",
"492 61 CURVE",
"413 45 LINE",
"401 -5 LINE",
"401 -5 OFFCURVE",
"521 0 OFFCURVE",
"546 0 CURVE",
"598 57 LINE",
"598 71 OFFCURVE",
"603 137 OFFCURVE",
"607 167 CURVE SMOOTH",
"661 538 LINE SMOOTH",
"665 568 OFFCURVE",
"680 632 OFFCURVE",
"684 649 CURVE"
);
}
);
};
layerId = "08C09966-8326-41C9-AE3D-74AAC6FC1D13";
paths = (
{
closed = 1;
nodes = (
"179 481 OFFCURVE",
"261 667 OFFCURVE",
"414 667 CURVE SMOOTH",
"512 667 OFFCURVE",
"557 560 OFFCURVE",
"557 421 CURVE SMOOTH",
"557 223 OFFCURVE",
"475 38 OFFCURVE",
"322 38 CURVE SMOOTH",
"224 38 OFFCURVE",
"179 145 OFFCURVE",
"179 283 CURVE SMOOTH"
);
},
{
closed = 1;
nodes = (
"809 649 LINE SMOOTH",
"836 649 OFFCURVE",
"866 646 OFFCURVE",
"887 644 CURVE",
"895 631 OFFCURVE",
"900 617 OFFCURVE",
"901 610 CURVE SMOOTH",
"903 595 OFFCURVE",
"904 572 OFFCURVE",
"904 556 CURVE",
"961 561 LINE",
"974 692 LINE",
"958 710 LINE",
"958 710 OFFCURVE",
"866 705 OFFCURVE",
"846 705 CURVE SMOOTH",
"479 705 LINE",
"537 649 LINE"
);
},
{
closed = 1;
nodes = (
"357 0 LINE",
"756 0 LINE SMOOTH",
"776 0 OFFCURVE",
"866 -4 OFFCURVE",
"866 -4 CURVE",
"887 14 LINE",
"924 165 LINE",
"871 170 LINE",
"866 154 OFFCURVE",
"853 118 OFFCURVE",
"846 103 CURVE SMOOTH",
"842 94 OFFCURVE",
"832 80 OFFCURVE",
"821 66 CURVE",
"799 62 OFFCURVE",
"765 57 OFFCURVE",
"735 57 CURVE SMOOTH",
"442 57 LINE"
);
},
{
closed = 1;
nodes = (
"624 603 LINE",
"584 676 OFFCURVE",
"515 720 OFFCURVE",
"419 720 CURVE SMOOTH",
"193 720 OFFCURVE",
"72 531 OFFCURVE",
"72 284 CURVE SMOOTH",
"72 107 OFFCURVE",
"156 -15 OFFCURVE",
"317 -15 CURVE SMOOTH",
"425 -15 OFFCURVE",
"510 29 OFFCURVE",
"568 101 CURVE"
);
},
{
closed = 1;
nodes = (
"632 705 LINE",
"585 705 OFFCURVE",
"539 707 OFFCURVE",
"492 710 CURVE",
"504 656 LINE",
"577 644 LINE",
"577 631 OFFCURVE",
"616 583 OFFCURVE",
"614 568 CURVE SMOOTH",
"551 137 LINE SMOOTH",
"549 122 OFFCURVE",
"495 74 OFFCURVE",
"492 61 CURVE",
"413 45 LINE",
"401 -5 LINE",
"401 -5 OFFCURVE",
"521 0 OFFCURVE",
"546 0 CURVE",
"598 57 LINE",
"598 71 OFFCURVE",
"603 137 OFFCURVE",
"607 167 CURVE SMOOTH",
"661 538 LINE SMOOTH",
"665 568 OFFCURVE",
"680 632 OFFCURVE",
"684 649 CURVE"
);
},
{
closed = 1;
nodes = (
"623 338 LINE",
"724 338 LINE SMOOTH",
"744 338 OFFCURVE",
"789 333 OFFCURVE",
"800 332 CURVE",
"797 265 LINE",
"845 271 LINE",
"845 271 OFFCURVE",
"852 330 OFFCURVE",
"860 380 CURVE SMOOTH",
"863 400 OFFCURVE",
"875 464 OFFCURVE",
"875 464 CURVE",
"830 469 LINE",
"809 400 LINE",
"795 398 OFFCURVE",
"761 394 OFFCURVE",
"751 394 CURVE SMOOTH",
"633 394 LINE"
);
}
);
width = 988;
},
{
anchors = (
{
name = top;
position = "{489, 720}";
}
);
background = {
paths = (
{
closed = 1;
nodes = (
"233 479 OFFCURVE",
"289 623 OFFCURVE",
"430 623 CURVE SMOOTH",
"508 623 OFFCURVE",
"546 559 OFFCURVE",
"546 433 CURVE SMOOTH",
"546 225 OFFCURVE",
"490 82 OFFCURVE",
"350 82 CURVE SMOOTH",
"272 82 OFFCURVE",
"233 146 OFFCURVE",
"233 271 CURVE SMOOTH"
);
},
{
closed = 1;
nodes = (
"615 316 LINE",
"743 316 LINE SMOOTH",
"763 316 OFFCURVE",
"803 310 OFFCURVE",
"803 310 CURVE",
"803 250 LINE",
"868 256 LINE",
"868 256 OFFCURVE",
"876 333 OFFCURVE",
"883 383 CURVE SMOOTH",
"886 403 OFFCURVE",
"896 466 OFFCURVE",
"896 466 CURVE",
"836 471 LINE",
"818 407 LINE",
"818 407 OFFCURVE",
"794 398 OFFCURVE",
"775 398 CURVE SMOOTH",
"622 398 LINE"
);
},
{
closed = 1;
nodes = (
"839 623 LINE SMOOTH",
"869 623 OFFCURVE",
"896 621 OFFCURVE",
"915 619 CURVE",
"919 611 OFFCURVE",
"920 599 OFFCURVE",
"921 595 CURVE",
"922 580 OFFCURVE",
"921 552 OFFCURVE",
"921 536 CURVE",
"992 541 LINE",
"1008 692 LINE",
"992 710 LINE",
"992 710 OFFCURVE",
"900 705 OFFCURVE",
"880 705 CURVE SMOOTH",
"643 705 LINE",
"734 623 LINE"
);
},
{
closed = 1;
nodes = (
"568 0 LINE",
"791 0 LINE SMOOTH",
"811 0 OFFCURVE",
"901 -4 OFFCURVE",
"901 -4 CURVE",
"922 14 LINE",
"962 190 LINE",
"894 195 LINE",
"890 179 OFFCURVE",
"881 153 OFFCURVE",
"875 138 CURVE SMOOTH",
"870 128 OFFCURVE",
"862 113 OFFCURVE",
"850 95 CURVE",
"830 91 OFFCURVE",
"803 87 OFFCURVE",
"775 87 CURVE SMOOTH",
"655 87 LINE"
);
},
{
closed = 1;
nodes = (
"643 705 LINE",
"613 705 OFFCURVE",
"523 710 OFFCURVE",
"523 710 CURVE",
"507 635 LINE",
"568 623 LINE",
"567 607 OFFCURVE",
"587 562 OFFCURVE",
"580 512 CURVE SMOOTH",
"529 163 LINE SMOOTH",
"526 143 OFFCURVE",
"491 87 OFFCURVE",
"488 77 CURVE",
"423 65 LINE",
"418 -5 LINE",
"418 -5 OFFCURVE",
"538 0 OFFCURVE",
"568 0 CURVE",
"660 77 LINE",
"660 91 OFFCURVE",
"661 143 OFFCURVE",
"669 193 CURVE SMOOTH",
"719 542 LINE SMOOTH",
"722 562 OFFCURVE",
"733 608 OFFCURVE",
"738 623 CURVE"
);
},
{
closed = 1;
nodes = (
"669 613 LINE",
"620 680 OFFCURVE",
"542 720 OFFCURVE",
"441 720 CURVE SMOOTH",
"216 720 OFFCURVE",
"56 544 OFFCURVE",
"56 292 CURVE SMOOTH",
"56 107 OFFCURVE",
"164 -15 OFFCURVE",
"339 -15 CURVE SMOOTH",
"451 -15 OFFCURVE",
"548 29 OFFCURVE",
"616 101 CURVE"
);
}
);
};
layerId = "B953D09C-6DD0-450A-A78C-8C2188DD4016";
paths = (
{
closed = 1;
nodes = (
"233 479 OFFCURVE",
"289 623 OFFCURVE",
"430 623 CURVE SMOOTH",
"508 623 OFFCURVE",
"546 559 OFFCURVE",
"546 433 CURVE SMOOTH",
"546 225 OFFCURVE",
"490 82 OFFCURVE",
"350 82 CURVE SMOOTH",
"272 82 OFFCURVE",
"233 146 OFFCURVE",
"233 271 CURVE SMOOTH"
);
},
{
closed = 1;
nodes = (
"839 623 LINE SMOOTH",
"869 623 OFFCURVE",
"896 621 OFFCURVE",
"915 619 CURVE",
"919 611 OFFCURVE",
"920 599 OFFCURVE",
"921 595 CURVE",
"922 580 OFFCURVE",
"921 552 OFFCURVE",
"921 536 CURVE",
"992 541 LINE",
"1008 692 LINE",
"992 710 LINE",
"992 710 OFFCURVE",
"900 705 OFFCURVE",
"880 705 CURVE SMOOTH",
"643 705 LINE",
"734 623 LINE"
);
},
{
closed = 1;
nodes = (
"568 0 LINE",
"791 0 LINE SMOOTH",
"811 0 OFFCURVE",
"901 -4 OFFCURVE",
"901 -4 CURVE",
"922 14 LINE",
"962 190 LINE",
"894 195 LINE",
"890 179 OFFCURVE",
"881 153 OFFCURVE",
"875 138 CURVE SMOOTH",
"870 128 OFFCURVE",
"862 113 OFFCURVE",
"850 95 CURVE",
"830 91 OFFCURVE",
"803 87 OFFCURVE",
"775 87 CURVE SMOOTH",
"655 87 LINE"
);
},
{
closed = 1;
nodes = (
"643 705 LINE",
"613 705 OFFCURVE",
"523 710 OFFCURVE",
"523 710 CURVE",
"507 635 LINE",
"568 623 LINE",
"567 607 OFFCURVE",
"587 562 OFFCURVE",
"580 512 CURVE SMOOTH",
"529 163 LINE SMOOTH",
"526 143 OFFCURVE",
"491 87 OFFCURVE",
"488 77 CURVE",
"423 65 LINE",
"418 -5 LINE",
"418 -5 OFFCURVE",
"538 0 OFFCURVE",
"568 0 CURVE",
"660 77 LINE",
"660 91 OFFCURVE",
"661 143 OFFCURVE",
"669 193 CURVE SMOOTH",
"719 542 LINE SMOOTH",
"722 562 OFFCURVE",
"733 608 OFFCURVE",
"738 623 CURVE"
);
},
{
closed = 1;
nodes = (
"669 613 LINE",
"620 680 OFFCURVE",
"542 720 OFFCURVE",
"441 720 CURVE SMOOTH",
"216 720 OFFCURVE",
"56 544 OFFCURVE",
"56 292 CURVE SMOOTH",
"56 107 OFFCURVE",
"164 -15 OFFCURVE",
"339 -15 CURVE SMOOTH",
"451 -15 OFFCURVE",
"548 29 OFFCURVE",
"616 101 CURVE"
);
},
{
closed = 1;
nodes = (
"744 316 LINE SMOOTH",
"764 316 OFFCURVE",
"789 312 OFFCURVE",
"804 310 CURVE",
"804 250 LINE",
"868 256 LINE",
"868 256 OFFCURVE",
"876 333 OFFCURVE",
"884 383 CURVE SMOOTH",
"887 403 OFFCURVE",
"897 466 OFFCURVE",
"897 466 CURVE",
"836 471 LINE",
"817 404 LINE",
"807 402 OFFCURVE",
"785 398 OFFCURVE",
"775 398 CURVE SMOOTH",
"660 398 LINE",
"649 316 LINE"
);
}
);
width = 1013;
}
);
leftKerningGroup = O;
rightKerningGroup = E;
unicode = 0152;
},
{
color = 1;
glyphname = Oslash;
lastChange = "2018-05-29 07:43:41 +0000";
layers = (
{
anchors = (
{
name = top;
position = "{391, 720}";
}
);
background = {
paths = (
{
closed = 1;
nodes = (
"709 570 OFFCURVE",
"598 720 OFFCURVE",
"381 720 CURVE",
"164 720 OFFCURVE",
"53 570 OFFCURVE",
"53 352 CURVE",
"53 135 OFFCURVE",
"164 -15 OFFCURVE",
"381 -15 CURVE SMOOTH",
"598 -15 OFFCURVE",
"709 135 OFFCURVE",
"709 352 CURVE"
);
},
{
closed = 1;
nodes = (
"160 527 OFFCURVE",
"232 667 OFFCURVE",
"381 667 CURVE",
"530 667 OFFCURVE",
"602 527 OFFCURVE",
"602 352 CURVE",
"602 178 OFFCURVE",
"530 38 OFFCURVE",
"381 38 CURVE SMOOTH",
"232 38 OFFCURVE",
"160 178 OFFCURVE",
"160 352 CURVE"
);
}
);
};
components = (
{
name = O;
}
);
layerId = UUID0;
paths = (
{
closed = 1;
nodes = (
"653 815 LINE",
"611 838 LINE",
"111 -113 LINE",
"151 -136 LINE"
);
}
);
width = 774;
},
{
anchors = (
{
name = top;
position = "{402, 720}";
}
);
background = {
paths = (
{
closed = 1;
nodes = (
"764 578 OFFCURVE",
"624 724 OFFCURVE",
"407 724 CURVE",
"190 724 OFFCURVE",
"50 578 OFFCURVE",
"50 352 CURVE",
"50 127 OFFCURVE",
"190 -19 OFFCURVE",
"407 -19 CURVE SMOOTH",
"624 -19 OFFCURVE",
"764 127 OFFCURVE",
"764 352 CURVE"
);
},
{
closed = 1;
nodes = (
"230 539 OFFCURVE",
"287 627 OFFCURVE",
"407 627 CURVE",
"527 627 OFFCURVE",
"584 539 OFFCURVE",
"584 352 CURVE",
"584 166 OFFCURVE",
"527 78 OFFCURVE",
"407 78 CURVE SMOOTH",
"287 78 OFFCURVE",
"230 166 OFFCURVE",
"230 352 CURVE"
);
}
);
};
components = (
{
name = O;
}
);
layerId = "16643525-C5DD-48EC-8E99-463BF28F5E85";
paths = (
{
closed = 1;
nodes = (
"686 809 LINE",
"627 838 LINE",
"130 -108 LINE",
"187 -137 LINE"
);
}
);
width = 802;
},
{
anchors = (
{
name = top;
position = "{431, 720}";
}
);
background = {
paths = (
{
closed = 1;
nodes = (
"707 815 LINE",
"669 838 LINE",
"46 -113 LINE",
"81 -136 LINE"
);
},
{
closed = 1;
nodes = (
"700 599 OFFCURVE",
"611 720 OFFCURVE",
"429 720 CURVE",
"184 720 OFFCURVE",
"51 530 OFFCURVE",
"51 283 CURVE",
"51 106 OFFCURVE",
"139 -15 OFFCURVE",
"322 -15 CURVE SMOOTH",
"565 -15 OFFCURVE",
"700 174 OFFCURVE",
"700 421 CURVE"
);
},
{
closed = 1;
nodes = (
"155 481 OFFCURVE",
"248 667 OFFCURVE",
"421 667 CURVE",
"541 667 OFFCURVE",
"596 559 OFFCURVE",
"596 421 CURVE",
"596 223 OFFCURVE",
"501 38 OFFCURVE",
"330 38 CURVE SMOOTH",
"209 38 OFFCURVE",
"155 145 OFFCURVE",
"155 283 CURVE"
);
}
);
};
components = (
{
name = O;
transform = "{1, 0, 0, 1, 1, 0}";
}
);
layerId = "08C09966-8326-41C9-AE3D-74AAC6FC1D13";
paths = (
{
closed = 1;
nodes = (
"707 815 LINE",
"669 838 LINE",
"46 -113 LINE",
"81 -136 LINE"
);
}
);
width = 764;
},
{
anchors = (
{
name = top;
position = "{451, 720}";
}
);
background = {
paths = (
{
closed = 1;
nodes = (
"727 809 LINE",
"674 838 LINE",
"54 -108 LINE",
"105 -137 LINE"
);
},
{
closed = 1;
nodes = (
"742 602 OFFCURVE",
"631 724 OFFCURVE",
"444 724 CURVE",
"207 724 OFFCURVE",
"38 548 OFFCURVE",
"38 292 CURVE",
"38 103 OFFCURVE",
"149 -19 OFFCURVE",
"335 -19 CURVE SMOOTH",
"573 -19 OFFCURVE",
"742 157 OFFCURVE",
"742 413 CURVE"
);
},
{
closed = 1;
nodes = (
"210 484 OFFCURVE",
"273 627 OFFCURVE",
"429 627 CURVE",
"524 627 OFFCURVE",
"569 563 OFFCURVE",
"569 432 CURVE",
"569 220 OFFCURVE",
"507 78 OFFCURVE",
"349 78 CURVE SMOOTH",
"256 78 OFFCURVE",
"210 143 OFFCURVE",
"210 272 CURVE"
);
}
);
};
components = (
{
name = O;
}
);
layerId = "B953D09C-6DD0-450A-A78C-8C2188DD4016";
paths = (
{
closed = 1;
nodes = (
"727 809 LINE",
"674 838 LINE",
"54 -108 LINE",
"105 -137 LINE"
);
}
);
width = 788;
}
);
leftKerningGroup = O;
rightKerningGroup = O;
unicode = 00D8;
},
